<?xml version="1.0" encoding="utf-8"?>
<!-- Generator: Adobe Illustrator 22.1.0, SVG Export Plug-In . SVG Version: 6.00 Build 0)  -->
<svg version="1.1" id="Camada_1" xmlns="http://www.w3.org/2000/svg" xmlns:xlink="http://www.w3.org/1999/xlink" x="0px" y="0px"
	 viewBox="0 0 1190.6 841.9" style="enable-background:new 0 0 1190.6 841.9;" xml:space="preserve">
<style type="text/css">
	.st0{fill:#00C64B;}
	.st1{fill:#141414;}
	.st2{fill:#00CE46;}
</style>
<g>
	<g>
		<path class="st0" d="M355.8,627.4L299,754l-48.2-126.6H271l22.5,60.3l6.9,20.4l7.8-19.9l26.6-60.8H355.8z"/>
		<path class="st1" d="M440.5,731.5H387c-4.3,11-7.8,19.9-7.8,19.9h-19.9l54.5-127l54.8,127h-19.9
			C448.8,751.4,445.2,742.5,440.5,731.5z M434.3,715.4c0,0-3.2-6.9-4.4-10.1c-2.7-7.5-5.3-13.5-6.6-17c-6-15.1-9.2-25.2-9.2-25.2
			s-3.9,10.3-9.9,25.2c-1.4,3.9-3.7,10.1-6.6,17c-1.2,3.2-4.3,10.1-4.3,10.1s2.5-0.4,20.8-0.4C432.3,715,434.3,715.4,434.3,715.4z"
			/>
		<path class="st1" d="M481.8,624.7l68.5,67.6l14.9,15.4l-0.2-19v-61.1h20.4v125.6l-71.9-69.6l-12.2-13.1l0.2,15.4v64.9h-19.7V624.7
			z"/>
		<path class="st1" d="M693.6,627.7v17.7h-37.2v105.9h-20.9V645.5h-36.2v-17.7L693.6,627.7L693.6,627.7L693.6,627.7z"/>
		<path class="st1" d="M790.5,627.6h2.3V709c0,24.5-19.9,44.3-44.2,44.3c-24.5,0-44.3-19.9-44.3-44.3v-81.4h2.3h13.8h1.2v79.5
			c0,15.1,12.1,28.9,27,28.9c14.7,0,26.8-13.8,26.8-28.9v-79.5h1.2H790.5z"/>
		<path class="st1" d="M939.8,751.5h-19.7l0.2-63.7l0.5-14.4l-9.4,10.8L879,718.7l-34.8-32.1l-10.1-12l0.4,16.9v60.1h-20.2V624.2
			l64.7,65.6l60.8-65.6L939.8,751.5L939.8,751.5z"/>
	</g>
	<g>
		<g>
			<path class="st1" d="M757.3,242.4l-15.1-1.5v-3.5c0-74.2-66.1-134.6-147.4-134.6s-147.4,60.4-147.4,134.6l-0.1,7.9h-15v-7.9
				c0-82.4,72.9-149.5,162.5-149.5S757.3,155,757.3,237.4V242.4L757.3,242.4z"/>
		</g>
		<g>
			<polygon class="st2" points="454,327.6 468.1,319.4 594.1,525.8 720,319.4 734.1,327.6 594.1,557.2 			"/>
		</g>
		<polygon class="st1" points="769,243.6 744.8,278.7 729,239.5 		"/>
		<path class="st1" d="M594.8,327.2c-45.2,0-82-36.8-82-82s36.8-82,82-82s82,36.8,82,82S640,327.2,594.8,327.2z M594.8,176.9
			c-37.6,0-68.3,30.6-68.3,68.3s30.6,68.3,68.3,68.3s68.3-30.6,68.3-68.3S632.5,176.9,594.8,176.9z"/>
	</g>
	<g>
		<circle class="st1" cx="594.8" cy="244.5" r="15.5"/>
		<polygon class="st1" points="613.8,235.4 692,157.1 683,148.2 631.3,172.8 606.5,228.2 		"/>
		<polygon class="st1" points="576,255.2 497.8,333.4 506.6,342.4 558,318 583.1,262.4 		"/>
	</g>
</g>
</svg>
