<?xml version="1.0" encoding="utf-8"?>
<!-- Generator: Adobe Illustrator 22.1.0, SVG Export Plug-In . SVG Version: 6.00 Build 0)  -->
<svg version="1.1" id="Camada_1" xmlns="http://www.w3.org/2000/svg" xmlns:xlink="http://www.w3.org/1999/xlink" x="0px" y="0px"
	 viewBox="0 0 1190.6 841.9" style="enable-background:new 0 0 1190.6 841.9;" xml:space="preserve">
<style type="text/css">
	.st0{fill:#00C64B;}
	.st1{fill:#FFFFFF;}
	.st2{fill:#00CE46;}
</style>
<g>
	<g>
		<path class="st0" d="M553.5,359l-56.9,126.6L448.4,359h20.4l22.5,60.3l6.9,20.4l7.8-19.9l26.6-60.8H553.5z"/>
		<path class="st1" d="M638.3,463.1h-53.5c-4.3,11-7.8,19.9-7.8,19.9H557l54.4-126.9L666.3,483h-19.9
			C646.3,483,642.8,474.1,638.3,463.1z M632,447c0,0-3.2-6.9-4.4-10.1c-2.7-7.4-5.3-13.5-6.6-17c-6-15.1-9.2-25.2-9.2-25.2
			s-3.9,10.3-9.9,25.2c-1.4,3.9-3.7,10.1-6.6,17c-1.2,3.2-4.3,10.1-4.3,10.1s2.5-0.4,20.7-0.4S632,447,632,447z"/>
		<path class="st1" d="M679.3,356.4l68.4,67.6l14.9,15.4l-0.2-19v-61.2h20.4v125.5l-71.8-69.5l-12.2-13.1l0.2,15.4v64.9h-19.7
			L679.3,356.4L679.3,356.4z"/>
		<path class="st1" d="M891.3,359.4v17.7H854v105.8h-20.9V377.1h-36.2v-17.7H891.3z"/>
		<path class="st1" d="M988,359.2h2.3v81.4c0,24.5-19.9,44.3-44.1,44.3c-24.5,0-44.3-19.9-44.3-44.3v-81.4h2.3H918h1.2v79.4
			c0,15.1,12.1,28.9,26.9,28.9c14.7,0,26.8-13.8,26.8-28.9v-79.4h1.2H988z"/>
		<path class="st1" d="M1137.3,483.1h-19.7l0.2-63.7l0.5-14.4l-9.4,10.8l-32.4,34.4l-34.8-32.1l-10.1-12.1l0.4,16.8v60.1h-20.2
			V355.8l64.7,65.6l60.8-65.6V483.1z"/>
	</g>
	<g>
		<g>
			<path class="st1" d="M378,340.8l-15.1-1.5v-3.5c0-74.2-66.1-134.5-147.3-134.5S68.3,261.7,68.3,335.8l-0.1,7.9H53.3v-7.9
				c0-82.4,72.8-149.4,162.4-149.4S378,253.4,378,335.8L378,340.8L378,340.8z"/>
		</g>
		<g>
			<polygon class="st2" points="74.9,426 89.1,417.8 214.9,624.1 340.9,417.8 355,426 214.9,655.5 			"/>
		</g>
		<polygon class="st1" points="389.8,342 365.5,377.1 349.9,337.9 		"/>
		<path class="st1" d="M215.6,425.6c-45.2,0-81.9-36.8-81.9-81.9s36.8-81.9,81.9-81.9s81.9,36.8,81.9,81.9S260.9,425.6,215.6,425.6z
			 M215.6,275.4c-37.6,0-68.2,30.6-68.2,68.2s30.6,68.2,68.2,68.2s68.2-30.6,68.2-68.2S253.4,275.4,215.6,275.4z"/>
	</g>
	<g>
		<circle class="st1" cx="215.6" cy="342.9" r="15.4"/>
		<polygon class="st1" points="234.6,333.8 312.8,255.6 303.8,246.7 252.1,271.3 227.4,326.6 		"/>
		<polygon class="st1" points="196.8,353.6 118.6,431.8 127.6,440.8 178.8,416.4 203.9,360.8 		"/>
	</g>
</g>
</svg>
