<?xml version="1.0" encoding="UTF-8"?>
<svg width="110px" height="80px" viewBox="0 0 110 80" version="1.1" xmlns="http://www.w3.org/2000/svg" xmlns:xlink="http://www.w3.org/1999/xlink">
    <!-- Generator: Sketch 47.1 (45422) - http://www.bohemiancoding.com/sketch -->
    <title>plan</title>
    <desc>Created with Sketch.</desc>
    <defs></defs>
    <g id="Page-1" stroke="none" stroke-width="1" fill="none" fill-rule="evenodd">
        <g id="plan">
            <g id="Plan" transform="translate(35.000000, 6.000000)">
                <path d="M12.8608901,48.3413 C12.4524086,48.8183 11.850063,49.0648 11.1682481,49.0648 C9.93875432,49.0648 8.94260617,48.0493 8.94260617,46.8348 C8.94260617,45.6203 9.93875432,44.6203 11.1682481,44.6203 C11.6556926,44.6203 12.1026432,44.7713 12.4691123,45.0338 L23.1645444,34.4648 C22.6406556,34.0628 22.2979765,33.4393 22.2979765,32.7333 C22.2979765,31.9903 22.6735568,31.3353 23.2445198,30.9373 L17.6275198,25.3888 C17.2980012,25.5788 16.9198901,25.6958 16.5103963,25.6958 C15.2809025,25.6958 14.2847543,24.7113 14.2847543,23.4968 C14.2847543,22.2823 15.2809025,21.2978 16.5103963,21.2978 C16.9973346,21.2978 17.4442852,21.4568 17.8107543,21.7188 L25.5961988,14.0283 C25.2094827,13.6328 24.9690506,13.0963 24.9690506,12.5028 C24.9690506,11.2883 25.9657049,10.3038 27.1946926,10.3038 C28.4241864,10.3038 29.4208407,11.2883 29.4208407,12.5028 C29.4208407,12.9783 29.2644333,13.4158 29.0042605,13.7753 L30.5597296,15.3118 C30.9591,14.9358 31.4966556,14.7013 32.0919148,14.7013 C33.1361494,14.7013 33.9642481,15.4148 34.2041741,16.3733 L38.4691864,12.1188 L38.4691864,4.8333 C38.4691864,3.4528 37.4203963,2.4998 36.0223469,2.4998 L5.14630988,2.4998 C3.74826049,2.4998 2.53091481,3.4528 2.53091481,4.8333 L2.53091481,57.2498 C2.53091481,58.6303 3.74826049,59.9998 5.14630988,59.9998 L25.4448531,59.9998 L12.8608901,48.3413 Z" id="Fill-1" fill="#1391FF"></path>
                <path d="M20.5,67 C18.8225432,67 17.462963,65.657 17.462963,64 C17.462963,62.343 18.8225432,61 20.5,61 C22.1774568,61 23.537037,62.343 23.537037,64 C23.537037,65.657 22.1774568,67 20.5,67 L20.5,67 Z M2.5308642,57.25 L2.5308642,4.8335 C2.5308642,3.4525 3.74820988,2.5 5.14625926,2.5 L36.0222963,2.5 C37.4203457,2.5 38.4691358,3.4525 38.4691358,4.8335 L38.4691358,12.119 L38.4691358,57.25 C38.4691358,58.6305 37.4203457,60 36.0222963,60 L25.4448025,60 L5.14625926,60 C3.74820988,60 2.5308642,58.6305 2.5308642,57.25 L2.5308642,57.25 Z M41,5 C41,2.2385 38.7338642,0 35.9382716,0 L5.0617284,0 C2.2661358,0 0,2.2385 0,5 L0,64 C0,66.7615 2.2661358,69 5.0617284,69 L35.9382716,69 C38.7338642,69 41,66.7615 41,64 L41,5 Z" id="Fill-3" fill="#7DC2FF"></path>
                <path d="M20.5,61 C18.8225432,61 17.462963,62.343 17.462963,64 C17.462963,65.657 18.8225432,67 20.5,67 C22.1774568,67 23.537037,65.657 23.537037,64 C23.537037,62.343 22.1774568,61 20.5,61" id="Fill-5" fill="#1391FF"></path>
                <path d="M34.3177593,16.9003 C34.3177593,18.1148 33.3211049,19.0993 32.0916111,19.0993 C30.8626235,19.0993 29.8659691,18.1148 29.8659691,16.9003 C29.8659691,16.2738 30.1342407,15.7123 30.5594259,15.3118 L29.004463,13.7753 C28.6010432,14.3343 27.9425123,14.7013 27.1948951,14.7013 C26.5662284,14.7013 26.0013395,14.4418 25.5964012,14.0283 L17.8109568,21.7188 C18.3692654,22.1183 18.7362407,22.7633 18.7362407,23.4968 C18.7362407,24.3068 18.2877716,25.0068 17.6277222,25.3883 L23.2447222,30.9363 C23.607142,30.6838 24.0465,30.5328 24.523821,30.5328 C25.7533148,30.5328 26.749463,31.5173 26.749463,32.7313 C26.749463,33.9458 25.7533148,34.9303 24.523821,34.9303 C24.0090432,34.9303 23.5413395,34.7508 23.1642407,34.4608 L12.4688086,45.0258 C13.0271173,45.4253 13.3940926,46.0703 13.3940926,46.8033 C13.3940926,47.3443 13.1890926,47.9583 12.8610926,48.3413 L25.4450556,59.9998 L36.0225494,59.9998 C37.4200926,59.9998 38.4693889,58.6303 38.4693889,57.2498 L38.4693889,12.1188 L34.2043765,16.3733 C34.2463889,16.5433 34.3177593,16.7178 34.3177593,16.9003" id="Fill-7" fill="#BFD0ED"></path>
                <path d="M16.6286383,22.88645 L17.8105519,21.71895 C17.4440827,21.45695 16.9976383,21.29795 16.5107,21.29795 C15.2812062,21.29795 14.2845519,22.28245 14.2845519,23.49645 C14.2845519,24.71095 15.2812062,25.69545 16.5107,25.69545 C16.9196877,25.69545 17.2983049,25.57845 17.6278235,25.38795 L16.6286383,24.40145 C16.2049716,23.98295 16.2049716,23.30495 16.6286383,22.88645" id="Fill-9" fill="#F2F2F2"></path>
                <path d="M18.736342,23.4966 C18.736342,22.7631 18.3693667,22.1181 17.8105519,21.7186 L16.6286383,22.8866 C16.2049716,23.3046 16.2049716,23.9831 16.6286383,24.4011 L17.6278235,25.3881 C18.2878728,25.0066 18.736342,24.3066 18.736342,23.4966" id="Fill-11" fill="#F2F2F2"></path>
                <path d="M28.1949914,12.9759 L29.0043617,13.7754 C29.2640284,13.4159 29.420942,12.9784 29.420942,12.5029 C29.420942,11.2884 28.4242877,10.3039 27.1947938,10.3039 C25.9653,10.3039 24.9691519,11.2884 24.9691519,12.5029 C24.9691519,13.0964 25.209584,13.6324 25.5963,14.0279 L26.6612877,12.9759 C27.0849543,12.5574 27.7713247,12.5574 28.1949914,12.9759" id="Fill-13" fill="#F2F2F2"></path>
                <path d="M27.1948444,14.70155 C27.9424617,14.70155 28.6009926,14.33405 29.0044123,13.77555 L28.195042,12.97605 C27.7713753,12.55755 27.0850049,12.55755 26.6613383,12.97605 L25.5963506,14.02805 C26.0012889,14.44205 26.5661778,14.70155 27.1948444,14.70155" id="Fill-15" fill="#F2F2F2"></path>
                <path d="M33.7070617,16.906 L34.2461358,16.3735 C34.0062099,15.415 33.1360988,14.7015 32.0918642,14.7015 C31.4966049,14.7015 30.9590494,14.9355 30.559679,15.3115 L32.173358,16.906 C32.5970247,17.3245 33.2833951,17.3245 33.7070617,16.906" id="Fill-17" fill="#F2F2F2"></path>
                <path d="M29.8659185,16.9003 C29.8659185,18.1148 30.8625728,19.0993 32.0920667,19.0993 C33.3210543,19.0993 34.3177086,18.1148 34.3177086,16.9003 C34.3177086,16.7178 34.2888568,16.5433 34.2463383,16.3733 L33.7072642,16.9058 C33.2835975,17.3243 32.5972272,17.3243 32.1735605,16.9058 L30.5593753,15.3118 C30.1341901,15.7123 29.8659185,16.2738 29.8659185,16.9003" id="Fill-19" fill="#F2F2F2"></path>
                <path d="M24.221737,31.9017 L23.2443173,30.9362 C22.6733543,31.3347 22.2977741,31.9882 22.2977741,32.7312 C22.2977741,33.4372 22.6409593,34.0587 23.164342,34.4612 L24.221737,33.4167 C24.6454037,32.9982 24.6454037,32.3202 24.221737,31.9017" id="Fill-21" fill="#F2F2F2"></path>
                <path d="M26.7496654,32.7314 C26.7496654,31.5169 25.7530111,30.5324 24.5235173,30.5324 C24.0467025,30.5324 23.6068383,30.6839 23.2444185,30.9364 L24.2218383,31.9019 C24.6449988,32.3199 24.6449988,32.9984 24.2218383,33.4164 L23.1644432,34.4609 C23.541542,34.7509 24.0092457,34.9304 24.5235173,34.9304 C25.7530111,34.9304 26.7496654,33.9459 26.7496654,32.7314" id="Fill-23" fill="#F2F2F2"></path>
                <path d="M11.7782877,45.70815 L12.4687074,45.02615 C12.1022383,44.76365 11.6552877,44.60465 11.1683494,44.60465 C9.93885556,44.60465 8.94220123,45.58915 8.94220123,46.80365 C8.94220123,48.01765 9.93885556,49.00215 11.1683494,49.00215 C11.8501642,49.00215 12.4525099,48.69315 12.8609914,48.21615 L11.8076457,47.25065 C11.3566457,46.83765 11.3434852,46.13765 11.7782877,45.70815" id="Fill-25" fill="#F2F2F2"></path>
                <path d="M12.4689099,45.02595 L11.7784901,45.70795 C11.3436877,46.13745 11.3568481,46.83745 11.807342,47.25095 L12.8606877,48.21595 C13.1886877,47.83295 13.3941938,47.34445 13.3941938,46.80345 C13.3941938,46.07045 13.0272185,45.42545 12.4689099,45.02595" id="Fill-27" fill="#F2F2F2"></path>
            </g>
        </g>
    </g>
</svg>