<svg height="512pt" viewBox="0 -22 512 512" width="512pt" xmlns="http://www.w3.org/2000/svg"><path d="m494.839844 53.695312h-17.101563v-23.695312h19.214844c8.28125 0 15-6.714844 15-15s-6.71875-15-15-15h-68.433594c-8.28125 0-15 6.714844-15 15s6.71875 15 15 15h19.21875v23.695312h-17.105469c-9.460937 0-17.160156 7.695313-17.160156 17.15625v2.636719l-72.914062-7.941406-.140625-.015625c-54.433594-5.421875-109.636719-5.421875-164.074219 0l-77.582031 7.742188v-2.457032c0-9.460937-7.699219-17.160156-17.160157-17.160156h-17.105468v-23.65625h19.261718c8.285157 0 15-6.714844 15-15s-6.714843-15-15-15h-68.527343c-8.285157 0-15 6.714844-15 15s6.714843 15 15 15h19.265625v23.660156h-17.105469c-9.460937 0-17.160156 7.695313-17.160156 17.15625v88.105469c0 20.007813 16.28125 36.289063 36.289062 36.289063h25.953125c19.65625 0 35.714844-15.714844 36.269532-35.238282 34.15625 5.429688 64.445312 25.582032 82.53125 55.433594 11.820312 19.570312 33.386718 31.777344 56.328124 31.851562h41.640626c22.878906-.0625 44.445312-12.25 56.277343-31.796874 17.289063-28.539063 45.710938-48.210938 78-54.640626.972657 19.144532 16.855469 34.425782 36.238281 34.425782h25.957032c20.007812 0 36.285156-16.277344 36.285156-36.285156v-88.105469c0-9.464844-7.695312-17.160157-17.160156-17.160157zm-426.082032 105.226563c0 3.46875-2.820312 6.289063-6.285156 6.289063h-25.953125c-3.46875 0-6.289062-2.820313-6.289062-6.289063v-75.261719h38.527343zm344.714844-28.5625c-42.871094 6.777344-80.898437 32.066406-103.617187 69.5625-6.449219 10.65625-18.214844 17.300781-30.65625 17.335937h-41.546875c-12.492188-.039062-24.253906-6.691406-30.710938-17.378906-23.519531-38.816406-63.453125-64.550781-108.183594-70.203125v-26.25l80.5625-8.042969c52.441407-5.222656 105.617188-5.226562 158.058594-.003906l76.09375 8.285156zm68.527344 28.601563c0 3.464843-2.820312 6.285156-6.285156 6.285156h-25.957032c-3.464843 0-6.285156-2.820313-6.285156-6.285156v-75.265626h38.527344zm0 0"/><path d="m221.398438 118.550781c-19.210938 19.167969-19.214844 50.210938 0 69.382813 19.140624 19.101562 50.289062 19.105468 69.4375 0 19.203124-19.167969 19.207031-50.210938 0-69.382813-19.144532-19.101562-50.292969-19.105469-69.4375 0zm48.246093 48.144531c-11.972656 11.949219-32.644531 3.457032-32.644531-13.453124 0-10.671876 8.703125-19.039063 19.113281-19.039063 16.976563 0 25.492188 20.554687 13.53125 32.492187zm0 0"/><path d="m492.652344 305.5h-11.027344c-18.753906 0-35.585938 8.375-46.957031 21.582031-11.371094-13.207031-28.203125-21.582031-46.957031-21.582031h-11.027344c-10.414063 0-18.886719 8.472656-18.886719 18.886719v28.085937c0 24.6875 20.085937 44.769532 44.773437 44.769532h17.097657v39.757812h-149.386719v-40.429688h17.101562c24.6875 0 44.769532-20.082031 44.769532-44.769531v-28.082031c0-10.414062-8.472656-18.890625-18.886719-18.890625h-11.027344c-18.75 0-35.585937 8.375-46.957031 21.582031-11.371094-13.207031-28.203125-21.582031-46.957031-21.582031h-11.023438c-10.414062 0-18.890625 8.476563-18.890625 18.890625v28.082031c0 24.6875 20.085938 44.769531 44.773438 44.769531h17.097656v40.429688h-148.085938v-40.671875h17.101563c24.6875 0 44.769531-20.085937 44.769531-44.769531v-28.085938c0-10.414062-8.472656-18.886718-18.886718-18.886718h-11.027344c-18.753906 0-35.585938 8.375-46.957032 21.582031-11.371093-13.207031-28.207031-21.582031-46.957031-21.582031h-11.027343c-10.414063 0-18.886719 8.472656-18.886719 18.886718v28.085938c0 24.6875 20.085937 44.769531 44.773437 44.769531h17.097656v40.671875h-47.195312c-8.285156 0-15 6.714844-15 15s6.714844 15 15 15h481.539062c8.28125 0 15-6.714844 15-15s-6.71875-15-15-15h-46.871093v-39.757812h17.101562c24.683594 0 44.769531-20.082032 44.769531-44.769532v-28.085937c0-10.414063-8.472656-18.886719-18.886718-18.886719zm-90.085938 61.742188c-8.144531 0-14.769531-6.625-14.769531-14.769532v-16.972656c17.511719.046875 31.753906 14.25 31.867187 31.742188zm-100.414062-32.414063v16.972656c0 8.144531-6.625 14.769531-14.769532 14.769531h-17.101562c.117188-17.492187 14.363281-31.691406 31.871094-31.742187zm-78.96875 31.742187c-8.144532 0-14.769532-6.625-14.769532-14.769531v-16.972656c17.507813.050781 31.75 14.25 31.867188 31.742187zm-99.117188-31.984374v16.972656c0 8.144531-6.625 14.769531-14.769531 14.769531h-17.101563c.117188-17.492187 14.363282-31.695313 31.871094-31.742187zm-78.96875 31.742187c-8.148437 0-14.773437-6.625-14.773437-14.769531v-16.972656c17.511719.046874 31.753906 14.25 31.871093 31.742187zm436.441406-13.855469c0 8.144532-6.628906 14.769532-14.773437 14.769532h-17.097656c.117187-17.492188 14.359375-31.695313 31.867187-31.742188v16.972656zm0 0"/></svg>