<svg height="512pt" viewBox="0 -26 512.001 512" width="512pt" xmlns="http://www.w3.org/2000/svg"><path d="m500.871094 318.496094-229.871094-102.359375v-49.800781l21.0625-21.070313h72.183594c8.839844 0 16.03125-7.1875 16.03125-16.023437v-113.21875c0-8.832032-7.191406-16.023438-16.03125-16.023438h-216.492188c-8.839844 0-16.03125 7.1875-16.03125 16.023438v113.21875c0 8.835937 7.191406 16.023437 16.03125 16.023437h71.886719l21.359375 21.121094v49.75l-229.871094 102.359375c-6.761718 3.007812-11.128906 9.730468-11.128906 17.125 0 7.394531 4.367188 14.117187 11.128906 17.125l237.230469 105.632812c2.425781 1.082032 5.035156 1.621094 7.640625 1.621094 2.609375 0 5.214844-.539062 7.644531-1.621094l237.226563-105.632812c6.761718-3.011719 11.128906-9.734375 11.128906-17.125 0-7.394532-4.367188-14.117188-11.128906-17.125zm-158.273438 71.886718-50.140625-22.988281 44.636719-20.464843 51.539062 22.953124zm-86.132812-39.488281-44.109375-20.222656 44.113281-19.644531 44.109375 19.640625zm-132.628906 19.199219 52.003906-23.160156 44.632812 20.460937-50.601562 23.195313zm55.226562-93.539062 40.535156 18.054687-43.578125 19.40625-39.949219-18.316406zm76.9375-34.257813 40.53125 18.046875-40.0625 17.84375-40.53125-18.050781zm37.34375 52.3125 40.0625-17.84375 42.992188 19.144531-39.484376 18.101563zm-67.964844-179.34375h-63.65625v-85.265625h188.554688v85.265625h-64c-4.28125 0-8.308594 1.667969-11.339844 4.695313l-19 19.007812-19.292969-19.078125c-3.019531-2.984375-7.019531-4.625-11.265625-4.625zm-125.824218 196.695313 39.949218 18.316406-52.542968 23.394531-40.539063-18.050781zm156.445312 116.984374-49.609375-22.09375 50.074219-22.957031 49.613281 22.746094zm169.507812-75.480468-52.078124-23.191406 39.488281-18.105469 52.664062 23.453125zm0 0"/><path d="m326.914062 72.4375c0-8.28125-6.714843-15-15-15h-112.453124c-8.285157 0-15 6.71875-15 15 0 8.285156 6.714843 15 15 15h112.453124c8.285157 0 15-6.714844 15-15zm0 0"/></svg>