<svg height="496pt" viewBox="0 0 496 496" width="496pt" xmlns="http://www.w3.org/2000/svg"><path d="m417.792969 304h-22.480469c-6.960938 0-13.617188 2-19.3125 5.734375-5.695312-3.734375-12.351562-5.734375-19.3125-5.734375h-4.6875v-32h32v-76l-136-102-136 102v76h32v32h-4.6875c-6.960938 0-13.617188 2-19.3125 5.734375-5.695312-3.734375-12.351562-5.734375-19.3125-5.734375h-22.480469c-16.640625 0-31.175781 11.824219-34.535156 27.953125l-37.71875 164.046875h484.09375l-37.6875-163.886719c-3.390625-16.289062-17.925781-28.113281-34.566406-28.113281zm-48.082031 21.144531 21.121093 154.855469h-55.527343l-14.273438-156.992188c3.058594-1.9375 6.585938-3.007812 10.28125-3.007812h25.375c4.878906 0 9.457031 1.855469 13.023438 5.144531zm-178.824219-.496093c3.480469-2.960938 7.808593-4.648438 12.425781-4.648438h25.375c4.128906 0 8.03125 1.34375 11.3125 3.726562v156.273438h-63.238281zm57.113281-14.914063c-5.695312-3.734375-12.351562-5.734375-19.3125-5.734375h-1.375l20.6875-20.6875 20.6875 20.6875h-1.375c-6.960938 0-13.617188 2-19.3125 5.734375zm-11.3125-37.734375-20.6875 20.6875v-41.375zm22.625 0 20.6875-20.6875v41.375zm-11.3125-11.3125-20.6875-20.6875h41.375zm8 63.039062c3.28125-2.382812 7.183594-3.726562 11.3125-3.726562h25.375c4.617188 0 8.945312 1.6875 12.433594 4.648438l14.117187 155.351562h-63.238281zm-128-67.726562v-52l120-90 120 90v52h-16v-44l-104-78-104 78v44zm32-36 88-66 88 66v84h-4.6875c-6.960938 0-13.617188 2-19.3125 5.734375-4.785156-3.132813-10.257812-4.964844-16-5.496094v-80.238281h-96v80.238281c-5.742188.539063-11.214844 2.371094-16 5.496094-5.695312-3.734375-12.351562-5.734375-19.3125-5.734375h-4.6875zm4.6875 100c3.695312 0 7.222656 1.070312 10.28125 3.007812l-14.273438 156.992188h-55.527343l21.121093-154.855469c3.566407-3.289062 8.144532-5.144531 13.023438-5.144531zm-105.390625 15.375c1.863281-8.910156 9.816406-15.375 18.910156-15.375h22.480469c3.503906 0 6.832031.992188 9.769531 2.734375l-21.441406 157.265625h-62.96875zm347.6875 144.625-21.449219-157.265625c2.945313-1.742187 6.273438-2.734375 9.777344-2.734375h22.480469c9.101562 0 17.054687 6.464844 18.941406 15.535156l33.21875 144.464844zm0 0"/><path d="m99.574219 359.160156-7.148438-14.320312-12.425781 6.214844-12.425781-6.214844-7.148438 14.320312 19.574219 9.785156zm0 0"/><path d="m91.574219 407.160156-7.148438-14.320312-12.425781 6.214844-12.425781-6.214844-7.148438 14.320312 19.574219 9.785156zm0 0"/><path d="m76.425781 440.839844-12.425781 6.214844-12.425781-6.214844-7.148438 14.320312 19.574219 9.785156 19.574219-9.785156zm0 0"/><path d="m171.574219 359.160156-7.148438-14.320312-12.425781 6.214844-12.425781-6.214844-7.148438 14.320312 19.574219 9.785156zm0 0"/><path d="m144 399.054688-12.425781-6.214844-7.148438 14.320312 19.574219 9.785156 19.574219-9.785156-7.148438-14.320312zm0 0"/><path d="m136 447.054688-12.425781-6.214844-7.148438 14.320312 19.574219 9.785156 19.574219-9.785156-7.148438-14.320312zm0 0"/><path d="m235.574219 359.160156-7.148438-14.320312-12.425781 6.214844-12.425781-6.214844-7.148438 14.320312 19.574219 9.785156zm0 0"/><path d="m235.574219 407.160156-7.148438-14.320312-12.425781 6.214844-12.425781-6.214844-7.148438 14.320312 19.574219 9.785156zm0 0"/><path d="m208 464.945312 19.574219-9.785156-7.148438-14.320312-12.425781 6.214844-12.425781-6.214844-7.148438 14.320312zm0 0"/><path d="m435.574219 359.160156-7.148438-14.320312-12.425781 6.214844-12.425781-6.214844-7.148438 14.320312 19.574219 9.785156zm0 0"/><path d="m424 399.054688-12.425781-6.214844-7.148438 14.320312 19.574219 9.785156 19.574219-9.785156-7.148438-14.320312zm0 0"/><path d="m419.574219 440.839844-7.148438 14.320312 19.574219 9.785156 19.574219-9.785156-7.148438-14.320312-12.425781 6.214844zm0 0"/><path d="m344 368.945312 19.574219-9.785156-7.148438-14.320312-12.425781 6.214844-12.425781-6.214844-7.148438 14.320312zm0 0"/><path d="m339.574219 392.839844-7.148438 14.320312 19.574219 9.785156 19.574219-9.785156-7.148438-14.320312-12.425781 6.214844zm0 0"/><path d="m347.574219 440.839844-7.148438 14.320312 19.574219 9.785156 19.574219-9.785156-7.148438-14.320312-12.425781 6.214844zm0 0"/><path d="m299.574219 359.160156-7.148438-14.320312-12.425781 6.214844-12.425781-6.214844-7.148438 14.320312 19.574219 9.785156zm0 0"/><path d="m299.574219 407.160156-7.148438-14.320312-12.425781 6.214844-12.425781-6.214844-7.148438 14.320312 19.574219 9.785156zm0 0"/><path d="m300.425781 440.839844-12.425781 6.214844-12.425781-6.214844-7.148438 14.320312 19.574219 9.785156 19.574219-9.785156zm0 0"/><path d="m32 96h96c17.648438 0 32-14.351562 32-32 0-16.382812-12.375-29.929688-28.265625-31.785156-6.824219-12.015625-21.390625-18.734375-35.160156-15.304688-7.40625-10.453125-19.527344-16.910156-32.574219-16.910156-19.617188 0-35.984375 14.191406-39.359375 32.855469-14.113281 3.328125-24.640625 16.03125-24.640625 31.144531 0 17.648438 14.351562 32 32 32zm0-48h8v-8c0-13.230469 10.769531-24 24-24 9.328125 0 17.871094 5.519531 21.777344 14.070312l3.488281 7.640626 7.460937-3.847657c9.058594-4.65625 19.25.152344 22.304688 8.914063l2 5.75 7.207031-.527344c8.714844.128906 15.761719 7.257812 15.761719 16 0 8.824219-7.175781 16-16 16h-96c-8.824219 0-16-7.175781-16-16s7.175781-16 16-16zm0 0"/><path d="m376 0h16v16h-16zm0 0"/><path d="m316.109375 31.421875 11.316406-11.3125 11.308594 11.316406-11.3125 11.3125zm0 0"/><path d="m350.054688 42.742188-11.3125 11.3125 11.921874 11.921874c-2.785156 4.191407-4.816406 8.925782-5.855468 14.023438h-16.808594v16h16.871094c.542968 2.65625 1.402344 5.214844 2.464844 7.703125-6.894532 5.871094-11.335938 14.554687-11.335938 24.296875 0 17.648438 14.351562 32 32 32h96c17.648438 0 32-14.351562 32-32 0-15.113281-10.527344-27.816406-24.640625-31.144531-3.375-18.664063-19.742187-32.855469-39.359375-32.855469-4.945312 0-9.753906.9375-14.230469 2.65625-.144531-.230469-.25-.496094-.402343-.71875l11.878906-11.882812-11.308594-11.3125-11.96875 11.976562c-4.207031-2.773438-8.914062-4.789062-13.96875-5.824219v-16.894531h-16v16.808594c-5.097656 1.039062-9.824219 3.070312-14.023438 5.855468zm105.945312 61.257812v8h8c8.824219 0 16 7.175781 16 16s-7.175781 16-16 16h-96c-8.824219 0-16-7.175781-16-16s7.175781-16 15.71875-16l7.25.527344 2.007812-5.742188c3.0625-8.785156 13.304688-13.578125 22.296876-8.921875l7.460937 3.847657 3.496094-7.640626c3.898437-8.550781 12.441406-14.070312 21.769531-14.070312 13.230469 0 24 10.769531 24 24zm-72-40c8.457031 0 16.03125 4.433594 20.328125 11.304688-1.785156 1.71875-3.457031 3.558593-4.902344 5.605468-13.714843-3.421875-28.320312 3.28125-35.152343 15.304688-.890626.105468-1.722657.378906-2.59375.554687-1.085938-2.777343-1.679688-5.738281-1.679688-8.769531 0-13.230469 10.769531-24 24-24zm0 0"/><path d="m296 80h16v16h-16zm0 0"/><path d="m429.253906 31.4375 11.3125-11.316406 11.3125 11.316406-11.3125 11.3125zm0 0"/></svg>