<svg height="512pt" viewBox="0 -30 512 511" width="512pt" xmlns="http://www.w3.org/2000/svg"><path d="m56.335938 191.925781c-5.523438 0-10-4.476562-10-10v-72.125c0-5.523437 4.476562-10 10-10 5.523437 0 10 4.476563 10 10v72.125c0 5.523438-4.476563 10-10 10zm0 0"/><path d="m148.921875 99.394531h-56.039063c-5.523437 0-10-4.476562-10-10 0-5.523437 4.476563-10 10-10h56.039063c5.523437 0 10 4.476563 10 10 0 5.523438-4.476563 10-10 10zm0 0"/><path d="m185.46875 191.925781c-5.523438 0-10-4.476562-10-10v-72.125c0-5.523437 4.476562-10 10-10 5.519531 0 10 4.476563 10 10v72.125c0 5.523438-4.480469 10-10 10zm0 0"/><path d="m198.75 412.023438c-.648438 0-1.308594-.070313-1.949219-.199219-.640625-.128907-1.269531-.320313-1.871093-.570313-.609376-.25-1.191407-.558594-1.730469-.917968-.550781-.363282-1.058594-.78125-1.519531-1.242188-.460938-.460938-.878907-.96875-1.238282-1.519531-.363281-.539063-.671875-1.128907-.921875-1.730469s-.449219-1.230469-.570312-1.871094c-.128907-.636718-.199219-1.296875-.199219-1.949218 0-.648438.070312-1.308594.199219-1.960938.121093-.628906.320312-1.257812.570312-1.867188.25-.601562.558594-1.179687.921875-1.722656.359375-.546875.777344-1.058594 1.238282-1.519531.460937-.460937.96875-.878906 1.519531-1.25.539062-.359375 1.121093-.667969 1.730469-.917969.601562-.25 1.230468-.441406 1.871093-.570312 1.289063-.261719 2.609375-.261719 3.898438 0 .640625.128906 1.269531.320312 1.871093.570312.609376.25 1.191407.558594 1.730469.917969.550781.371094 1.058594.789063 1.519531 1.25.460938.460937.878907.972656 1.238282 1.519531.363281.542969.671875 1.121094.921875 1.722656.25.609376.449219 1.238282.570312 1.867188.128907.652344.199219 1.3125.199219 1.960938 0 .652343-.070312 1.3125-.199219 1.949218-.121093.640625-.320312 1.269532-.570312 1.871094s-.558594 1.191406-.921875 1.730469c-.359375.550781-.777344 1.058593-1.238282 1.519531-.460937.460938-.96875.878906-1.519531 1.242188-.539062.359374-1.121093.667968-1.730469.917968-.601562.25-1.230468.441406-1.871093.570313-.640625.128906-1.300781.199219-1.949219.199219zm0 0"/><path d="m508.171875 399.519531c0-.003906-.003906-.007812-.003906-.011719-6.800781-26.3125-19.542969-47.378906-37.890625-62.65625v-23.371093c1.5625.929687 3.332031 1.402343 5.105468 1.402343 1.542969 0 3.089844-.355468 4.515626-1.078124 3.363281-1.703126 5.484374-5.152344 5.484374-8.921876v-54.980468c0-3.183594-1.515624-6.179688-4.082031-8.0625l-109.195312-80.167969c-3.523438-2.582031-8.316407-2.582031-11.835938 0l-109.199219 80.167969c-2.5625 1.882812-4.082031 4.878906-4.082031 8.0625v10.65625c-1.054687-.375-2.1875-.582032-3.375-.582032-16.519531 0-32.777343 2.785157-48.144531 8.175782v-5.792969c1.457031.773437 3.0625 1.15625 4.667969 1.15625 2.558593 0 5.117187-.976563 7.070312-2.925781l28.480469-28.464844c1.878906-1.875 2.933594-4.421875 2.933594-7.074219 0-2.652343-1.054688-5.195312-2.933594-7.070312l-40.21875-40.199219v-63.835938l40.21875-40.199218c1.878906-1.875 2.933594-4.417969 2.933594-7.070313 0-2.652343-1.054688-5.199219-2.933594-7.074219l-28.480469-28.464843c-3.902343-3.902344-10.234375-3.902344-14.136719 0l-23.300781 23.289062-41.128906-50.257812c-1.898437-2.320313-4.742187-3.667969-7.738281-3.667969-3 0-5.839844 1.347656-7.742188 3.667969l-41.125 50.253906-23.300781-23.285156c-3.90625-3.902344-10.234375-3.902344-14.136719 0l-28.484375 28.464843c-1.875 1.875-2.929687 4.417969-2.929687 7.070313s1.054687 5.199219 2.929687 7.074219l40.222657 40.195312v63.839844l-40.222657 40.195312c-1.875 1.878907-2.929687 4.421876-2.929687 7.074219 0 2.652344 1.054687 5.199219 2.929687 7.074219l28.484375 28.464844c1.949219 1.949218 4.507813 2.925781 7.066406 2.925781 1.609376 0 3.214844-.386719 4.671876-1.15625v91.03125c-15.8125 11.023437-28.722657 26.261719-36.914063 44.539063-6.253906 13.949218-9.421875 28.824218-9.421875 44.21875 0 5.523437 4.476562 10 10 10h491.292969c5.09375 0 9.375-3.832032 9.9375-8.894532.511719-4.574218.769531-9.113281.769531-13.484375 0-10.242187-1.289062-20.421875-3.828125-30.25zm-23.285156-7.5h-14.609375v-26.554687c5.996094 7.691406 10.875 16.5625 14.609375 26.554687zm-34.609375 0h-48.007813v-44.800781c0-5.523438-4.476562-10-10-10h-52.167969c-5.523437 0-10 4.476562-10 10v44.800781h-48.003906l-.003906-93.164062 84.089844-61.734375 84.09375 61.734375zm-68.003906 0h-32.171876v-34.800781h32.171876zm-16.089844-209.878906 99.199218 72.824219v30.167968l-93.28125-68.480468c-.21875-.160156-.445312-.3125-.671874-.453125-.390626-.242188-.792969-.453125-1.207032-.632813-.035156-.015625-.066406-.03125-.097656-.042968-.070312-.03125-.140625-.058594-.214844-.089844-.066406-.027344-.136718-.054688-.207031-.082032-.027344-.007812-.050781-.019531-.078125-.027343-1.109375-.40625-2.273438-.609375-3.4375-.609375s-2.332031.203125-3.441406.609375c-.023438.007812-.050782.019531-.078125.027343-.070313.027344-.140625.054688-.207031.082032-.070313.03125-.144532.058594-.214844.089844-.03125.011718-.0625.027343-.097656.042968-.410157.179688-.816407.390625-1.207032.632813-.226562.140625-.453125.292969-.671875.453125l-93.277343 68.480468v-30.167968zm-166.046875 57.238281-7.585938-7.585937c-.007812-.007813-.015625-.015625-.023437-.023438l-35.597656-35.574219 14.335937-14.328124 43.207031 43.183593zm-122.53125-78.71875c-3.046875-3.046875-7.574219-3.714844-11.269531-2.003906v-25.585938c1.328124.617188 2.765624.921876 4.199218.921876 2.558594 0 5.117188-.972657 7.070313-2.925782l7.171875-7.167968 21.976562 21.964843-21.976562 21.964844zm21.320312-50.898437 7.160157-7.160157c.929687-.929687 1.65625-2.019531 2.152343-3.207031h25.324219c.496094 1.1875 1.222656 2.28125 2.152344 3.207031l7.164062 7.160157-21.976562 21.960937zm58.097657 14.136719 7.171874 7.167968c1.953126 1.953125 4.511719 2.925782 7.070313 2.925782 1.433594 0 2.871094-.304688 4.203125-.921876v25.585938c-3.699219-1.710938-8.226562-1.042969-11.273438 2.003906l-7.171874 7.167969-21.976563-21.964844zm43.113281-71.550782 14.335937 14.328125-43.207031 43.179688-14.335937-14.328125zm-79.234375-26.058594 34.648437 42.339844-10.769531 10.765625h-47.757812l-.8125-.8125-9.960938-9.953125zm-79.238282 26.058594 43.207032 43.179688-14.335938 14.328125-43.207031-43.183594zm-14.335937 172.703125 43.207031-43.183593 14.335938 14.328124-35.597656 35.578126-.015626.015624-7.59375 7.589844zm39.007813 17.945313 39.75-39.726563c1.878906-1.875 2.933593-4.417969 2.933593-7.074219 0-2.652343-1.054687-5.195312-2.933593-7.070312l-7.160157-7.160156 21.976563-21.964844 21.976562 21.964844-7.164062 7.160156c-1.878906 1.875-2.933594 4.417969-2.933594 7.070312 0 2.65625 1.054688 5.199219 2.933594 7.074219l39.753906 39.726563v33.925781c-3.167969 1.683594-6.28125 3.488281-9.328125 5.414063-20.53125 12.96875-37.457031 30.8125-49.289063 51.894531-2.859374-.226563-5.714843-.339844-8.535156-.339844-14.6875 0-28.917968 2.980469-41.980468 8.480469zm425.632812 189.152344h-471.414062c.773437-6.894532 2.351562-13.621094 4.71875-20.128907h140.390624c5.523438 0 10-4.476562 10-10 0-5.523437-4.476562-10-10-10h-130.054687c18.640625-26.945312 51.375-42.125 85.460937-37.203125 4.269532.617188 8.453126-1.570312 10.378907-5.429687 21.375-42.816407 64.351562-69.414063 112.164062-69.414063 1.183594 0 2.320313-.207031 3.375-.585937v25.492187c0 3.769532 2.121094 7.21875 5.484375 8.921875 3.070313 1.554688 6.703125 1.414063 9.621094-.324219l.003906 88.542969c0 5.523438 4.476563 10 10 10h218.339844c1.039062 5.832031 1.5625 11.773438 1.5625 17.746094 0 .789063-.011719 1.582031-.03125 2.382813zm0 0"/></svg>