<?xml version="1.0"?>
<svg xmlns="http://www.w3.org/2000/svg" height="512px" viewBox="-27 0 512 512" width="512px" class=""><g><path d="m313.910156 182.410156c-5.808594-9.921875-20.183594-9.921875-25.992187 0l-35.433594 60.519532-58.523437-99.949219c-5.808594-9.921875-20.183594-9.921875-25.992188 0l-71.515625 122.144531c-5.867187 10.015625 1.367187 22.667969 12.992187 22.667969h239.902344c11.613282 0 18.867188-12.640625 12.992188-22.667969zm-178.195312 75.261719 45.25-77.28125 45.25 77.28125zm143.035156 0 22.164062-37.851563 22.164063 37.851563zm0 0" data-original="#000000" class="active-path" data-old_color="#000000" fill="#FFFFFF"/><path d="m256.546875 154.9375c26.015625 0 47.183594-21.164062 47.183594-47.183594 0-26.019531-21.167969-47.183594-47.183594-47.183594-26.019531 0-47.1875 21.164063-47.1875 47.183594 0 26.019532 21.167969 47.183594 47.1875 47.183594zm0-64.25c9.410156 0 17.066406 7.65625 17.066406 17.066406s-7.65625 17.066406-17.066406 17.066406c-9.414063 0-17.070313-7.65625-17.070313-17.066406s7.65625-17.066406 17.070313-17.066406zm0 0" data-original="#000000" class="active-path" data-old_color="#000000" fill="#FFFFFF"/><path d="m443.734375 324.265625h-33.632813v-309.207031c0-8.316406-6.742187-15.058594-15.058593-15.058594h-331.292969c-8.316406 0-15.058594 6.742188-15.058594 15.058594v309.207031h-33.632812c-8.316406 0-15.058594 6.742187-15.058594 15.058594v157.617187c0 8.316406 6.742188 15.058594 15.058594 15.058594h428.675781c8.316406 0 15.058594-6.742188 15.058594-15.058594v-157.617187c0-8.316407-6.742188-15.058594-15.058594-15.058594zm-364.925781-294.148437h301.175781v294.148437h-301.175781zm349.867187 451.765624h-398.558593v-127.5h398.558593zm0 0" data-original="#000000" class="active-path" data-old_color="#000000" fill="#FFFFFF"/><path d="m140.410156 363.921875h-54.421875c-8.316406 0-15.058593 6.742187-15.058593 15.058594 0 8.316406 6.742187 15.058593 15.058593 15.058593h12.152344v63.246094c0 8.316406 6.742187 15.058594 15.058594 15.058594 8.316406 0 15.058593-6.742188 15.058593-15.058594v-63.246094h12.152344c8.316406 0 15.058594-6.742187 15.058594-15.058593 0-8.316407-6.742188-15.058594-15.058594-15.058594zm0 0" data-original="#000000" class="active-path" data-old_color="#000000" fill="#FFFFFF"/><path d="m182.757812 363.921875c-8.316406 0-15.058593 6.742187-15.058593 15.058594v78.304687c0 8.316406 6.742187 15.058594 15.058593 15.058594 8.316407 0 15.058594-6.742188 15.058594-15.058594v-78.304687c0-8.316407-6.742187-15.058594-15.058594-15.058594zm0 0" data-original="#000000" class="active-path" data-old_color="#000000" fill="#FFFFFF"/><path d="m274.265625 394.039062c8.316406 0 15.058594-6.742187 15.058594-15.058593 0-8.316407-6.742188-15.058594-15.058594-15.058594h-49.160156c-8.316407 0-15.058594 6.742187-15.058594 15.058594v78.304687c0 8.316406 6.742187 15.058594 15.058594 15.058594 8.316406 0 15.058593-6.742188 15.058593-15.058594v-22.335937h34.101563c8.316406 0 15.058594-6.742188 15.058594-15.058594s-6.742188-15.058594-15.058594-15.058594h-34.101563v-10.792969zm0 0" data-original="#000000" class="active-path" data-old_color="#000000" fill="#FFFFFF"/><path d="m365.777344 394.039062c8.316406 0 15.058594-6.742187 15.058594-15.058593 0-8.316407-6.742188-15.058594-15.058594-15.058594h-49.164063c-8.316406 0-15.058593 6.742187-15.058593 15.058594v78.304687c0 8.316406 6.742187 15.058594 15.058593 15.058594 8.316407 0 15.058594-6.742188 15.058594-15.058594v-22.335937h34.105469c8.316406 0 15.058594-6.742188 15.058594-15.058594s-6.742188-15.058594-15.058594-15.058594h-34.105469v-10.792969zm0 0" data-original="#000000" class="active-path" data-old_color="#000000" fill="#FFFFFF"/></g> </svg>
