<?xml version="1.0"?>
<svg xmlns="http://www.w3.org/2000/svg" height="512px" viewBox="-11 1 511 511.999" width="512px" class=""><g><path d="m245.433594 308.179688c-.648438 0-1.308594-.070313-1.949219-.199219-.640625-.128907-1.269531-.320313-1.871094-.570313-.609375-.25-1.1875-.558594-1.726562-.917968-.550781-.359376-1.0625-.78125-1.523438-1.242188-.457031-.460938-.878906-.96875-1.238281-1.519531-.359375-.539063-.667969-1.121094-.917969-1.730469-.25-.601562-.441406-1.230469-.570312-1.867188-.132813-.640624-.199219-1.300781-.199219-1.953124 0-.648438.066406-1.308594.199219-1.957032.117187-.632812.320312-1.261718.570312-1.871094.25-.601562.546875-1.179687.917969-1.71875.359375-.550781.78125-1.0625 1.238281-1.523437.460938-.460937.972657-.878906 1.523438-1.25.539062-.359375 1.117187-.667969 1.726562-.917969.601563-.25 1.230469-.441406 1.871094-.570312 1.289063-.261719 2.609375-.261719 3.902344 0 .636719.128906 1.269531.320312 1.867187.570312.609375.25 1.191406.558594 1.730469.917969.550781.371094 1.058594.789063 1.519531 1.25.460938.460937.882813.972656 1.238282 1.523437.363281.539063.671874 1.117188.921874 1.71875.25.609376.449219 1.238282.570313 1.871094.128906.648438.199219 1.308594.199219 1.957032 0 2.632812-1.070313 5.210937-2.929688 7.070312-.460937.460938-.972656.882812-1.519531 1.242188-.542969.359374-1.121094.667968-1.730469.917968-.601562.25-1.230468.441406-1.871094.570313-.636718.128906-1.296874.199219-1.949218.199219zm0 0" data-original="#000000" class="active-path" data-old_color="#000000" fill="#FFFFFF"/><path d="m490.109375 499.734375-55.28125-237.519531c-1.054687-4.53125-5.089844-7.734375-9.738281-7.734375h-29.46875v-55.179688c39.460937-4.9375 70.09375-38.695312 70.09375-79.46875 0-21.261719-8.449219-41.5625-23.355469-56.527343.226563-2.066407.335937-4.144532.335937-6.230469 0-31.46875-25.601562-57.074219-57.074218-57.074219s-57.078125 25.605469-57.078125 57.074219c0 2.085937.113281 4.164062.339843 6.230469-5.296874 5.316406-9.777343 11.308593-13.355468 17.777343-3.574219-6.46875-8.054688-12.460937-13.351563-17.777343.222657-2.066407.335938-4.148438.335938-6.230469 0-31.46875-25.605469-57.074219-57.078125-57.074219s-57.074219 25.605469-57.074219 57.074219c0 2.085937.113281 4.164062.335937 6.230469-5.296874 5.316406-9.777343 11.308593-13.351562 17.777343-3.578125-6.46875-8.058594-12.460937-13.355469-17.777343.226563-2.066407.335938-4.144532.335938-6.230469.003906-31.46875-25.601563-57.074219-57.074219-57.074219s-57.078125 25.605469-57.078125 57.074219c0 2.082031.113281 4.164062.339844 6.230469-14.90625 14.964843-23.355469 35.261718-23.355469 56.527343 0 40.773438 30.632812 74.53125 70.09375 79.46875v55.179688h-29.46875c-4.648438 0-8.683594 3.203125-9.738281 7.734375l-55.28125 237.519531c-.6953128 2.96875.007812 6.09375 1.90625 8.484375 1.894531 2.386719 4.78125 3.78125 7.832031 3.78125h469.871094c3.050781 0 5.9375-1.394531 7.832031-3.78125 1.898437-2.390625 2.601563-5.515625 1.90625-8.484375zm-143.953125-425.21875c2.742188-2.390625 3.972656-6.078125 3.207031-9.632813-.542969-2.546874-.820312-5.171874-.820312-7.808593 0-20.441407 16.632812-37.074219 37.078125-37.074219 20.445312 0 37.074218 16.632812 37.074218 37.074219 0 2.636719-.273437 5.261719-.820312 7.8125-.757812 3.550781.46875 7.238281 3.210938 9.628906 13.109374 11.425781 20.628906 27.941406 20.628906 45.316406 0 29.726563-21.703125 54.480469-50.09375 59.257813v-29.882813c.582031-.378906 1.132812-.820312 1.644531-1.332031l25.195313-25.191406c3.902343-3.90625 3.902343-10.238282 0-14.144532-3.90625-3.902343-10.238282-3.902343-14.144532 0l-12.695312 12.695313v-73.453125c0-5.523438-4.480469-10-10-10-5.523438 0-10 4.476562-10 10v73.453125l-12.695313-12.695313c-3.90625-3.902343-10.234375-3.902343-14.144531 0-3.902344 3.90625-3.902344 10.238282 0 14.144532l25.195312 25.191406c.507813.511719 1.0625.953125 1.644532 1.328125v29.886719c-28.394532-4.773438-50.09375-29.53125-50.09375-59.257813 0-17.375 7.519531-33.890625 20.628906-45.316406zm29.464844 124.785156v55.179688h-120.1875v-55.179688c25.878906-3.238281 47.960937-18.867187 60.09375-40.746093 12.136718 21.878906 34.214844 37.507812 60.09375 40.746093zm-169.648438-124.785156c2.738282-2.390625 3.96875-6.078125 3.207032-9.632813-.546876-2.546874-.820313-5.171874-.820313-7.808593 0-20.441407 16.632813-37.074219 37.074219-37.074219 20.445312 0 37.078125 16.632812 37.078125 37.074219 0 2.632812-.277344 5.261719-.820313 7.8125-.761718 3.554687.46875 7.238281 3.207032 9.628906 13.109374 11.425781 20.628906 27.941406 20.628906 45.316406 0 29.726563-21.699219 54.480469-50.09375 59.257813v-29.886719c.582031-.375 1.136718-.816406 1.648437-1.328125l25.191407-25.191406c3.90625-3.90625 3.90625-10.238282 0-14.144532-3.90625-3.902343-10.234376-3.902343-14.144532 0l-12.695312 12.695313v-73.453125c0-5.523438-4.476563-10-10-10-5.519532 0-10 4.476562-10 10v73.453125l-12.695313-12.695313c-3.902343-3.902343-10.234375-3.902343-14.140625 0-3.90625 3.90625-3.90625 10.238282 0 14.144532l25.191406 25.191406c.511719.511719 1.0625.953125 1.644532 1.328125v29.886719c-28.390625-4.773438-50.089844-29.53125-50.089844-59.257813 0-17.375 7.515625-33.890625 20.628906-45.316406zm29.460938 124.785156v55.179688h-120.183594v-55.179688c25.875-3.238281 47.957031-18.867187 60.09375-40.746093 12.132812 21.878906 34.214844 37.507812 60.089844 40.746093zm-190.277344-79.46875c0-17.375 7.519531-33.894531 20.628906-45.316406 2.742188-2.390625 3.96875-6.074219 3.210938-9.628906-.546875-2.550781-.824219-5.179688-.824219-7.8125 0-20.441407 16.632813-37.074219 37.078125-37.074219 20.441406 0 37.074219 16.632812 37.074219 37.074219 0 2.636719-.273438 5.261719-.820313 7.808593-.761718 3.554688.46875 7.242188 3.210938 9.632813 13.109375 11.425781 20.628906 27.941406 20.628906 45.316406 0 29.726563-21.703125 54.480469-50.09375 59.257813v-29.886719c.582031-.375 1.132812-.816406 1.644531-1.328125l25.191407-25.191406c3.90625-3.90625 3.90625-10.238282 0-14.144532-3.90625-3.902343-10.234376-3.902343-14.140626 0l-12.695312 12.695313v-73.453125c0-5.523438-4.480469-10-10-10-5.523438 0-10 4.476562-10 10v73.453125l-12.695312-12.695313c-3.90625-3.902343-10.238282-3.902343-14.144532 0-3.902344 3.90625-3.902344 10.238282 0 14.144532l25.195313 25.191406c.507812.511719 1.0625.953125 1.644531 1.328125v29.886719c-28.394531-4.773438-50.09375-29.53125-50.09375-59.257813zm20.691406 372.167969 21.460938-103.027344c1.125-5.40625-2.34375-10.703125-7.75-11.828125-5.40625-1.128906-10.703125 2.34375-11.828125 7.75l-22.3125 107.105469h-22.324219l50.628906-217.519531h54.09375l-33.753906 217.519531zm118.535156 0h-70.082031l33.753907-217.519531h11.847656l-6.511719 69.058593c-.515625 5.5 3.519531 10.378907 9.019531 10.898438.320313.027344.636719.042969.949219.042969 5.101563 0 9.457031-3.882813 9.945313-9.0625l6.6875-70.9375h13.554687zm71.050782 0v-153.914062c0-5.523438-4.476563-10-10-10-5.519532 0-10 4.476562-10 10v153.914062h-31.035156l9.164062-217.519531h63.742188l9.164062 217.519531zm51.054687 0-9.164062-217.519531h13.550781l6.691406 70.9375c.488282 5.179687 4.84375 9.0625 9.941406 9.0625.316407 0 .632813-.015625.953126-.042969 5.496093-.519531 9.535156-5.398438 9.015624-10.898438l-6.511718-69.058593h11.847656l33.753906 217.519531zm136.148438 0-22.308594-107.105469c-1.128906-5.40625-6.417969-8.875-11.828125-7.75s-8.878906 6.421875-7.753906 11.828125l21.460937 103.027344h-25.398437l-33.753906-217.519531h54.09375l50.628906 217.519531zm0 0" data-original="#000000" class="active-path" data-old_color="#000000" fill="#FFFFFF"/></g> </svg>
