<svg version="1" xmlns="http://www.w3.org/2000/svg" width="1250.667" height="1250.667" viewBox="0 0 938.000000 938.000000"><path d="M434.9.4c-.2.2-3.8.6-8 1-20.2 1.6-38.7 5-65.4 11.9-.5.1-1.6.6-2.2 1-.7.5-1.3.6-1.3.3 0-1.4-32.3 10.8-48.3 18.3-4.9 2.2-9.2 4.1-9.8 4.1-.5 0-.9.4-.9.9s-.9 1.3-2.1 1.6c-1.1.4-5.7 2.8-10.2 5.4-4.5 2.6-9.3 5.4-10.7 6.2-1.4.8-2.7 1.6-3 1.9-1.4 1.4-10.2 7-11 7-.6 0-1 .4-1 .8s-1.2 1.5-2.7 2.4c-1.6.9-3.9 2.6-5.3 3.7s-3 2.4-3.5 2.8c-14.7 11.3-39.3 34.7-48.1 45.8-2.1 2.7-4.4 5.4-5 6-.5.5-2.3 2.8-3.9 5s-3.2 4.2-3.5 4.5c-.9.7-15.5 22.9-18.1 27.5-6.6 11.9-11.9 22.5-11.2 22.5.4 0 .3.4-.3.8-1.7 1.1-11.1 25.2-14.8 38.2-4.5 15.3-7.9 31.1-9.1 42.5-.3 2.2-.7 5.1-1.1 6.5-.3 1.4-.8 12.2-1.1 24.1l-.6 21.5h14.6c8-.1 14.8-.3 15-.6.2-.3.7-9.1 1-19.5.4-10.5.8-20.4 1.1-22 .2-1.7.7-5 1-7.5.3-2.5 1.3-8.3 2.2-13 .9-4.7 1.8-9.2 1.9-10 .1-.8.5-2.2.8-3 .3-.8 1.5-4.9 2.6-9 6.3-23 18.9-50 33.7-71.6 3.3-5 6.8-9.9 7.7-11 .8-1 4.3-5.4 7.7-9.6 5.8-7.3 25.1-27.5 31.5-32.8 9.9-8.3 18.5-15 19.2-15 .5 0 1.5-.9 2.3-2 .8-1.1 1.8-2 2.2-2 .4 0 3.5-2 7-4.4 9.3-6.4 22.2-13.8 33.9-19.4 18.4-8.8 21.6-10.2 23-10.2.8 0 1.9-.4 2.4-.9 1.5-1.4 24.3-8.7 35.7-11.5 9.9-2.4 12.6-3 18.6-4.1 1.5-.3 3.6-.7 4.8-1 4-.9 13-2 16.7-2 2 0 3.7-.2 3.7-.5s2.4-.7 5.3-.8c2.8-.2 7.2-.5 9.7-.7 6.3-.5 34.5-.5 40.5 0 15.4 1.2 32.8 3.4 39.5 5 .3.1 2.5.5 5 .9 13.1 2.3 36.5 9.5 54.4 16.6 9.3 3.7 32.6 15.1 36.6 18 1.5 1.1 3.1 2 3.5 2 .9 0 20.4 12.7 22.1 14.5.8.8 2.3 1.7 3.4 2 1.1.3 2 1 2 1.5s1.5 1.8 3.3 2.9c1.7 1.1 4.3 3 5.7 4.3 1.4 1.3 4.3 3.8 6.5 5.7 21.3 18 44.5 46.1 58.9 71.1 7.8 13.7 20.2 42.3 22.2 51.5.1.5 1.4 5.3 2.8 10.5s2.8 10.8 3.1 12.5c.2 1.6.7 3.9.9 5 .3 1.9 1.3 7.9 2.1 13.5.6 3.9 1.7 21.7 1.9 29.7.2 6.7-.1 7.6-2.4 7.5-1.4 0-15-1.4-18.7-1.8-2.4-.3-4.3-.2-4.3.3 0 .7 18.5 48 21.5 54.8.7 1.6 2.1 5 3 7.5 1 2.5 2.3 5.8 3 7.5.7 1.6 1.6 4 2 5.3.5 1.9.9 2.1 2.1 1.1.8-.6 1.4-1.8 1.4-2.5 0-.8.5-1.4 1-1.4.6 0 1.4-.8 1.7-1.8.6-1.4 4-6.4 8.1-11.7.4-.6 1.9-2.8 3.2-5 1.3-2.2 2.7-4.2 3-4.5.3-.3 4.1-5.7 8.5-12 4.3-6.3 10.7-15.7 14.2-20.8 5.1-7.3 6-9.2 4.6-9.3-1 0-2.7-.2-3.8-.4-1.1-.1-5.4-.6-9.5-.9-4.1-.4-7.6-.9-7.9-1.1-.2-.3-.5-6.5-.7-13.7-.1-11.8-.6-18.7-1.9-30.8-.6-5.8-3.4-20.3-5.6-29.7-2.5-10.8-2.5-10.5-3.2-12.3-.3-.8-1.2-3.8-2-6.5-2.3-8-8.6-24.2-13.4-34.4-20.9-44.9-55.2-86-96.2-115.8-4.7-3.4-9-6.6-9.6-7-1.4-1.2-17.8-11.3-24-14.8-13.1-7.5-48.9-23.6-55.2-24.8-1-.2-2.5-.7-3.3-1-3.2-1.3-10.7-3.5-14-4.2-1.9-.4-4.1-1.2-4.7-1.7-.7-.6-1.3-.8-1.3-.5 0 .3-2.4-.1-5.2-.9-2.9-.8-6.2-1.7-7.3-1.9-4.7-.9-8.3-1.6-12.5-2.5-2.5-.5-6.3-1.2-8.5-1.5-2.3-.3-5.1-.7-6.2-.9-1.2-.3-4.8-.8-8-1.1-3.2-.4-7.6-.9-9.8-1.2-4.7-.5-55.1-1.4-55.6-.9z"/><path d="M624.8 124.9c-4.3 2.1-8 3.6-8.3 3.3-.3-.3-.5 0-.5.6 0 .7-.5 1.2-1 1.2-.6 0-6.3 2.6-12.8 5.7-6.4 3.1-11.9 5.8-12.2 5.8-.3.1-5.4 2.5-11.5 5.4-11.4 5.6-30 14.4-39.5 18.8-3 1.5-5.9 2.6-6.5 2.6-.5 0-3.9-1.3-7.5-3-6.9-3.2-22.6-8.8-27.6-9.8-6.9-1.4-19.2-3.6-22.9-4-7.7-.9-34.7-.3-40 .8-2.2.5-10.1 1.9-12.5 2.2-.8.1-2.2.5-3 .8-.8.3-5.4 1.7-10.2 3.1-4.8 1.5-10.9 3.6-13.5 4.8-2.7 1.2-5 2.2-5.3 2.3-2.1.5-15.8 8.2-21.4 11.9-3.8 2.5-7 4.6-7.2 4.6-.2 0-1.2.8-2.2 1.7-1.1 1-3.9 3.4-6.3 5.3-28.3 22.6-50.4 60.7-56.4 97.2-.3 1.6-.8 4.3-1.1 6-1 5.5-1.2 34.9-.3 41.3 1.7 11.8 2.1 14.1 3.6 20 4.9 19.5 14.3 39.8 26.2 56.4l8.2 11.4-32.9 32.8c-18 18.1-33.6 33.7-34.6 34.8-1.8 1.9-1.6 2.2 7.1 10.9l8.9 8.9 11.4-5.5c6.3-3 15.3-7.2 20-9.4 4.7-2.2 12.6-6 17.5-8.5 5-2.5 9.2-4.5 9.5-4.6.3 0 8.2-3.7 17.5-8.2 9.4-4.4 19-9 21.5-10.2l4.5-2.1 5.6 2.8c7.6 3.9 20.7 8.6 29.2 10.5 1 .2 2.6.6 3.5.9.9.3 3.7.8 6.2 1.1 2.4.4 4.7.8 5 1 1 .6 18.7 1.8 26.5 1.7 9 0 19-1 28-2.7 1.1-.2 3.7-.6 5.8-.9 2.1-.3 4.7-1.1 5.8-1.6 1-.6 1.9-.8 1.9-.6 0 1 19.4-6.4 28.5-10.8 8.8-4.3 24.4-14 30.1-18.8 5.6-4.6 12.9-11.4 16.1-14.8 1.7-1.9 4.8-5.3 6.9-7.5 2-2.2 5-6 6.7-8.5 1.7-2.5 3.4-4.7 3.7-5 .9-.7 8-12.9 8-13.7 0-.4.6-1.4 1.4-2.2 2.3-2.7 11.9-26.2 13.1-32.1.2-.8.8-3.5 1.5-6s1.4-5.6 1.7-7c.2-1.4.6-3.6.9-5 2.3-12.5 2.3-39.6-.1-52.5-3.3-17.7-7.2-29.9-14.1-44-6.7-13.7-9.3-18.5-11.6-20.9-1-1.1-1.8-2.3-1.8-2.7 0-.4-.6-1.4-1.2-2.1-3.7-3.9-7.9-10-7.6-10.9.2-.6 15.8-16.4 34.6-35.3l34.2-34.2-8.5-8.4c-4.7-4.7-9.1-8.6-9.7-8.7-.7-.2-4.8 1.5-9 3.6zM477 179.3c1.4.2 4.3.8 6.5 1.1 9.4 1.7 31 9 34.9 11.9 1.6 1.1 0 5.2-17.7 44.7l-19.3 43.4 6.7 6.8c3.8 3.7 7.1 6.8 7.5 6.8.4 0 15.5-14.7 33.6-32.8 18-18 33.2-32.7 33.7-32.7 1.7 0 12.3 15.3 15.3 22 .7 1.6 1.5 3.2 1.8 3.5 2.2 1.9 9.1 22.2 11.5 33.7 3.3 16 3.3 38.1 0 53.3-.3 1.4-.7 3.5-.9 4.7-2.1 11.1-11.8 33.1-19.5 44.3-4.4 6.5-5.3 7.6-9.1 11.7-1.1 1.3-2 2.5-2 2.8 0 .3-6.2 6.4-14.4 14.1-3.3 3.1-16.1 11.8-22.2 15-3.8 2-7.3 4-7.9 4.4-2.4 1.9-25.8 9.1-34.5 10.6-13.1 2.3-36.6 2.2-48-.1-11.1-2.3-22.9-6.1-31.9-10.3l-6-2.8 13-28.4c7.1-15.7 13.8-30.3 14.8-32.5 3.8-7.8 11.1-24.8 11.1-25.6 0-.5-3.1-4-7-7.7l-6.9-6.9-33.5 33.4-33.4 33.4-2-2.1c-1.7-1.8-4.9-6.5-11.1-16-2.7-4.1-8.7-17.1-11-23.5-2.3-6.8-5.8-21.1-6.5-26.7-.2-2.1-.7-4.2-1-4.7-.4-.5-.2-1.2.4-1.6.6-.4.7-1.3.1-2.3-1.1-2.2-.5-21.5.9-30.6 1.1-7.2 5.3-23.4 7-27.1 7.3-16.4 14-28.3 20.7-36.5 5.2-6.5 15.5-16.8 21.3-21.3 3.6-2.8 6.7-5.4 7-5.8.9-1.1 12.4-7.7 19-11 12.9-6.3 29.3-11.2 42-12.6 2.5-.3 4.7-.7 4.9-.8.5-.5 29.1.2 32.1.8z"/><path d="M448.6 283.7c-12.1 3.6-20.2 14-21.3 27.2-1 12.2 6 24.2 17.3 29.7 4.4 2.2 6.9 2.7 13.2 2.7 10.9.1 17-3.2 26.1-13.9 2.3-2.7 4.8-12.4 4.5-17.3-.3-4.2-.9-8.2-1.4-8.9-.2-.1-.3-.5-.4-1-.7-3.1-4.6-8.9-8-11.8-8.3-7.3-19.7-9.8-30-6.7zM199.9 465.3c-1.9 1.3-5.9 3.6-8.9 5.3-3 1.6-6 3.4-6.7 4.1-.7.6-2.6 1.7-4.3 2.4-2.3 1.1-2.8 1.8-2.4 3.4.4 1.1 1.1 2.1 1.5 2.3.5.2.9.8.9 1.3 0 1.1 9.3 16.3 10.3 16.7.4.2.7.8.7 1.2 0 .5 2.7 5.3 6 10.7 3.3 5.4 6.4 10.5 6.9 11.3.5.8 3.2 5.2 6 9.7 2.8 4.5 5.1 8.4 5.1 8.8 0 .3.5 1.1 1.1 1.8 1 1.2 13.5 21.4 26.2 42.5 3.4 5.6 7 11.5 7.9 13 1 1.5 2.1 3.4 2.5 4.2.3.8.9 1.7 1.2 2 .3.3 3.7 5.7 7.5 12s8.1 13.3 9.5 15.5c1.4 2.2 2.6 4.2 2.6 4.5 0 .3 1.4 2.5 3 5s3.5 5.4 4.1 6.5c1.8 3.3 29.5 48.7 32 52.5 3.9 6.1 18.4 30.2 18.4 30.6 0 .3.5 1 1.1 1.7.5.7 5.9 9.3 11.9 19.2 6 9.9 11.8 19.3 12.9 21 3.7 5.8 10.1 16.5 10.1 17.1 0 .3 1 2 2.3 3.7 1.2 1.8 2.7 4.1 3.4 5.2.6 1.1 6.2 10.3 12.5 20.4 6.2 10.1 12 19.6 12.8 21 3.6 6.2 28.6 47.1 31.6 51.8 1.9 2.8 3.4 5.6 3.4 6.2 0 .6.5 1.1 1 1.1.6 0 1 .4 1 .9 0 1.3 20.5 34.4 21.6 34.8.5.1 5.3-7.1 10.7-16 5.4-8.9 10.3-16.9 10.8-17.7 1.8-3 8.9-14.7 13.9-23 2.8-4.7 7.6-12.5 10.6-17.3 2.9-4.8 5.4-9.2 5.4-9.8 0-.5.3-.9.8-.9.4 0 1.2-1 1.8-2.3.6-1.2 7.3-12.3 14.9-24.7 15.1-24.6 25.3-41.4 32.3-53 2.5-4.1 4.9-7.8 5.5-8.1.5-.3.9-1 .9-1.5.1-.5.6-1.8 1.3-2.9 24.5-39.9 42.3-69.1 44.7-73.4 1.1-2 2.5-4.2 3.1-5 1.6-1.9 3.6-5.3 4.3-7.4.3-.9 1-1.7 1.5-1.7s.9-.4.9-1c0-.9 25.1-42.5 29.1-48.2 1-1.5 1.9-2.9 1.9-3.2 0-.4 16.3-27.2 17.7-29.2.4-.5 1.4-2.1 2.2-3.5 2-3.3 28.7-47.3 32.2-52.9 1.6-2.5 3.7-6.1 4.9-8 1.1-1.9 6.4-10.7 11.8-19.5s10.5-17.1 11.3-18.5c.8-1.4 1.6-2.7 1.9-3 .3-.3 1.1-1.6 1.8-2.8 1.2-2.1 1.1-2.7-.4-4.3-.9-1-2-1.9-2.4-1.9-.4 0-5.8-2.9-12-6.5-8.8-5.2-11.5-6.3-12.6-5.4-.8.6-1.4 1.5-1.4 1.9 0 .5-2.3 4.4-5 8.7-2.8 4.3-5.3 8.5-5.7 9.3-.4.8-5 8.4-10.3 17-5.2 8.5-10.8 17.7-12.4 20.5-1.6 2.7-3.2 5.2-3.6 5.5-.3.3-.9 1.2-1.3 2-.7 1.6-1.9 3.6-10.4 17.4-2.9 4.7-5.3 8.9-5.3 9.5 0 .5-.4 1.1-.8 1.3-.5.1-3.2 4.3-6.2 9.3-2.9 4.9-6.3 10.3-7.4 12-1.2 1.6-2.1 3.2-2.1 3.5 0 .3-.8 1.6-1.7 3-.8 1.4-5.2 8.3-9.5 15.5-45.2 73.8-59.7 97.7-60.2 98.9-.2.6-.7 1.3-1.2 1.6-.4.3-1.8 2.4-3.1 4.7-1.2 2.3-4.6 7.9-7.4 12.5-2.8 4.6-8.6 14.1-13 21.3-4.3 7.1-8.3 13.3-8.9 13.7-.5.4-.6.8-.1.8s.2.8-.7 1.8c-.8.9-2.2 2.8-2.9 4.2-.7 1.4-3.7 6.3-6.6 11-2.9 4.7-5.7 9.2-6.2 10-.5.8-3.8 6.2-7.3 12s-9.5 15.7-13.4 22c-3.8 6.3-8.8 14.3-10.9 17.8-2.1 3.4-4.5 7.5-5.3 9-.8 1.5-1.7 2.9-2.1 3.2-.3.3-1 1.2-1.4 2-.4.8-1.2 2.4-1.9 3.5s-3.6 6-6.6 11c-3 4.9-5.8 9.2-6.1 9.5-.4.3-1.1 1.3-1.7 2.4-.9 1.6-1.4 1.1-4.1-3.7-1.7-3.1-4.8-8.1-6.7-11.1-1.9-3.1-3.4-5.7-3.3-5.9.2-.1-.3-.9-1-1.7-1.3-1.5-22.8-36-25.5-41-2.6-4.8-4.2-7.5-4.8-8-.5-.4-9.5-15.3-14.1-23.3-.9-1.6-2.4-3.7-3.4-4.8-.9-1-1.3-1.9-.9-1.9s.1-.8-.7-1.8c-1.2-1.4-17.4-27.6-21.3-34.4-.5-1-4.8-8-9.5-15.5-10.3-16.7-10.7-17.4-11.7-19.3-.4-.8-1.3-2.1-2-2.8-.7-.7-1.3-2-1.3-2.8 0-.8-.3-1.4-.8-1.4-.4 0-1.8-2.1-3.2-4.8-1.3-2.6-2.7-4.9-3-5.2-.5-.4-4.2-6.5-11.5-18.6-1.1-1.8-5.9-9.7-10.8-17.6-4.8-7.9-9.5-15.6-10.5-17.3-.9-1.6-2.1-3.4-2.5-4-.5-.5-1.8-2.7-3-4.7-2-3.5-16.6-27.4-18.7-30.8-6.6-10.4-24-39.4-24-40.1 0-.5-.4-.9-.8-.9s-1.8-1.9-3-4.3C253.3 542 238.8 518 236 514c-.6-.8-5.8-9.4-11.6-19-15.6-25.7-19.6-32-20.5-32-.3 0-2.2 1-4 2.3z"/></svg>