<?xml version="1.0" encoding="utf-8"?>
<!-- Generator: Adobe Illustrator 16.0.0, SVG Export Plug-In . SVG Version: 6.00 Build 0)  -->
<!DOCTYPE svg PUBLIC "-//W3C//DTD SVG 1.1//EN" "http://www.w3.org/Graphics/SVG/1.1/DTD/svg11.dtd">
<svg version="1.1" xmlns="http://www.w3.org/2000/svg" xmlns:xlink="http://www.w3.org/1999/xlink" x="0px" y="0px"
	 width="561.056px" height="390.039px" viewBox="0 0 561.056 390.039" enable-background="new 0 0 561.056 390.039"
	 xml:space="preserve">
<g id="circles">
</g>
<g id="icons">
	<g>
		<path fill="#4FC6E0" d="M442.534,78.809c0.008-0.06,0.039-0.116,0.039-0.191c0.201-19.271-15.064-31.632-32.029-31.632
			l-0.008,0.006c0,0,1.225-0.865,1.225-0.006H287.216c-0.885,0-1.619,0.659-1.73,1.539c-0.07,0.578-1.539,15.261,6.559,24.351
			c4.414,4.979,10.789,7.513,18.936,7.563c-0.152,4.164,0.23,14.386,6.666,21.622c4.445,4.987,10.852,7.531,19.047,7.551h7.109
			c-0.15,4.179,0.24,14.386,6.678,21.621c4.434,4.988,10.83,7.532,19.035,7.557h71.258c0.965,0,1.742-0.778,1.742-1.734
			c0-0.03-1.27-0.05-1.27-0.069c0,0,1.277-0.011,1.289-0.011V78.809z"/>
		<g>
			<path fill="#FFFFFF" d="M87.159,184.815c-11.754,0-22.395,5.928-28.59,15.693v-13.044c0-1.463-1.197-2.649-2.654-2.649
				c-1.467,0-2.656,1.187-2.656,2.649V339.87c0,1.465,1.189,2.66,2.656,2.66c1.457,0,2.654-1.195,2.654-2.66v-69.688
				c6.195,9.77,16.836,15.693,28.59,15.693c18.686,0,33.891-15.205,33.891-33.889v-33.281
				C121.05,200.016,105.845,184.815,87.159,184.815z M87.159,280.57c-15.768,0-28.59-12.816-28.59-28.584v-33.281
				c0-15.764,12.822-28.586,28.59-28.586c15.758,0,28.58,12.822,28.58,28.586v33.281C115.739,267.754,102.917,280.57,87.159,280.57z
				"/>
			<path fill="#FFFFFF" d="M144.831,130.104c-1.459,0-2.645,1.187-2.645,2.651v150.469c0,1.464,1.186,2.65,2.645,2.65
				c1.469,0,2.656-1.187,2.656-2.65V132.756C147.487,131.291,146.3,130.104,144.831,130.104z"/>
			<path fill="#FFFFFF" d="M233.759,184.815c-1.459,0-2.656,1.187-2.656,2.649v13.044c-6.195-9.766-16.834-15.693-28.59-15.693
				c-18.684,0-33.889,15.2-33.889,33.89v33.281c0,18.684,15.205,33.889,33.889,33.889c11.756,0,22.395-5.924,28.59-15.693v13.043
				c0,1.464,1.197,2.65,2.656,2.65c1.467,0,2.652-1.187,2.652-2.65v-95.76C236.411,186.002,235.226,184.815,233.759,184.815z
				 M202.513,280.57c-15.758,0-28.59-12.816-28.59-28.584v-33.281c0-15.764,12.832-28.586,28.59-28.586s28.59,12.822,28.59,28.586
				v33.281C231.103,267.754,218.271,280.57,202.513,280.57z"/>
			<path fill="#FFFFFF" d="M296.056,184.815c-11.746,0-22.385,5.928-28.59,15.693v-13.044c0-1.463-1.178-2.649-2.645-2.649
				c-1.469,0-2.654,1.187-2.654,2.649v95.76c0,1.464,1.186,2.65,2.654,2.65c1.467,0,2.645-1.187,2.645-2.65v-64.52
				c0-15.764,12.832-28.586,28.59-28.586c15.768,0,28.59,12.822,28.59,28.586v64.52c0,1.464,1.188,2.65,2.654,2.65
				c1.469,0,2.654-1.187,2.654-2.65v-64.52C329.954,200.016,314.749,184.815,296.056,184.815z"/>
			<path fill="#FFFFFF" d="M411.61,184.815c-1.469,0-2.666,1.187-2.666,2.649v13.044c-6.193-9.766-16.832-15.693-28.578-15.693
				c-18.693,0-33.898,15.2-33.898,33.89v33.281c0,18.684,15.205,33.889,33.898,33.889c11.746,0,22.385-5.924,28.578-15.693v13.043
				c0,1.464,1.197,2.65,2.666,2.65c1.459,0,2.635-1.187,2.635-2.65v-95.76C414.245,186.002,413.069,184.815,411.61,184.815z
				 M380.366,280.57c-15.77,0-28.59-12.816-28.59-28.584v-33.281c0-15.764,12.82-28.586,28.59-28.586
				c15.746,0,28.578,12.822,28.578,28.586v33.281C408.944,267.754,396.112,280.57,380.366,280.57z"/>
			<path fill="#FFFFFF" d="M473.907,184.815c-11.756,0-22.395,5.928-28.588,15.693l0.039-125.114
				c0-17.462-14.16-31.672-31.615-31.758H290.272c-1.377,0-2.545,1.037-2.684,2.399c-0.072,0.603-1.6,14.842,6.787,24.275
				c4.424,4.967,10.699,7.607,18.664,7.853c-0.039,4.707,0.734,14.332,6.949,21.311c4.627,5.214,11.273,7.863,19.76,7.894h6.115
				c-0.043,4.707,0.734,14.314,6.938,21.278c4.635,5.21,11.283,7.859,19.77,7.895h67.447v146.684c0,1.464,1.176,2.65,2.645,2.65
				c1.459,0,2.656-1.187,2.656-2.65v-64.52c0-15.764,12.82-28.586,28.588-28.586c15.76,0,28.58,12.822,28.58,28.586v64.52
				c0,1.464,1.197,2.65,2.656,2.65c1.467,0,2.652-1.187,2.652-2.65v-64.52C507.796,200.016,492.591,184.815,473.907,184.815z
				 M351.294,107.368h42.729c1.488,0,2.705-1.217,2.705-2.714c0-1.489-1.217-2.711-2.705-2.711h-54.264
				c-6.869-0.021-12.158-2.057-15.717-6.054c-4.949-5.552-5.592-13.651-5.58-17.694h58.225c1.488,0,2.705-1.217,2.705-2.715
				c0-1.499-1.217-2.711-2.705-2.711h-62.541c-6.857-0.024-12.146-2.057-15.707-6.053c-4.947-5.541-5.602-13.616-5.57-17.664
				h120.732c14.521,0,26.338,11.821,26.338,26.342c0,0.227,0.031,0.397,0.08,0.377v55.345h-67.447
				c-6.857-0.021-12.146-2.057-15.705-6.054C351.917,119.507,351.274,111.411,351.294,107.368z"/>
		</g>
		<g>
			<path fill="#FFFFFF" d="M124.015,318.09h1.367l-3.82,21.685h-1.348L124.015,318.09z"/>
			<path fill="#FFFFFF" d="M139.741,327.934c1.35-2.442,3.471-3.861,6.105-3.861c4.637,0,4.928,3.444,4.285,7.015l-1.451,8.688
				h-1.346l1.449-8.652c0.543-3.032,0.41-5.888-3.119-5.888c-3.447,0-5.611,3.117-6.113,6.048l-1.518,8.492h-1.316l1.477-8.396
				c0.553-2.996,0.514-6.113-3.318-6.113c-3.5,0-5.533,3.247-6.045,6.175l-1.447,8.335h-1.316l2.705-15.41h1.025
				c0.031,0.81-0.031,1.705-0.293,2.957h0.133c1.768-2.73,4.061-3.213,5.701-3.213C138.325,324.108,139.642,325.908,139.741,327.934
				z"/>
			<path fill="#FFFFFF" d="M164.995,339.774h-1.025c-0.133-0.743,0.027-1.93,0.219-2.829h-0.15
				c-1.619,2.347-3.682,3.093-5.701,3.093c-3.771,0-5.148-2.254-5.148-5.341c0-5.672,2.824-10.589,7.973-10.589
				c2.295,0,3.965,0.764,4.738,2.635h0.129c0.162-1.026,0.354-1.871,0.674-2.379h0.986L164.995,339.774z M165.155,331.318
				c0.613-3.832-0.512-6.054-3.994-6.054c-3.789,0-6.625,3.671-6.625,9.332c0,2.544,1.125,4.243,4.184,4.243
				C162.479,338.84,164.644,335.239,165.155,331.318z"/>
			<path fill="#FFFFFF" d="M168.534,342.934c0-0.293,0.029-0.423,0.131-0.775h1.145v0.353c0,1.609,1.289,2.671,4.195,2.735
				c3.117,0,5.398-1.484,6.275-5.691c0.191-0.996,0.441-2.283,0.834-3.51h-0.131c-1.289,2.282-3.279,3.962-6.084,3.962
				c-3.379,0-5.018-2.097-5.018-5.445c0-4.982,2.412-10.489,7.953-10.489c1.951,0,3.881,0.71,4.695,3.062h0.123
				c0.291-1.643,0.451-2.321,0.773-2.805h1.066l-2.957,15.518c-0.885,4.404-3.098,6.556-7.693,6.556
				C171.198,346.402,168.534,345.347,168.534,342.934z M181.888,330.674c0.352-2.614-0.451-5.439-3.961-5.439
				c-4.125,0-6.668,4.022-6.668,9.07c0,2.766,1.166,4.57,3.963,4.57C178.921,338.875,181.364,334.4,181.888,330.674z"/>
			<path fill="#FFFFFF" d="M186.544,334.436c0-5.088,2.574-10.327,8.367-10.327c3.801,0,4.857,1.991,4.857,3.729
				c0,2.671-2.795,5.12-10.035,5.12c-0.482,0-1.129,0-1.711-0.061c-0.092,0.478-0.131,1.025-0.131,1.503
				c0,2.479,0.904,4.439,4.195,4.439c3.789,0,5.178-2.025,5.369-3.761h1.156c0,0.226-0.031,0.447-0.063,0.673
				c-0.42,2.832-3.447,4.286-6.596,4.286C187.409,340.038,186.544,337.101,186.544,334.436z M189.952,331.927
				c6.668,0,8.469-2.126,8.469-3.957c0-1.509-1.156-2.675-3.742-2.675c-4.051,0-6.014,3.569-6.496,6.536
				C188.897,331.927,189.38,331.927,189.952,331.927z"/>
			<path fill="#FFFFFF" d="M215.335,330.835l-1.539,8.939h-1.387l1.518-8.688c0.482-2.705,0.705-5.853-3.408-5.853
				c-3.51,0-5.863,3.248-6.396,6.4l-1.396,8.14h-1.32l2.717-15.41h1.025c0.061,0.81-0.07,1.705-0.332,2.957h0.131
				c1.9-2.671,4.344-3.249,5.992-3.249C215.638,324.072,215.929,327.486,215.335,330.835z"/>
			<path fill="#FFFFFF" d="M228.015,335.109c0-1.835-1.738-2.348-3.801-2.766c-2.473-0.513-4.918-0.904-4.918-3.509
				c0-2.475,1.934-4.727,6.246-4.727c2.354,0,4.635,0.936,4.635,3.213c0,0.327-0.039,0.769-0.131,1.131h-1.154
				c0.252-2.413-1.389-3.188-3.57-3.188c-3.127,0-4.678,1.674-4.678,3.469c0,1.811,2.033,2.063,4.285,2.515
				c2.344,0.451,4.402,1.191,4.375,3.73c0,2.676-2.051,5.06-6.627,5.06c-2.867,0-5.018-1.098-5.018-3.642
				c0-0.382,0.059-0.9,0.221-1.348h1.096c-0.414,3.088,1.518,3.862,3.891,3.862C226.759,338.911,228.015,336.719,228.015,335.109z"
				/>
			<path fill="#FFFFFF" d="M253.599,333.883h-10.248l-3.137,5.892h-1.488l11.746-21.721h1.447l4.254,21.721h-1.418L253.599,333.883z
				 M250.854,319.858c-1.027,2.028-2.053,3.958-3.119,5.92l-3.73,6.888h9.422l-1.348-6.818c-0.352-1.937-0.674-3.932-1.025-5.989
				H250.854z"/>
			<path fill="#FFFFFF" d="M259.159,334.436c0-5.088,2.564-10.327,8.357-10.327c3.811,0,4.867,1.991,4.867,3.729
				c0,2.671-2.807,5.12-10.037,5.12c-0.492,0-1.125,0-1.711-0.061c-0.1,0.478-0.129,1.025-0.129,1.503
				c0,2.479,0.906,4.439,4.182,4.439c3.793,0,5.182-2.025,5.373-3.761h1.156c0,0.226-0.021,0.447-0.061,0.673
				c-0.414,2.832-3.441,4.286-6.598,4.286C260.013,340.038,259.159,337.101,259.159,334.436z M262.569,331.927
				c6.646,0,8.465-2.126,8.465-3.957c0-1.509-1.164-2.675-3.74-2.675c-4.053,0-6.012,3.569-6.496,6.536
				C261.513,331.927,261.995,331.927,262.569,331.927z M266.36,321.594l4.123-4.444l1.125,1.102l-4.695,3.927L266.36,321.594z"/>
			<path fill="#FFFFFF" d="M274.536,339.774l2.705-15.41h0.994c0,0.931-0.09,1.996-0.352,3.152h0.131
				c1.125-2.182,3.529-3.444,5.982-3.479l-0.131,1.424c-4.604,0.256-6.055,2.921-6.596,6.108c-0.484,2.735-0.967,5.472-1.418,8.205
				H274.536z"/>
			<path fill="#FFFFFF" d="M283.866,334.436c0-5.088,2.576-10.327,8.357-10.327c3.813,0,4.867,1.991,4.867,3.729
				c0,2.671-2.805,5.12-10.037,5.12c-0.49,0-1.125,0-1.707-0.061c-0.102,0.478-0.133,1.025-0.133,1.503
				c0,2.479,0.906,4.439,4.186,4.439c3.789,0,5.178-2.025,5.369-3.761h1.156c0,0.226-0.02,0.447-0.061,0.673
				c-0.414,2.832-3.449,4.286-6.586,4.286C284.724,340.038,283.866,337.101,283.866,334.436z M287.276,331.927
				c6.658,0,8.469-2.126,8.469-3.957c0-1.509-1.168-2.675-3.742-2.675c-4.053,0-6.014,3.569-6.496,6.536
				C286.212,331.927,286.694,331.927,287.276,331.927z"/>
			<path fill="#FFFFFF" d="M311.31,339.774h-1.025c-0.131-0.743,0.02-1.93,0.211-2.829h-0.15c-1.619,2.347-3.67,3.093-5.701,3.093
				c-3.762,0-5.141-2.254-5.141-5.341c0-5.672,2.816-10.589,7.977-10.589c2.283,0,3.951,0.764,4.727,2.635h0.129
				c0.162-1.026,0.354-1.871,0.674-2.379h0.996L311.31,339.774z M311.47,331.318c0.605-3.832-0.521-6.054-3.99-6.054
				c-3.801,0-6.629,3.671-6.629,9.332c0,2.544,1.117,4.243,4.176,4.243C308.796,338.84,310.948,335.239,311.47,331.318z"/>
			<path fill="#FFFFFF" d="M325.681,335.109c0-1.835-1.73-2.348-3.791-2.766c-2.482-0.513-4.928-0.904-4.928-3.509
				c0-2.475,1.932-4.727,6.246-4.727c2.354,0,4.635,0.936,4.635,3.213c0,0.327-0.031,0.769-0.131,1.131h-1.156
				c0.252-2.413-1.389-3.188-3.57-3.188c-3.117,0-4.666,1.674-4.666,3.469c0,1.811,2.021,2.063,4.275,2.515
				c2.352,0.451,4.414,1.191,4.375,3.73c0,2.676-2.053,5.06-6.629,5.06c-2.865,0-5.018-1.098-5.018-3.642
				c0-0.382,0.07-0.9,0.23-1.348h1.086c-0.412,3.088,1.52,3.862,3.893,3.862C324.433,338.911,325.681,336.719,325.681,335.109z"/>
			<path fill="#FFFFFF" d="M338.753,334.436c0-5.088,2.564-10.327,8.357-10.327c3.801,0,4.867,1.991,4.867,3.729
				c0,2.671-2.807,5.12-10.037,5.12c-0.492,0-1.137,0-1.709-0.061c-0.109,0.478-0.131,1.025-0.131,1.503
				c0,2.479,0.895,4.439,4.184,4.439c3.803,0,5.18-2.025,5.371-3.761h1.156c0,0.226-0.031,0.447-0.061,0.673
				c-0.422,2.832-3.449,4.286-6.598,4.286C339.618,340.038,338.753,337.101,338.753,334.436z M342.163,331.927
				c6.656,0,8.465-2.126,8.465-3.957c0-1.509-1.164-2.675-3.738-2.675c-4.053,0-6.014,3.569-6.496,6.536
				C341.095,331.927,341.581,331.927,342.163,331.927z"/>
			<path fill="#FFFFFF" d="M366.005,318.09h12.893l-0.221,1.252h-11.555l-1.449,8.307h10.781l-0.191,1.251h-10.809l-1.711,9.589
				h12.52l-0.189,1.286h-13.879L366.005,318.09z"/>
			<path fill="#FFFFFF" d="M392.442,330.835l-1.559,8.939h-1.367l1.51-8.688c0.482-2.705,0.703-5.853-3.422-5.853
				c-3.498,0-5.852,3.248-6.395,6.4l-1.377,8.14h-1.328l2.705-15.41h1.025c0.072,0.81-0.059,1.705-0.32,2.957h0.129
				c1.902-2.671,4.344-3.249,5.984-3.249C392.726,324.072,393.017,327.486,392.442,330.835z"/>
			<path fill="#FFFFFF" d="M394.274,342.934c0-0.293,0.027-0.423,0.131-0.775h1.156v0.353c0,1.609,1.285,2.671,4.182,2.735
				c3.119,0,5.412-1.484,6.277-5.691c0.189-0.996,0.451-2.283,0.834-3.51h-0.131c-1.289,2.282-3.279,3.962-6.084,3.962
				c-3.369,0-5.018-2.097-5.018-5.445c0-4.982,2.412-10.489,7.943-10.489c1.973,0,3.902,0.71,4.697,3.062h0.139
				c0.283-1.643,0.443-2.321,0.775-2.805h1.057l-2.967,15.518c-0.865,4.404-3.088,6.556-7.695,6.556
				C396.938,346.402,394.274,345.347,394.274,342.934z M407.618,330.674c0.352-2.614-0.443-5.439-3.951-5.439
				c-4.115,0-6.658,4.022-6.658,9.07c0,2.766,1.158,4.57,3.963,4.57C404.673,338.875,407.114,334.4,407.618,330.674z"/>
			<path fill="#FFFFFF" d="M412.284,334.436c0-5.088,2.572-10.327,8.367-10.327c3.801,0,4.867,1.991,4.867,3.729
				c0,2.671-2.805,5.12-10.047,5.12c-0.482,0-1.127,0-1.699-0.061c-0.102,0.478-0.129,1.025-0.129,1.503
				c0,2.479,0.902,4.439,4.182,4.439c3.791,0,5.168-2.025,5.371-3.761h1.154c0,0.226-0.029,0.447-0.068,0.673
				c-0.404,2.832-3.439,4.286-6.578,4.286C413.149,340.038,412.284,337.101,412.284,334.436z M415.702,331.927
				c6.648,0,8.469-2.126,8.469-3.957c0-1.509-1.178-2.675-3.742-2.675c-4.061,0-6.012,3.569-6.494,6.536
				C414.638,331.927,415.12,331.927,415.702,331.927z"/>
			<path fill="#FFFFFF" d="M441.083,330.835l-1.537,8.939h-1.387l1.508-8.688c0.482-2.705,0.703-5.853-3.41-5.853
				c-3.51,0-5.861,3.248-6.406,6.4l-1.377,8.14h-1.316l2.693-15.41h1.037c0.061,0.81-0.068,1.705-0.322,2.957h0.121
				c1.9-2.671,4.346-3.249,5.984-3.249C441.378,324.072,441.657,327.486,441.083,330.835z"/>
			<path fill="#FFFFFF" d="M446.647,327.447c1.225-1.986,3.537-3.339,6.012-3.339c4.697,0,5.088,3.213,4.475,6.787l-1.508,8.879
				h-1.389l1.48-8.335c0.551-2.987,0.713-6.175-3.471-6.175c-3.602,0-5.764,3.35-6.275,6.274l-1.418,8.235h-1.316l4.012-22.847
				h1.328l-1.287,7.145c-0.172,0.972-0.455,2.35-0.766,3.375H446.647z"/>
			<path fill="#FFFFFF" d="M471.905,339.774h-1.025c-0.141-0.743,0.02-1.93,0.223-2.829h-0.162c-1.607,2.347-3.67,3.093-5.689,3.093
				c-3.773,0-5.16-2.254-5.16-5.341c0-5.672,2.836-10.589,7.973-10.589c2.295,0,3.965,0.764,4.748,2.635h0.121
				c0.16-1.026,0.361-1.871,0.674-2.379h0.994L471.905,339.774z M472.058,331.318c0.613-3.832-0.512-6.054-3.994-6.054
				c-3.789,0-6.625,3.671-6.625,9.332c0,2.544,1.125,4.243,4.184,4.243C469.392,338.84,471.546,335.239,472.058,331.318z"/>
			<path fill="#FFFFFF" d="M476.11,339.774l2.703-15.41h0.998c0,0.931-0.092,1.996-0.352,3.152h0.131
				c1.125-2.182,3.539-3.444,5.982-3.479l-0.131,1.424c-4.596,0.256-6.043,2.921-6.598,6.108c-0.482,2.735-0.965,5.472-1.408,8.205
				H476.11z"/>
			<path fill="#FFFFFF" d="M488.599,324.364h1.318l-2.703,15.41h-1.32L488.599,324.364z M491.194,318.959
				c0,0.674-0.533,1.252-1.176,1.252c-0.555,0-0.834-0.353-0.834-0.869c0-0.674,0.57-1.252,1.217-1.252
				C490.884,318.09,491.194,318.477,491.194,318.959z"/>
			<path fill="#FFFFFF" d="M504.489,339.774h-1.025c-0.123-0.743,0.029-1.93,0.221-2.829h-0.16
				c-1.611,2.347-3.662,3.093-5.693,3.093c-3.76,0-5.148-2.254-5.148-5.341c0-5.672,2.824-10.589,7.975-10.589
				c2.281,0,3.973,0.764,4.736,2.635h0.121c0.172-1.026,0.363-1.871,0.684-2.379h0.996L504.489,339.774z M504.649,331.318
				c0.613-3.832-0.512-6.054-3.992-6.054c-3.791,0-6.617,3.671-6.617,9.332c0,2.544,1.115,4.243,4.184,4.243
				C501.985,338.84,504.138,335.239,504.649,331.318z"/>
		</g>
	</g>
	<g>
		<path fill="#4FC6E0" d="M-165.464,78.809c0-0.06,0.043-0.116,0.043-0.191c0.199-19.271-15.066-31.632-32.031-31.632l-0.01,0.006
			c0,0,1.227-0.865,1.227-0.006h-124.543c-0.896,0-1.619,0.659-1.73,1.539c-0.072,0.578-1.539,15.261,6.557,24.351
			c4.412,4.979,10.789,7.513,18.936,7.563c-0.152,4.164,0.221,14.386,6.666,21.622c4.445,4.987,10.852,7.531,19.047,7.551h7.111
			c-0.162,4.179,0.24,14.386,6.676,21.621c4.434,4.988,10.83,7.532,19.037,7.557h71.256c0.967,0,1.73-0.778,1.73-1.734
			c0-0.03-1.256-0.05-1.256-0.069l1.285-0.011V78.809z"/>
		<g>
			<path fill="#00597E" d="M-520.858,184.815c-11.734,0-22.373,5.928-28.568,15.693v-13.044c0-1.463-1.197-2.649-2.664-2.649
				c-1.457,0-2.645,1.187-2.645,2.649V339.87c0,1.465,1.188,2.66,2.645,2.66c1.467,0,2.664-1.195,2.664-2.66v-69.688
				c6.195,9.77,16.834,15.693,28.568,15.693c18.707,0,33.9-15.205,33.9-33.889v-33.281
				C-486.958,200.016-502.151,184.815-520.858,184.815z M-520.858,280.57c-15.748,0-28.568-12.816-28.568-28.584v-33.281
				c0-15.764,12.82-28.586,28.568-28.586c15.779,0,28.592,12.822,28.592,28.586v33.281
				C-492.267,267.754-505.079,280.57-520.858,280.57z"/>
			<path fill="#00597E" d="M-463.165,130.104c-1.459,0-2.645,1.187-2.645,2.651v150.469c0,1.464,1.186,2.65,2.645,2.65
				c1.469,0,2.654-1.187,2.654-2.65V132.756C-460.511,131.291-461.696,130.104-463.165,130.104z"/>
			<path fill="#00597E" d="M-374.237,184.815c-1.459,0-2.656,1.187-2.656,2.649v13.044c-6.193-9.766-16.834-15.693-28.588-15.693
				c-18.684,0-33.9,15.2-33.9,33.89v33.281c0,18.684,15.217,33.889,33.9,33.889c11.754,0,22.395-5.924,28.588-15.693v13.043
				c0,1.464,1.197,2.65,2.656,2.65c1.469,0,2.654-1.187,2.654-2.65v-95.76C-371.583,186.002-372.769,184.815-374.237,184.815z
				 M-405.481,280.57c-15.76,0-28.592-12.816-28.592-28.584v-33.281c0-15.764,12.832-28.586,28.592-28.586
				c15.756,0,28.588,12.822,28.588,28.586v33.281C-376.894,267.754-389.726,280.57-405.481,280.57z"/>
			<path fill="#00597E" d="M-311.94,184.815c-11.746,0-22.385,5.928-28.59,15.693v-13.044c0-1.463-1.186-2.649-2.645-2.649
				c-1.469,0-2.654,1.187-2.654,2.649v95.76c0,1.464,1.186,2.65,2.654,2.65c1.459,0,2.645-1.187,2.645-2.65v-64.52
				c0-15.764,12.832-28.586,28.59-28.586c15.77,0,28.59,12.822,28.59,28.586v64.52c0,1.464,1.186,2.65,2.656,2.65
				c1.467,0,2.652-1.187,2.652-2.65v-64.52C-278.042,200.016-293.247,184.815-311.94,184.815z"/>
			<path fill="#00597E" d="M-196.396,184.815c-1.459,0-2.664,1.187-2.664,2.649v13.044c-6.186-9.766-16.824-15.693-28.57-15.693
				c-18.705,0-33.898,15.2-33.898,33.89v33.281c0,18.684,15.193,33.889,33.898,33.889c11.746,0,22.385-5.924,28.57-15.693v13.043
				c0,1.464,1.205,2.65,2.664,2.65c1.469,0,2.645-1.187,2.645-2.65v-95.76C-193.751,186.002-194.927,184.815-196.396,184.815z
				 M-227.63,280.57c-15.768,0-28.59-12.816-28.59-28.584v-33.281c0-15.764,12.822-28.586,28.59-28.586
				c15.748,0,28.57,12.822,28.57,28.586v33.281C-199.06,267.754-211.882,280.57-227.63,280.57z"/>
			<path fill="#00597E" d="M-134.089,184.815c-11.754,0-22.393,5.928-28.588,15.693l0.041-125.114
				c0-17.462-14.16-31.672-31.617-31.758h-123.48c-1.367,0-2.533,1.037-2.674,2.399c-0.08,0.603-1.611,14.842,6.789,24.275
				c4.424,4.967,10.697,7.607,18.664,7.853c-0.041,4.707,0.732,14.332,6.947,21.311c4.625,5.214,11.273,7.863,19.762,7.894h6.111
				c-0.039,4.707,0.734,14.314,6.939,21.278c4.637,5.21,11.285,7.859,19.77,7.895h67.439v146.684c0,1.464,1.186,2.65,2.652,2.65
				c1.449,0,2.656-1.187,2.656-2.65v-64.52c0-15.764,12.82-28.586,28.588-28.586c15.76,0,28.57,12.822,28.57,28.586v64.52
				c0,1.464,1.207,2.65,2.666,2.65c1.469,0,2.645-1.187,2.645-2.65v-64.52C-100.208,200.016-115.403,184.815-134.089,184.815z
				 M-256.712,107.368h42.729c1.498,0,2.715-1.217,2.715-2.714c0-1.489-1.217-2.711-2.715-2.711h-54.254
				c-6.867-0.021-12.158-2.057-15.717-6.054c-4.949-5.552-5.592-13.651-5.58-17.694h58.213c1.5,0,2.717-1.217,2.717-2.715
				c0-1.499-1.217-2.711-2.717-2.711h-62.527c-6.857-0.024-12.148-2.057-15.709-6.053c-4.947-5.541-5.6-13.616-5.572-17.664h120.734
				c14.523,0,26.328,11.821,26.328,26.342c0,0.227,0.041,0.397,0.082,0.377v55.345h-67.439c-6.857-0.021-12.146-2.057-15.707-6.054
				C-256.079,119.507-256.722,111.411-256.712,107.368z"/>
		</g>
		<g>
			<path fill="#00597E" d="M-483.981,318.09h1.367l-3.82,21.685h-1.348L-483.981,318.09z"/>
			<path fill="#00597E" d="M-468.253,327.934c1.348-2.442,3.469-3.861,6.105-3.861c4.635,0,4.926,3.444,4.281,7.015l-1.457,8.688
				h-1.336l1.447-8.652c0.543-3.032,0.412-5.888-3.119-5.888c-3.449,0-5.611,3.117-6.113,6.048l-1.518,8.492h-1.318l1.479-8.396
				c0.555-2.996,0.514-6.113-3.33-6.113c-3.486,0-5.52,3.247-6.031,6.175l-1.449,8.335h-1.316l2.693-15.41h1.025
				c0.041,0.81-0.02,1.705-0.279,2.957h0.119c1.779-2.73,4.074-3.213,5.713-3.213C-469.671,324.108-468.353,325.908-468.253,327.934
				z"/>
			<path fill="#00597E" d="M-443.013,339.774h-1.016c-0.129-0.743,0.031-1.93,0.223-2.829h-0.16
				c-1.619,2.347-3.672,3.093-5.693,3.093c-3.771,0-5.16-2.254-5.16-5.341c0-5.672,2.836-10.589,7.986-10.589
				c2.293,0,3.961,0.764,4.734,2.635h0.133c0.162-1.026,0.35-1.871,0.664-2.379h0.994L-443.013,339.774z M-442.853,331.318
				c0.615-3.832-0.502-6.054-3.98-6.054c-3.791,0-6.627,3.671-6.627,9.332c0,2.544,1.125,4.243,4.182,4.243
				C-445.517,338.84-443.354,335.239-442.853,331.318z"/>
			<path fill="#00597E" d="M-439.462,342.934c0-0.293,0.031-0.423,0.119-0.775h1.158v0.353c0,1.609,1.287,2.671,4.191,2.735
				c3.119,0,5.4-1.484,6.277-5.691c0.191-0.996,0.443-2.283,0.834-3.51h-0.131c-1.287,2.282-3.279,3.962-6.084,3.962
				c-3.379,0-5.018-2.097-5.018-5.445c0-4.982,2.414-10.489,7.953-10.489c1.951,0,3.873,0.71,4.697,3.062h0.121
				c0.291-1.643,0.451-2.321,0.764-2.805h1.076l-2.967,15.518c-0.875,4.404-3.088,6.556-7.684,6.556
				C-436.798,346.402-439.462,345.347-439.462,342.934z M-426.108,330.674c0.352-2.614-0.451-5.439-3.961-5.439
				c-4.123,0-6.678,4.022-6.678,9.07c0,2.766,1.178,4.57,3.971,4.57C-429.075,338.875-426.63,334.4-426.108,330.674z"/>
			<path fill="#00597E" d="M-421.452,334.436c0-5.088,2.576-10.327,8.367-10.327c3.791,0,4.855,1.991,4.855,3.729
				c0,2.671-2.793,5.12-10.035,5.12c-0.482,0-1.125,0-1.709-0.061c-0.09,0.478-0.143,1.025-0.143,1.503
				c0,2.479,0.918,4.439,4.205,4.439c3.791,0,5.18-2.025,5.371-3.761h1.154c0,0.226-0.029,0.447-0.061,0.673
				c-0.422,2.832-3.447,4.286-6.594,4.286C-420.587,340.038-421.452,337.101-421.452,334.436z M-418.042,331.927
				c6.656,0,8.467-2.126,8.467-3.957c0-1.509-1.156-2.675-3.74-2.675c-4.053,0-6.016,3.569-6.498,6.536
				C-419.099,331.927-418.616,331.927-418.042,331.927z"/>
			<path fill="#00597E" d="M-392.661,330.835l-1.539,8.939h-1.389l1.52-8.688c0.482-2.705,0.705-5.853-3.41-5.853
				c-3.508,0-5.861,3.248-6.395,6.4l-1.396,8.14h-1.318l2.715-15.41h1.025c0.061,0.81-0.068,1.705-0.332,2.957h0.133
				c1.898-2.671,4.344-3.249,5.992-3.249C-392.358,324.072-392.067,327.486-392.661,330.835z"/>
			<path fill="#00597E" d="M-379.979,335.109c0-1.835-1.74-2.348-3.803-2.766c-2.473-0.513-4.918-0.904-4.918-3.509
				c0-2.475,1.932-4.727,6.246-4.727c2.342,0,4.635,0.936,4.635,3.213c0,0.327-0.039,0.769-0.131,1.131h-1.156
				c0.252-2.413-1.385-3.188-3.578-3.188c-3.119,0-4.668,1.674-4.668,3.469c0,1.811,2.031,2.063,4.285,2.515
				c2.344,0.451,4.395,1.191,4.375,3.73c0,2.676-2.051,5.06-6.629,5.06c-2.875,0-5.018-1.098-5.018-3.642
				c0-0.382,0.063-0.9,0.223-1.348h1.096c-0.412,3.088,1.508,3.862,3.891,3.862C-381.249,338.911-379.979,336.719-379.979,335.109z"
				/>
			<path fill="#00597E" d="M-354.397,333.883h-10.246l-3.139,5.892h-1.488l11.746-21.721h1.449l4.252,21.721h-1.428
				L-354.397,333.883z M-357.144,319.858c-1.025,2.028-2.051,3.958-3.117,5.92l-3.729,6.888h9.422l-1.348-6.818
				c-0.352-1.937-0.684-3.932-1.025-5.989H-357.144z"/>
			<path fill="#00597E" d="M-348.837,334.436c0-5.088,2.566-10.327,8.357-10.327c3.811,0,4.867,1.991,4.867,3.729
				c0,2.671-2.805,5.12-10.037,5.12c-0.49,0-1.125,0-1.709-0.061c-0.102,0.478-0.129,1.025-0.129,1.503
				c0,2.479,0.904,4.439,4.172,4.439c3.801,0,5.189-2.025,5.381-3.761h1.156c0,0.226-0.02,0.447-0.063,0.673
				c-0.41,2.832-3.438,4.286-6.594,4.286C-347.981,340.038-348.837,337.101-348.837,334.436z M-345.429,331.927
				c6.648,0,8.469-2.126,8.469-3.957c0-1.509-1.166-2.675-3.742-2.675c-4.053,0-6.012,3.569-6.494,6.536
				C-346.483,331.927-346.001,331.927-345.429,331.927z M-341.636,321.594l4.123-4.444l1.127,1.102l-4.697,3.927L-341.636,321.594z"
				/>
			<path fill="#00597E" d="M-333.46,339.774l2.705-15.41h0.994c0,0.931-0.1,1.996-0.352,3.152h0.131
				c1.127-2.182,3.531-3.444,5.984-3.479l-0.131,1.424c-4.607,0.256-6.055,2.921-6.598,6.108c-0.492,2.735-0.965,5.472-1.428,8.205
				H-333.46z"/>
			<path fill="#00597E" d="M-324.128,334.436c0-5.088,2.572-10.327,8.355-10.327c3.813,0,4.867,1.991,4.867,3.729
				c0,2.671-2.805,5.12-10.035,5.12c-0.492,0-1.127,0-1.709-0.061c-0.102,0.478-0.131,1.025-0.131,1.503
				c0,2.479,0.904,4.439,4.184,4.439c3.781,0,5.178-2.025,5.369-3.761h1.156c0,0.226-0.02,0.447-0.061,0.673
				c-0.412,2.832-3.457,4.286-6.588,4.286C-323.274,340.038-324.128,337.101-324.128,334.436z M-320.72,331.927
				c6.646,0,8.467-2.126,8.467-3.957c0-1.509-1.166-2.675-3.74-2.675c-4.063,0-6.025,3.569-6.496,6.536
				C-321.786,331.927-321.304,331.927-320.72,331.927z"/>
			<path fill="#00597E" d="M-296.685,339.774h-1.025c-0.133-0.743,0.02-1.93,0.211-2.829h-0.16
				c-1.619,2.347-3.662,3.093-5.693,3.093c-3.76,0-5.139-2.254-5.139-5.341c0-5.672,2.814-10.589,7.973-10.589
				c2.273,0,3.953,0.764,4.727,2.635h0.123c0.172-1.026,0.361-1.871,0.674-2.379h1.006L-296.685,339.774z M-296.524,331.318
				c0.594-3.832-0.523-6.054-3.994-6.054c-3.799,0-6.625,3.671-6.625,9.332c0,2.544,1.115,4.243,4.172,4.243
				C-299.198,338.84-297.048,335.239-296.524,331.318z"/>
			<path fill="#00597E" d="M-282.313,335.109c0-1.835-1.73-2.348-3.793-2.766c-2.482-0.513-4.928-0.904-4.928-3.509
				c0-2.475,1.932-4.727,6.244-4.727c2.354,0,4.637,0.936,4.637,3.213c0,0.327-0.029,0.769-0.131,1.131h-1.156
				c0.252-2.413-1.387-3.188-3.59-3.188c-3.107,0-4.656,1.674-4.656,3.469c0,1.811,2.031,2.063,4.285,2.515
				c2.342,0.451,4.404,1.191,4.373,3.73c0,2.676-2.051,5.06-6.627,5.06c-2.875,0-5.018-1.098-5.018-3.642
				c0-0.382,0.07-0.9,0.23-1.348h1.086c-0.41,3.088,1.508,3.862,3.893,3.862C-283.571,338.911-282.313,336.719-282.313,335.109z"/>
			<path fill="#00597E" d="M-269.251,334.436c0-5.088,2.574-10.327,8.365-10.327c3.801,0,4.867,1.991,4.867,3.729
				c0,2.671-2.805,5.12-10.045,5.12c-0.482,0-1.137,0-1.699-0.061c-0.111,0.478-0.131,1.025-0.131,1.503
				c0,2.479,0.885,4.439,4.184,4.439c3.801,0,5.178-2.025,5.369-3.761h1.156c0,0.226-0.031,0.447-0.061,0.673
				c-0.434,2.832-3.449,4.286-6.607,4.286C-268.388,340.038-269.251,337.101-269.251,334.436z M-265.833,331.927
				c6.658,0,8.457-2.126,8.457-3.957c0-1.509-1.156-2.675-3.73-2.675c-4.053,0-6.014,3.569-6.508,6.536
				C-266.899,331.927-266.427,331.927-265.833,331.927z"/>
			<path fill="#00597E" d="M-241.989,318.09h12.891l-0.221,1.252h-11.555l-1.447,8.307h10.781l-0.191,1.251h-10.822l-1.699,9.589
				h12.521l-0.203,1.286H-245.8L-241.989,318.09z"/>
			<path fill="#00597E" d="M-215.552,330.835l-1.561,8.939h-1.367l1.5-8.688c0.49-2.705,0.713-5.853-3.41-5.853
				c-3.5,0-5.854,3.248-6.395,6.4l-1.377,8.14h-1.328l2.705-15.41h1.025c0.07,0.81-0.061,1.705-0.324,2.957h0.133
				c1.9-2.671,4.334-3.249,5.982-3.249C-215.28,324.072-214.979,327.486-215.552,330.835z"/>
			<path fill="#00597E" d="M-213.733,342.934c0-0.293,0.041-0.423,0.143-0.775h1.154v0.353c0,1.609,1.279,2.671,4.184,2.735
				c3.107,0,5.412-1.484,6.275-5.691c0.191-0.996,0.443-2.283,0.836-3.51h-0.131c-1.297,2.282-3.279,3.962-6.084,3.962
				c-3.369,0-5.018-2.097-5.018-5.445c0-4.982,2.414-10.489,7.943-10.489c1.971,0,3.9,0.71,4.686,3.062h0.152
				c0.279-1.643,0.441-2.321,0.773-2.805h1.057l-2.967,15.518c-0.865,4.404-3.088,6.556-7.693,6.556
				C-211.067,346.402-213.733,345.347-213.733,342.934z M-200.378,330.674c0.354-2.614-0.443-5.439-3.953-5.439
				c-4.113,0-6.654,4.022-6.654,9.07c0,2.766,1.154,4.57,3.949,4.57C-203.323,338.875-200.882,334.4-200.378,330.674z"/>
			<path fill="#00597E" d="M-195.712,334.436c0-5.088,2.574-10.327,8.367-10.327c3.803,0,4.867,1.991,4.867,3.729
				c0,2.671-2.807,5.12-10.047,5.12c-0.482,0-1.125,0-1.699-0.061c-0.1,0.478-0.131,1.025-0.131,1.503
				c0,2.479,0.885,4.439,4.184,4.439c3.793,0,5.17-2.025,5.369-3.761h1.156c0,0.226-0.039,0.447-0.068,0.673
				c-0.422,2.832-3.441,4.286-6.578,4.286C-194.847,340.038-195.712,337.101-195.712,334.436z M-192.294,331.927
				c6.648,0,8.469-2.126,8.469-3.957c0-1.509-1.176-2.675-3.742-2.675c-4.061,0-6.014,3.569-6.496,6.536
				C-193.358,331.927-192.888,331.927-192.294,331.927z"/>
			<path fill="#00597E" d="M-166.911,330.835l-1.537,8.939h-1.389l1.508-8.688c0.482-2.705,0.703-5.853-3.41-5.853
				c-3.51,0-5.859,3.248-6.404,6.4l-1.377,8.14h-1.318l2.695-15.41h1.035c0.061,0.81-0.07,1.705-0.33,2.957h0.131
				c1.898-2.671,4.332-3.249,5.982-3.249C-166.62,324.072-166.337,327.486-166.911,330.835z"/>
			<path fill="#00597E" d="M-161.349,327.447c1.225-1.986,3.539-3.339,6.012-3.339c4.688,0,5.09,3.213,4.477,6.787l-1.52,8.879
				h-1.377l1.467-8.335c0.564-2.987,0.727-6.175-3.459-6.175c-3.609,0-5.762,3.35-6.273,6.274l-1.428,8.235h-1.309l4.014-22.847
				h1.324l-1.285,7.145c-0.172,0.972-0.453,2.35-0.766,3.375H-161.349z"/>
			<path fill="#00597E" d="M-136.089,339.774h-1.025c-0.141-0.743,0.02-1.93,0.221-2.829h-0.162
				c-1.607,2.347-3.67,3.093-5.691,3.093c-3.77,0-5.168-2.254-5.168-5.341c0-5.672,2.846-10.589,7.975-10.589
				c2.303,0,3.961,0.764,4.756,2.635h0.123c0.16-1.026,0.359-1.871,0.674-2.379h0.984L-136.089,339.774z M-135.938,331.318
				c0.613-3.832-0.512-6.054-4.002-6.054c-3.781,0-6.617,3.671-6.617,9.332c0,2.544,1.125,4.243,4.184,4.243
				C-138.603,338.84-136.45,335.239-135.938,331.318z"/>
			<path fill="#00597E" d="M-131.886,339.774l2.705-15.41h0.996c0,0.931-0.092,1.996-0.352,3.152h0.129
				c1.127-2.182,3.541-3.444,5.986-3.479l-0.133,1.424c-4.594,0.256-6.043,2.921-6.596,6.108c-0.494,2.735-0.967,5.472-1.42,8.205
				H-131.886z"/>
			<path fill="#00597E" d="M-119.396,324.364h1.318l-2.707,15.41h-1.316L-119.396,324.364z M-116.802,318.959
				c0,0.674-0.533,1.252-1.176,1.252c-0.553,0-0.846-0.353-0.846-0.869c0-0.674,0.584-1.252,1.229-1.252
				C-117.112,318.09-116.802,318.477-116.802,318.959z"/>
			<path fill="#00597E" d="M-103.507,339.774h-1.027c-0.119-0.743,0.031-1.93,0.223-2.829h-0.16
				c-1.609,2.347-3.66,3.093-5.703,3.093c-3.75,0-5.139-2.254-5.139-5.341c0-5.672,2.826-10.589,7.975-10.589
				c2.283,0,3.961,0.764,4.738,2.635h0.119c0.172-1.026,0.363-1.871,0.684-2.379h0.996L-103.507,339.774z M-103.347,331.318
				c0.615-3.832-0.514-6.054-3.992-6.054c-3.791,0-6.617,3.671-6.617,9.332c0,2.544,1.117,4.243,4.184,4.243
				C-106.011,338.84-103.86,335.239-103.347,331.318z"/>
		</g>
	</g>
	<g>
		<path fill="#A7A9AC" d="M446.536,964.806c0-0.065,0.031-0.115,0.031-0.196c0.211-19.268-15.055-31.626-32.02-31.626l-0.01,0.004
			c0,0,1.227-0.859,1.227-0.004H291.222c-0.896,0-1.619,0.658-1.73,1.538c-0.072,0.583-1.539,15.266,6.557,24.352
			c4.404,4.972,10.789,7.512,18.936,7.557c-0.152,4.174,0.221,14.391,6.666,21.621c4.445,4.993,10.852,7.542,19.047,7.558h7.111
			c-0.162,4.178,0.24,14.386,6.676,21.625c4.434,4.982,10.82,7.532,19.037,7.552h71.248c0.965,0,1.748-0.773,1.748-1.739
			c0-0.024-1.266-0.046-1.266-0.066l1.285-0.015V964.806z"/>
		<g>
			<path d="M91.142,1070.813c-11.744,0-22.383,5.929-28.568,15.691v-13.042c0-1.463-1.197-2.649-2.664-2.649
				c-1.457,0-2.645,1.187-2.645,2.649v152.406c0,1.462,1.188,2.659,2.645,2.659c1.467,0,2.664-1.197,2.664-2.659v-69.689
				c6.186,9.77,16.824,15.698,28.568,15.698c18.707,0,33.9-15.205,33.9-33.895v-33.281
				C125.042,1086.018,109.849,1070.813,91.142,1070.813z M91.142,1166.566c-15.748,0-28.568-12.821-28.568-28.584v-33.281
				c0-15.758,12.82-28.584,28.568-28.584c15.779,0,28.602,12.826,28.602,28.584v33.281
				C119.743,1153.745,106.921,1166.566,91.142,1166.566z"/>
			<path d="M148.835,1016.098c-1.459,0-2.645,1.195-2.645,2.654v150.469c0,1.459,1.186,2.656,2.645,2.656
				c1.469,0,2.645-1.197,2.645-2.656v-150.469C151.479,1017.293,150.304,1016.098,148.835,1016.098z"/>
			<path d="M237.763,1070.813c-1.459,0-2.656,1.187-2.656,2.649v13.042c-6.193-9.763-16.834-15.691-28.588-15.691
				c-18.684,0-33.9,15.205-33.9,33.889v33.281c0,18.689,15.217,33.895,33.9,33.895c11.754,0,22.395-5.929,28.588-15.698v13.042
				c0,1.459,1.197,2.656,2.656,2.656c1.469,0,2.654-1.197,2.654-2.656v-95.759C240.417,1071.999,239.231,1070.813,237.763,1070.813z
				 M206.519,1166.566c-15.76,0-28.592-12.821-28.592-28.584v-33.281c0-15.758,12.832-28.584,28.592-28.584
				c15.756,0,28.588,12.826,28.588,28.584v33.281C235.106,1153.745,222.274,1166.566,206.519,1166.566z"/>
			<path d="M300.06,1070.813c-11.746,0-22.385,5.929-28.59,15.691v-13.042c0-1.463-1.186-2.649-2.645-2.649
				c-1.469,0-2.654,1.187-2.654,2.649v95.759c0,1.459,1.186,2.656,2.654,2.656c1.459,0,2.645-1.197,2.645-2.656v-64.52
				c0-15.758,12.832-28.584,28.59-28.584c15.77,0,28.59,12.826,28.59,28.584v64.52c0,1.459,1.186,2.656,2.656,2.656
				c1.467,0,2.652-1.197,2.652-2.656v-64.52C333.958,1086.018,318.753,1070.813,300.06,1070.813z"/>
			<path d="M415.604,1070.813c-1.459,0-2.664,1.187-2.664,2.649v13.042c-6.186-9.763-16.824-15.691-28.57-15.691
				c-18.705,0-33.898,15.205-33.898,33.889v33.281c0,18.689,15.193,33.895,33.898,33.895c11.746,0,22.385-5.929,28.57-15.698v13.042
				c0,1.459,1.205,2.656,2.664,2.656c1.469,0,2.645-1.197,2.645-2.656v-95.759C418.249,1071.999,417.073,1070.813,415.604,1070.813z
				 M384.37,1166.566c-15.768,0-28.59-12.821-28.59-28.584v-33.281c0-15.758,12.822-28.584,28.59-28.584
				c15.748,0,28.57,12.826,28.57,28.584v33.281C412.94,1153.745,400.118,1166.566,384.37,1166.566z"/>
			<path d="M477.911,1070.813c-11.754,0-22.393,5.929-28.588,15.691l0.041-125.112c0-17.457-14.16-31.672-31.617-31.757h-123.48
				c-1.367,0-2.533,1.035-2.674,2.403c-0.08,0.598-1.611,14.838,6.777,24.266c4.436,4.973,10.709,7.613,18.676,7.862
				c-0.041,4.697,0.732,14.332,6.947,21.305c4.625,5.215,11.273,7.864,19.762,7.89h6.104c-0.031,4.706,0.742,14.319,6.947,21.288
				c4.637,5.204,11.285,7.854,19.762,7.885h67.447v146.688c0,1.459,1.186,2.656,2.652,2.656c1.449,0,2.656-1.197,2.656-2.656v-64.52
				c0-15.758,12.82-28.584,28.588-28.584c15.76,0,28.57,12.826,28.57,28.584v64.52c0,1.459,1.207,2.656,2.666,2.656
				c1.457,0,2.645-1.197,2.645-2.656v-64.52C511.792,1086.018,496.597,1070.813,477.911,1070.813z M355.298,993.36h42.719
				c1.498,0,2.715-1.207,2.715-2.711c0-1.493-1.217-2.71-2.715-2.71h-54.254c-6.867-0.02-12.158-2.051-15.717-6.054
				c-4.949-5.55-5.592-13.646-5.58-17.698h58.213c1.5,0,2.717-1.216,2.717-2.71s-1.217-2.711-2.717-2.711h-62.527
				c-6.857-0.02-12.148-2.052-15.709-6.053c-4.947-5.542-5.6-13.616-5.572-17.664h120.734c14.523,0,26.338,11.821,26.338,26.342
				c0,0.231,0.031,0.392,0.072,0.371v55.35h-67.447c-6.85-0.02-12.139-2.051-15.699-6.054
				C355.921,1005.503,355.278,997.413,355.298,993.36z"/>
		</g>
		<g>
			<path d="M128.019,1204.086h1.367l-3.82,21.687h-1.348L128.019,1204.086z"/>
			<path d="M143.747,1213.932c1.348-2.443,3.469-3.861,6.105-3.861c4.635,0,4.926,3.444,4.281,7.014l-1.457,8.688h-1.336
				l1.447-8.653c0.543-3.027,0.412-5.883-3.119-5.883c-3.449,0-5.611,3.117-6.113,6.044l-1.518,8.492h-1.318l1.479-8.396
				c0.555-2.992,0.514-6.115-3.318-6.115c-3.498,0-5.531,3.249-6.043,6.176l-1.459,8.336h-1.307l2.693-15.411h1.025
				c0.041,0.804-0.02,1.705-0.279,2.957h0.119c1.779-2.731,4.074-3.208,5.713-3.208
				C142.329,1210.11,143.647,1211.91,143.747,1213.932z"/>
			<path d="M168.987,1225.772h-1.016c-0.129-0.739,0.031-1.926,0.223-2.831h-0.16c-1.619,2.349-3.682,3.088-5.693,3.088
				c-3.771,0-5.16-2.253-5.16-5.34c0-5.662,2.836-10.579,7.986-10.579c2.293,0,3.961,0.764,4.734,2.629h0.133
				c0.162-1.031,0.35-1.865,0.664-2.378h0.994L168.987,1225.772z M169.147,1217.311c0.625-3.831-0.502-6.05-3.98-6.05
				c-3.791,0-6.627,3.671-6.627,9.333c0,2.544,1.125,4.248,4.182,4.248C166.483,1224.842,168.646,1221.237,169.147,1217.311z"/>
			<path d="M172.538,1228.926c0-0.283,0.031-0.418,0.119-0.77h1.158v0.352c0,1.608,1.287,2.67,4.184,2.735
				c3.127,0,5.408-1.483,6.285-5.687c0.191-1.006,0.443-2.293,0.834-3.52h-0.131c-1.287,2.288-3.279,3.961-6.084,3.961
				c-3.379,0-5.018-2.092-5.018-5.439c0-4.983,2.414-10.488,7.953-10.488c1.951,0,3.873,0.708,4.697,3.057h0.121
				c0.291-1.639,0.451-2.318,0.764-2.796h1.076l-2.967,15.507c-0.875,4.408-3.088,6.566-7.684,6.566
				C175.202,1232.404,172.538,1231.339,172.538,1228.926z M185.892,1216.667c0.344-2.605-0.451-5.431-3.961-5.431
				c-4.123,0-6.668,4.022-6.668,9.065c0,2.771,1.168,4.571,3.961,4.571C182.925,1224.873,185.37,1220.397,185.892,1216.667z"/>
			<path d="M190.548,1220.434c0-5.084,2.576-10.323,8.367-10.323c3.791,0,4.855,1.986,4.855,3.726c0,2.671-2.793,5.124-10.035,5.124
				c-0.482,0-1.125,0-1.709-0.07c-0.09,0.482-0.143,1.03-0.143,1.508c0,2.483,0.918,4.444,4.205,4.444
				c3.791,0,5.18-2.031,5.371-3.771h1.154c0,0.231-0.029,0.453-0.061,0.679c-0.422,2.832-3.447,4.279-6.594,4.279
				C191.413,1226.029,190.548,1223.103,190.548,1220.434z M193.958,1217.924c6.656,0,8.467-2.127,8.467-3.952
				c0-1.518-1.156-2.675-3.74-2.675c-4.053,0-6.016,3.569-6.498,6.536C192.901,1217.924,193.384,1217.924,193.958,1217.924z"/>
			<path d="M219.339,1216.828l-1.539,8.944h-1.389l1.52-8.688c0.482-2.7,0.705-5.848-3.41-5.848c-3.508,0-5.861,3.248-6.402,6.396
				l-1.389,8.141h-1.318l2.707-15.411h1.033c0.061,0.804-0.068,1.705-0.332,2.957h0.133c1.891-2.666,4.344-3.248,5.992-3.248
				C219.642,1210.07,219.933,1213.479,219.339,1216.828z"/>
			<path d="M232.021,1221.106c0-1.836-1.74-2.349-3.803-2.761c-2.473-0.513-4.918-0.909-4.918-3.509
				c0-2.484,1.932-4.727,6.246-4.727c2.354,0,4.635,0.925,4.635,3.208c0,0.322-0.039,0.773-0.131,1.13h-1.156
				c0.252-2.418-1.385-3.188-3.57-3.188c-3.127,0-4.676,1.676-4.676,3.475c0,1.811,2.031,2.057,4.285,2.51
				c2.344,0.448,4.395,1.191,4.375,3.735c0,2.67-2.051,5.049-6.629,5.049c-2.875,0-5.018-1.092-5.018-3.636
				c0-0.387,0.063-0.899,0.223-1.352h1.096c-0.412,3.092,1.508,3.865,3.891,3.865
				C230.751,1224.907,232.021,1222.715,232.021,1221.106z"/>
			<path d="M257.603,1219.885h-10.246l-3.139,5.888h-1.488l11.746-21.722h1.438l4.264,21.722h-1.416L257.603,1219.885z
				 M254.856,1205.856c-1.025,2.032-2.051,3.957-3.117,5.917l-3.729,6.885h9.422l-1.348-6.818c-0.352-1.931-0.684-3.928-1.025-5.983
				H254.856z"/>
			<path d="M263.163,1220.434c0-5.084,2.566-10.323,8.346-10.323c3.822,0,4.879,1.986,4.879,3.726c0,2.671-2.805,5.124-10.037,5.124
				c-0.49,0-1.125,0-1.709-0.07c-0.102,0.482-0.129,1.03-0.129,1.508c0,2.483,0.904,4.444,4.172,4.444
				c3.791,0,5.189-2.031,5.381-3.771h1.156c0,0.231-0.02,0.453-0.063,0.679c-0.41,2.832-3.438,4.279-6.594,4.279
				C264.019,1226.029,263.163,1223.103,263.163,1220.434z M266.571,1217.924c6.648,0,8.469-2.127,8.469-3.952
				c0-1.518-1.166-2.675-3.742-2.675c-4.053,0-6.012,3.569-6.494,6.536C265.517,1217.924,265.999,1217.924,266.571,1217.924z
				 M270.364,1207.591l4.123-4.439l1.127,1.096l-4.697,3.927L270.364,1207.591z"/>
			<path d="M278.54,1225.772l2.705-15.411h0.994c0,0.936-0.1,1.991-0.352,3.153h0.131c1.127-2.188,3.531-3.444,5.984-3.476
				l-0.131,1.418c-4.607,0.251-6.064,2.927-6.598,6.109c-0.492,2.735-0.965,5.477-1.428,8.206H278.54z"/>
			<path d="M287.872,1220.434c0-5.084,2.572-10.323,8.355-10.323c3.813,0,4.867,1.986,4.867,3.726c0,2.671-2.805,5.124-10.035,5.124
				c-0.492,0-1.127,0-1.709-0.07c-0.102,0.482-0.143,1.03-0.143,1.508c0,2.483,0.916,4.444,4.195,4.444
				c3.781,0,5.178-2.031,5.369-3.771h1.156c0,0.231-0.02,0.453-0.061,0.679c-0.412,2.832-3.457,4.279-6.588,4.279
				C288.726,1226.029,287.872,1223.103,287.872,1220.434z M291.271,1217.924c6.656,0,8.477-2.127,8.477-3.952
				c0-1.518-1.166-2.675-3.74-2.675c-4.063,0-6.025,3.569-6.496,6.536C290.214,1217.924,290.696,1217.924,291.271,1217.924z"/>
			<path d="M315.315,1225.772h-1.025c-0.133-0.739,0.02-1.926,0.211-2.831h-0.16c-1.619,2.349-3.662,3.088-5.693,3.088
				c-3.76,0-5.139-2.253-5.139-5.34c0-5.662,2.814-10.579,7.973-10.579c2.285,0,3.953,0.764,4.727,2.629h0.133
				c0.162-1.031,0.352-1.865,0.664-2.378h1.006L315.315,1225.772z M315.476,1217.311c0.594-3.831-0.523-6.05-3.994-6.05
				c-3.799,0-6.625,3.671-6.625,9.333c0,2.544,1.115,4.248,4.172,4.248C312.802,1224.842,314.952,1221.237,315.476,1217.311z"/>
			<path d="M329.687,1221.106c0-1.836-1.73-2.349-3.793-2.761c-2.482-0.513-4.928-0.909-4.928-3.509
				c0-2.484,1.932-4.727,6.244-4.727c2.354,0,4.627,0.925,4.627,3.208c0,0.322-0.02,0.773-0.121,1.13h-1.156
				c0.252-2.418-1.387-3.188-3.578-3.188c-3.119,0-4.668,1.676-4.668,3.475c0,1.811,2.031,2.057,4.285,2.51
				c2.342,0.448,4.412,1.191,4.373,3.735c0,2.67-2.051,5.049-6.627,5.049c-2.875,0-5.018-1.092-5.018-3.636
				c0-0.387,0.07-0.899,0.23-1.352h1.086c-0.41,3.092,1.508,3.865,3.893,3.865C328.438,1224.907,329.687,1222.715,329.687,1221.106z
				"/>
			<path d="M342.749,1220.434c0-5.084,2.574-10.323,8.365-10.323c3.801,0,4.857,1.986,4.857,3.726c0,2.671-2.795,5.124-10.027,5.124
				c-0.49,0-1.145,0-1.707-0.07c-0.111,0.482-0.131,1.03-0.131,1.508c0,2.483,0.893,4.444,4.184,4.444
				c3.801,0,5.178-2.031,5.369-3.771h1.156c0,0.231-0.031,0.453-0.061,0.679c-0.434,2.832-3.449,4.279-6.607,4.279
				C343.612,1226.029,342.749,1223.103,342.749,1220.434z M346.167,1217.924c6.658,0,8.457-2.127,8.457-3.952
				c0-1.518-1.156-2.675-3.73-2.675c-4.053,0-6.014,3.569-6.508,6.536C345.101,1217.924,345.573,1217.924,346.167,1217.924z"/>
			<path d="M370.011,1204.086h12.891l-0.221,1.258h-11.555l-1.447,8.297h10.781l-0.203,1.256h-10.801l-1.709,9.59h12.51
				l-0.191,1.286H366.2L370.011,1204.086z"/>
			<path d="M396.448,1216.828l-1.561,8.944h-1.367l1.508-8.688c0.482-2.7,0.705-5.848-3.418-5.848c-3.5,0-5.861,3.248-6.395,6.396
				l-1.377,8.141h-1.328l2.705-15.411h1.025c0.07,0.804-0.061,1.705-0.324,2.957h0.133c1.9-2.666,4.334-3.248,5.982-3.248
				C396.72,1210.07,397.021,1213.479,396.448,1216.828z"/>
			<path d="M398.267,1228.926c0-0.283,0.041-0.418,0.143-0.77h1.154v0.352c0,1.608,1.279,2.67,4.184,2.735
				c3.107,0,5.412-1.483,6.275-5.687c0.182-1.006,0.453-2.293,0.836-3.52h-0.131c-1.297,2.288-3.279,3.961-6.084,3.961
				c-3.369,0-5.018-2.092-5.018-5.439c0-4.983,2.414-10.488,7.943-10.488c1.971,0,3.9,0.708,4.686,3.057h0.152
				c0.279-1.639,0.441-2.318,0.773-2.796h1.057l-2.967,15.507c-0.865,4.408-3.088,6.566-7.693,6.566
				C400.933,1232.404,398.267,1231.339,398.267,1228.926z M411.622,1216.667c0.354-2.605-0.443-5.431-3.953-5.431
				c-4.113,0-6.666,4.022-6.666,9.065c0,2.771,1.166,4.571,3.961,4.571C408.677,1224.873,411.118,1220.397,411.622,1216.667z"/>
			<path d="M416.288,1220.434c0-5.084,2.574-10.323,8.367-10.323c3.803,0,4.855,1.986,4.855,3.726c0,2.671-2.795,5.124-10.035,5.124
				c-0.482,0-1.125,0-1.699-0.07c-0.1,0.482-0.131,1.03-0.131,1.508c0,2.483,0.885,4.444,4.184,4.444
				c3.793,0,5.17-2.031,5.369-3.771h1.156c0,0.231-0.029,0.453-0.068,0.679c-0.422,2.832-3.441,4.279-6.578,4.279
				C417.153,1226.029,416.288,1223.103,416.288,1220.434z M419.706,1217.924c6.648,0,8.469-2.127,8.469-3.952
				c0-1.518-1.176-2.675-3.742-2.675c-4.061,0-6.014,3.569-6.506,6.536C418.642,1217.924,419.112,1217.924,419.706,1217.924z"/>
			<path d="M445.089,1216.828l-1.537,8.944h-1.389l1.508-8.688c0.482-2.7,0.703-5.848-3.41-5.848c-3.51,0-5.859,3.248-6.404,6.396
				l-1.377,8.141h-1.318l2.695-15.411h1.035c0.061,0.804-0.08,1.705-0.33,2.957h0.131c1.898-2.666,4.332-3.248,5.982-3.248
				C445.38,1210.07,445.663,1213.479,445.089,1216.828z"/>
			<path d="M450.651,1213.449c1.225-1.992,3.539-3.339,6.012-3.339c4.688,0,5.09,3.208,4.477,6.787l-1.52,8.875h-1.377l1.467-8.336
				c0.564-2.988,0.727-6.176-3.459-6.176c-3.609,0-5.762,3.349-6.273,6.275l-1.428,8.236h-1.309l4.014-22.843h1.324l-1.285,7.141
				c-0.172,0.965-0.453,2.348-0.766,3.379H450.651z"/>
			<path d="M475.911,1225.772h-1.025c-0.152-0.739,0.02-1.926,0.221-2.831h-0.162c-1.607,2.349-3.67,3.088-5.701,3.088
				c-3.76,0-5.158-2.253-5.158-5.34c0-5.662,2.846-10.579,7.975-10.579c2.303,0,3.961,0.764,4.756,2.629h0.123
				c0.16-1.031,0.359-1.865,0.674-2.378h0.984L475.911,1225.772z M476.062,1217.311c0.613-3.831-0.512-6.05-4.002-6.05
				c-3.781,0-6.617,3.671-6.617,9.333c0,2.544,1.125,4.248,4.184,4.248C473.397,1224.842,475.55,1221.237,476.062,1217.311z"/>
			<path d="M480.114,1225.772l2.705-15.411h0.996c0,0.936-0.092,1.991-0.352,3.153h0.129c1.127-2.188,3.541-3.444,5.986-3.476
				l-0.133,1.418c-4.594,0.251-6.043,2.927-6.596,6.109c-0.494,2.735-0.967,5.477-1.408,8.206H480.114z"/>
			<path d="M492.604,1210.361h1.318l-2.707,15.411h-1.316L492.604,1210.361z M495.198,1204.961c0,0.674-0.533,1.248-1.176,1.248
				c-0.553,0-0.846-0.353-0.846-0.865c0-0.68,0.584-1.258,1.229-1.258C494.888,1204.086,495.198,1204.475,495.198,1204.961z"/>
			<path d="M508.493,1225.772h-1.027c-0.119-0.739,0.031-1.926,0.223-2.831h-0.172c-1.598,2.349-3.648,3.088-5.691,3.088
				c-3.75,0-5.139-2.253-5.139-5.34c0-5.662,2.826-10.579,7.975-10.579c2.283,0,3.961,0.764,4.738,2.629h0.119
				c0.172-1.031,0.363-1.865,0.684-2.378h0.996L508.493,1225.772z M508.653,1217.311c0.615-3.831-0.514-6.05-3.992-6.05
				c-3.791,0-6.617,3.671-6.617,9.333c0,2.544,1.117,4.248,4.184,4.248C505.989,1224.842,508.14,1221.237,508.653,1217.311z"/>
		</g>
	</g>
	<g>
		<g>
			<path fill="#FFFFFF" d="M91.157,620.815c-11.754,0-22.393,5.924-28.588,15.687V623.46c0-1.458-1.197-2.645-2.656-2.645
				c-1.467,0-2.654,1.187-2.654,2.645v152.41c0,1.458,1.188,2.655,2.654,2.655c1.459,0,2.656-1.197,2.656-2.655v-69.688
				c6.195,9.765,16.834,15.693,28.588,15.693c18.686,0,33.891-15.205,33.891-33.895v-33.275
				C125.048,636.02,109.843,620.815,91.157,620.815z M91.157,716.57c-15.768,0-28.588-12.821-28.588-28.59v-33.275
				c0-15.769,12.82-28.59,28.588-28.59c15.76,0,28.58,12.821,28.58,28.59v33.275C119.737,703.749,106.917,716.57,91.157,716.57z"/>
			<path fill="#FFFFFF" d="M148.831,566.101c-1.459,0-2.645,1.187-2.645,2.655v150.469c0,1.459,1.186,2.65,2.645,2.65
				c1.469,0,2.654-1.191,2.654-2.65V568.756C151.485,567.287,150.3,566.101,148.831,566.101z"/>
			<path fill="#FFFFFF" d="M237.757,620.815c-1.457,0-2.654,1.187-2.654,2.645v13.042c-6.195-9.763-16.834-15.687-28.592-15.687
				c-18.684,0-33.889,15.204-33.889,33.89v33.275c0,18.689,15.205,33.895,33.889,33.895c11.758,0,22.396-5.929,28.592-15.693v13.043
				c0,1.459,1.197,2.65,2.654,2.65c1.467,0,2.654-1.191,2.654-2.65V623.46C240.411,622.002,239.224,620.815,237.757,620.815z
				 M206.511,716.57c-15.756,0-28.588-12.821-28.588-28.59v-33.275c0-15.769,12.832-28.59,28.588-28.59
				c15.76,0,28.592,12.821,28.592,28.59v33.275C235.103,703.749,222.271,716.57,206.511,716.57z"/>
			<path fill="#FFFFFF" d="M300.054,620.815c-11.744,0-22.385,5.924-28.588,15.687V623.46c0-1.458-1.178-2.645-2.645-2.645
				c-1.469,0-2.656,1.187-2.656,2.645v95.765c0,1.459,1.188,2.65,2.656,2.65c1.467,0,2.645-1.191,2.645-2.65v-64.52
				c0-15.769,12.832-28.59,28.588-28.59c15.768,0,28.592,12.821,28.592,28.59v64.52c0,1.459,1.186,2.65,2.652,2.65
				c1.469,0,2.656-1.191,2.656-2.65v-64.52C333.954,636.02,318.749,620.815,300.054,620.815z"/>
			<path fill="#FFFFFF" d="M415.61,620.815c-1.469,0-2.666,1.187-2.666,2.645v13.042c-6.193-9.763-16.832-15.687-28.578-15.687
				c-18.695,0-33.9,15.204-33.9,33.89v33.275c0,18.689,15.205,33.895,33.9,33.895c11.746,0,22.385-5.929,28.578-15.693v13.043
				c0,1.459,1.197,2.65,2.666,2.65c1.457,0,2.633-1.191,2.633-2.65V623.46C418.243,622.002,417.067,620.815,415.61,620.815z
				 M384.366,716.57c-15.77,0-28.59-12.821-28.59-28.59v-33.275c0-15.769,12.82-28.59,28.59-28.59
				c15.746,0,28.578,12.821,28.578,28.59v33.275C412.944,703.749,400.112,716.57,384.366,716.57z"/>
			<path fill="#FFFFFF" d="M477.907,620.815c-11.756,0-22.396,5.924-28.59,15.687l0.041-125.107
				c0-17.468-14.16-31.677-31.617-31.758H294.272c-1.379,0-2.545,1.037-2.684,2.399c-0.072,0.598-1.6,14.838,6.785,24.271
				c4.426,4.968,10.701,7.612,18.664,7.864c-0.039,4.696,0.734,14.325,6.949,21.298c4.627,5.22,11.275,7.864,19.76,7.895h6.115
				c-0.041,4.706,0.734,14.319,6.939,21.283c4.635,5.204,11.281,7.859,19.77,7.891h67.447v146.688c0,1.459,1.176,2.65,2.645,2.65
				c1.457,0,2.654-1.191,2.654-2.65v-64.52c0-15.769,12.822-28.59,28.59-28.59c15.758,0,28.58,12.821,28.58,28.59v64.52
				c0,1.459,1.197,2.65,2.654,2.65c1.467,0,2.654-1.191,2.654-2.65v-64.52C511.796,636.02,496.591,620.815,477.907,620.815z
				 M355.294,543.363h42.729c1.488,0,2.705-1.217,2.705-2.716c0-1.487-1.217-2.704-2.705-2.704h-54.264
				c-6.869-0.021-12.158-2.062-15.719-6.054c-4.947-5.552-5.59-13.646-5.58-17.699h58.225c1.488,0,2.705-1.217,2.705-2.715
				c0-1.499-1.217-2.706-2.705-2.706h-62.539c-6.859-0.024-12.148-2.061-15.707-6.053c-4.949-5.541-5.602-13.616-5.572-17.669
				h120.734c14.52,0,26.338,11.826,26.338,26.347c0,0.221,0.029,0.393,0.08,0.373v55.349h-67.447
				c-6.857-0.021-12.146-2.062-15.707-6.054C355.917,555.501,355.274,547.416,355.294,543.363z"/>
		</g>
		<g>
			<path fill="#FFFFFF" d="M128.015,754.09h1.367l-3.82,21.681h-1.348L128.015,754.09z"/>
			<path fill="#FFFFFF" d="M143.741,763.934c1.35-2.442,3.471-3.861,6.104-3.861c4.637,0,4.93,3.44,4.285,7.01l-1.449,8.688h-1.348
				l1.449-8.648c0.545-3.027,0.412-5.893-3.117-5.893c-3.449,0-5.611,3.122-6.113,6.053l-1.52,8.488h-1.316l1.479-8.396
				c0.551-2.992,0.512-6.115-3.318-6.115c-3.502,0-5.533,3.249-6.045,6.176l-1.447,8.336h-1.318l2.707-15.406h1.025
				c0.029,0.806-0.031,1.7-0.295,2.957h0.133c1.77-2.736,4.063-3.219,5.703-3.219C142.323,760.103,143.642,761.903,143.741,763.934z
				"/>
			<path fill="#FFFFFF" d="M168.993,775.771h-1.025c-0.133-0.734,0.029-1.921,0.221-2.825h-0.15
				c-1.619,2.343-3.682,3.086-5.703,3.086c-3.77,0-5.146-2.251-5.146-5.339c0-5.667,2.824-10.59,7.973-10.59
				c2.295,0,3.963,0.774,4.736,2.635h0.131c0.16-1.025,0.352-1.86,0.674-2.373h0.986L168.993,775.771z M169.155,767.313
				c0.611-3.831-0.514-6.054-3.994-6.054c-3.791,0-6.627,3.671-6.627,9.333c0,2.544,1.127,4.248,4.184,4.248
				C166.479,774.84,168.642,771.235,169.155,767.313z"/>
			<path fill="#FFFFFF" d="M172.534,778.928c0-0.291,0.027-0.422,0.131-0.773h1.145v0.352c0,1.608,1.289,2.676,4.193,2.735
				c3.119,0,5.4-1.479,6.275-5.692c0.191-0.995,0.441-2.281,0.836-3.51h-0.131c-1.289,2.284-3.279,3.963-6.084,3.963
				c-3.379,0-5.018-2.092-5.018-5.44c0-4.988,2.412-10.489,7.953-10.489c1.951,0,3.881,0.704,4.695,3.058h0.121
				c0.291-1.639,0.453-2.323,0.773-2.801h1.068l-2.959,15.512c-0.883,4.403-3.096,6.562-7.691,6.562
				C175.198,782.402,172.534,781.342,172.534,778.928z M185.888,766.67c0.352-2.604-0.453-5.44-3.963-5.44
				c-4.123,0-6.666,4.022-6.666,9.07c0,2.776,1.164,4.575,3.961,4.575C182.921,774.875,185.364,770.4,185.888,766.67z"/>
			<path fill="#FFFFFF" d="M190.544,770.432c0-5.079,2.572-10.329,8.367-10.329c3.799,0,4.855,1.992,4.855,3.731
				c0,2.675-2.795,5.118-10.035,5.118c-0.482,0-1.127,0-1.709-0.06c-0.092,0.482-0.131,1.025-0.131,1.508
				c0,2.484,0.904,4.439,4.193,4.439c3.789,0,5.178-2.025,5.369-3.766h1.156c0,0.23-0.029,0.452-0.061,0.674
				c-0.422,2.836-3.449,4.283-6.598,4.283C191.409,776.031,190.544,773.106,190.544,770.432z M193.952,767.927
				c6.668,0,8.467-2.132,8.467-3.963c0-1.508-1.156-2.664-3.742-2.664c-4.049,0-6.012,3.564-6.494,6.526
				C192.897,767.927,193.38,767.927,193.952,767.927z"/>
			<path fill="#FFFFFF" d="M219.335,766.83l-1.539,8.94h-1.389l1.52-8.688c0.482-2.7,0.703-5.853-3.41-5.853
				c-3.51,0-5.863,3.247-6.395,6.405l-1.398,8.136h-1.318l2.717-15.406h1.025c0.061,0.806-0.072,1.7-0.332,2.957h0.129
				c1.902-2.671,4.346-3.249,5.994-3.249C219.636,760.072,219.929,763.481,219.335,766.83z"/>
			<path fill="#FFFFFF" d="M232.015,771.104c0-1.83-1.738-2.343-3.801-2.755c-2.473-0.523-4.918-0.915-4.918-3.521
				c0-2.473,1.932-4.727,6.246-4.727c2.354,0,4.635,0.936,4.635,3.219c0,0.321-0.039,0.773-0.131,1.125h-1.156
				c0.252-2.412-1.389-3.188-3.57-3.188c-3.127,0-4.676,1.68-4.676,3.48c0,1.8,2.031,2.051,4.285,2.504
				c2.342,0.452,4.402,1.196,4.375,3.74c0,2.665-2.053,5.048-6.629,5.048c-2.865,0-5.018-1.096-5.018-3.64
				c0-0.383,0.059-0.896,0.223-1.348h1.094c-0.412,3.088,1.52,3.861,3.893,3.861C230.759,774.905,232.015,772.719,232.015,771.104z"
				/>
			<path fill="#FFFFFF" d="M257.597,769.888h-10.248l-3.135,5.883h-1.488l11.744-21.717h1.447l4.256,21.717h-1.42L257.597,769.888z
				 M254.853,755.858c-1.025,2.022-2.051,3.953-3.117,5.913l-3.732,6.889h9.424l-1.348-6.816c-0.354-1.933-0.674-3.934-1.025-5.985
				H254.853z"/>
			<path fill="#FFFFFF" d="M263.159,770.432c0-5.079,2.563-10.329,8.357-10.329c3.811,0,4.867,1.992,4.867,3.731
				c0,2.675-2.809,5.118-10.037,5.118c-0.494,0-1.127,0-1.711-0.06c-0.1,0.482-0.131,1.025-0.131,1.508
				c0,2.484,0.906,4.439,4.184,4.439c3.793,0,5.182-2.025,5.371-3.766h1.156c0,0.23-0.021,0.452-0.061,0.674
				c-0.412,2.836-3.439,4.283-6.598,4.283C264.013,776.031,263.159,773.106,263.159,770.432z M266.567,767.927
				c6.648,0,8.467-2.132,8.467-3.963c0-1.508-1.164-2.664-3.74-2.664c-4.053,0-6.012,3.564-6.498,6.526
				C265.511,767.927,265.993,767.927,266.567,767.927z M270.36,757.589l4.121-4.435l1.127,1.097l-4.697,3.921L270.36,757.589z"/>
			<path fill="#FFFFFF" d="M278.534,775.771l2.705-15.406h0.996c0,0.936-0.092,1.992-0.352,3.148h0.131
				c1.125-2.183,3.527-3.44,5.982-3.471l-0.131,1.419c-4.605,0.251-6.055,2.921-6.596,6.104c-0.484,2.735-0.967,5.477-1.418,8.206
				H278.534z"/>
			<path fill="#FFFFFF" d="M287.866,770.432c0-5.079,2.574-10.329,8.357-10.329c3.811,0,4.867,1.992,4.867,3.731
				c0,2.675-2.805,5.118-10.037,5.118c-0.49,0-1.125,0-1.709-0.06c-0.102,0.482-0.131,1.025-0.131,1.508
				c0,2.484,0.906,4.439,4.184,4.439c3.791,0,5.18-2.025,5.371-3.766h1.156c0,0.23-0.02,0.452-0.063,0.674
				c-0.412,2.836-3.447,4.283-6.586,4.283C288.722,776.031,287.866,773.106,287.866,770.432z M291.274,767.927
				c6.658,0,8.469-2.132,8.469-3.963c0-1.508-1.166-2.664-3.742-2.664c-4.053,0-6.012,3.564-6.494,6.526
				C290.21,767.927,290.692,767.927,291.274,767.927z"/>
			<path fill="#FFFFFF" d="M315.31,775.771h-1.025c-0.131-0.734,0.02-1.921,0.211-2.825h-0.15c-1.619,2.343-3.67,3.086-5.703,3.086
				c-3.762,0-5.139-2.251-5.139-5.339c0-5.667,2.816-10.59,7.975-10.59c2.285,0,3.953,0.774,4.727,2.635h0.131
				c0.16-1.025,0.352-1.86,0.674-2.373h0.994L315.31,775.771z M315.47,767.313c0.604-3.831-0.521-6.054-3.992-6.054
				c-3.801,0-6.627,3.671-6.627,9.333c0,2.544,1.117,4.248,4.174,4.248C312.794,774.84,314.948,771.235,315.47,767.313z"/>
			<path fill="#FFFFFF" d="M329.679,771.104c0-1.83-1.729-2.343-3.789-2.755c-2.484-0.523-4.928-0.915-4.928-3.521
				c0-2.473,1.932-4.727,6.244-4.727c2.354,0,4.635,0.936,4.635,3.219c0,0.321-0.029,0.773-0.129,1.125h-1.156
				c0.252-2.412-1.389-3.188-3.57-3.188c-3.119,0-4.666,1.68-4.666,3.48c0,1.8,2.021,2.051,4.273,2.504
				c2.352,0.452,4.414,1.196,4.375,3.74c0,2.665-2.051,5.048-6.627,5.048c-2.867,0-5.018-1.096-5.018-3.64
				c0-0.383,0.068-0.896,0.23-1.348h1.086c-0.412,3.088,1.52,3.861,3.893,3.861C328.433,774.905,329.679,772.719,329.679,771.104z"
				/>
			<path fill="#FFFFFF" d="M342.753,770.432c0-5.079,2.564-10.329,8.357-10.329c3.801,0,4.867,1.992,4.867,3.731
				c0,2.675-2.807,5.118-10.037,5.118c-0.494,0-1.137,0-1.711-0.06c-0.107,0.482-0.129,1.025-0.129,1.508
				c0,2.484,0.895,4.439,4.182,4.439c3.803,0,5.182-2.025,5.373-3.766h1.156c0,0.23-0.031,0.452-0.063,0.674
				c-0.42,2.836-3.447,4.283-6.596,4.283C343.618,776.031,342.753,773.106,342.753,770.432z M346.161,767.927
				c6.656,0,8.467-2.132,8.467-3.963c0-1.508-1.164-2.664-3.74-2.664c-4.053,0-6.012,3.564-6.494,6.526
				C345.095,767.927,345.579,767.927,346.161,767.927z"/>
			<path fill="#FFFFFF" d="M370.005,754.09h12.893l-0.223,1.252h-11.553l-1.449,8.301h10.779l-0.191,1.257h-10.809l-1.709,9.585
				h12.518l-0.189,1.286h-13.879L370.005,754.09z"/>
			<path fill="#FFFFFF" d="M396.442,766.83l-1.559,8.94h-1.367l1.508-8.688c0.482-2.7,0.705-5.853-3.42-5.853
				c-3.498,0-5.852,3.247-6.395,6.405l-1.379,8.136h-1.328l2.707-15.406h1.025c0.072,0.806-0.059,1.7-0.322,2.957h0.131
				c1.9-2.671,4.344-3.249,5.984-3.249C396.724,760.072,397.015,763.481,396.442,766.83z"/>
			<path fill="#FFFFFF" d="M398.274,778.928c0-0.291,0.027-0.422,0.129-0.773h1.156v0.352c0,1.608,1.287,2.676,4.184,2.735
				c3.119,0,5.41-1.479,6.275-5.692c0.191-0.995,0.453-2.281,0.834-3.51h-0.129c-1.289,2.284-3.279,3.963-6.086,3.963
				c-3.367,0-5.018-2.092-5.018-5.44c0-4.988,2.412-10.489,7.945-10.489c1.971,0,3.9,0.704,4.695,3.058h0.141
				c0.281-1.639,0.443-2.323,0.775-2.801h1.057l-2.967,15.512c-0.865,4.403-3.088,6.562-7.695,6.562
				C400.938,782.402,398.274,781.342,398.274,778.928z M411.618,766.67c0.35-2.604-0.443-5.44-3.953-5.44
				c-4.113,0-6.658,4.022-6.658,9.07c0,2.776,1.158,4.575,3.965,4.575C408.671,774.875,411.114,770.4,411.618,766.67z"/>
			<path fill="#FFFFFF" d="M416.284,770.432c0-5.079,2.572-10.329,8.365-10.329c3.801,0,4.869,1.992,4.869,3.731
				c0,2.675-2.807,5.118-10.047,5.118c-0.482,0-1.127,0-1.699-0.06c-0.102,0.482-0.131,1.025-0.131,1.508
				c0,2.484,0.904,4.439,4.184,4.439c3.789,0,5.168-2.025,5.369-3.766h1.156c0,0.23-0.031,0.452-0.07,0.674
				c-0.404,2.836-3.439,4.283-6.576,4.283C417.149,776.031,416.284,773.106,416.284,770.432z M419.702,767.927
				c6.646,0,8.469-2.132,8.469-3.963c0-1.508-1.178-2.664-3.742-2.664c-4.063,0-6.014,3.564-6.496,6.526
				C418.638,767.927,419.12,767.927,419.702,767.927z"/>
			<path fill="#FFFFFF" d="M445.083,766.83l-1.539,8.94h-1.387l1.51-8.688c0.482-2.7,0.703-5.853-3.41-5.853
				c-3.51,0-5.863,3.247-6.406,6.405l-1.377,8.136h-1.318l2.695-15.406h1.037c0.061,0.806-0.07,1.7-0.322,2.957h0.119
				c1.902-2.671,4.346-3.249,5.984-3.249C445.376,760.072,445.657,763.481,445.083,766.83z"/>
			<path fill="#FFFFFF" d="M450.646,763.451c1.227-1.99,3.539-3.349,6.014-3.349c4.695,0,5.086,3.219,4.475,6.789l-1.508,8.879
				h-1.389l1.479-8.336c0.553-2.988,0.713-6.176-3.471-6.176c-3.6,0-5.762,3.349-6.275,6.275l-1.416,8.236h-1.316l4.01-22.838h1.328
				l-1.285,7.14c-0.172,0.966-0.455,2.344-0.766,3.379H450.646z"/>
			<path fill="#FFFFFF" d="M475.905,775.771h-1.025c-0.141-0.734,0.02-1.921,0.221-2.825h-0.16c-1.607,2.343-3.67,3.086-5.691,3.086
				c-3.771,0-5.158-2.251-5.158-5.339c0-5.667,2.836-10.59,7.973-10.59c2.295,0,3.963,0.774,4.748,2.635h0.119
				c0.162-1.025,0.363-1.86,0.674-2.373h0.996L475.905,775.771z M476.058,767.313c0.613-3.831-0.514-6.054-3.994-6.054
				c-3.789,0-6.625,3.671-6.625,9.333c0,2.544,1.125,4.248,4.182,4.248C473.392,774.84,475.544,771.235,476.058,767.313z"/>
			<path fill="#FFFFFF" d="M480.11,775.771l2.703-15.406h0.998c0,0.936-0.092,1.992-0.352,3.148h0.129
				c1.127-2.183,3.541-3.44,5.982-3.471l-0.131,1.419c-4.596,0.251-6.043,2.921-6.596,6.104c-0.482,2.735-0.965,5.477-1.408,8.206
				H480.11z"/>
			<path fill="#FFFFFF" d="M492.599,760.364h1.316l-2.703,15.406h-1.318L492.599,760.364z M495.194,754.955
				c0,0.678-0.533,1.256-1.176,1.256c-0.555,0-0.836-0.353-0.836-0.869c0-0.68,0.572-1.252,1.217-1.252
				C494.882,754.09,495.194,754.473,495.194,754.955z"/>
			<path fill="#FFFFFF" d="M508.487,775.771h-1.025c-0.121-0.734,0.031-1.921,0.223-2.825h-0.162
				c-1.609,2.343-3.66,3.086-5.693,3.086c-3.758,0-5.146-2.251-5.146-5.339c0-5.667,2.824-10.59,7.975-10.59
				c2.281,0,3.973,0.774,4.734,2.635h0.123c0.17-1.025,0.361-1.86,0.684-2.373h0.996L508.487,775.771z M508.649,767.313
				c0.611-3.831-0.514-6.054-3.992-6.054c-3.793,0-6.617,3.671-6.617,9.333c0,2.544,1.115,4.248,4.184,4.248
				C505.985,774.84,508.136,771.235,508.649,767.313z"/>
		</g>
	</g>
	<g>
		<g>
			<path d="M-520.835,620.815c-11.758,0-22.396,5.924-28.592,15.687V623.46c0-1.458-1.197-2.645-2.664-2.645
				c-1.457,0-2.645,1.187-2.645,2.645v152.41c0,1.458,1.188,2.655,2.645,2.655c1.467,0,2.664-1.197,2.664-2.655v-69.688
				c6.195,9.765,16.834,15.693,28.592,15.693c18.684,0,33.877-15.205,33.877-33.895v-33.275
				C-486.958,636.02-502.151,620.815-520.835,620.815z M-520.835,716.57c-15.771,0-28.592-12.821-28.592-28.59v-33.275
				c0-15.769,12.82-28.59,28.592-28.59c15.756,0,28.588,12.821,28.588,28.59v33.275C-492.247,703.749-505.079,716.57-520.835,716.57
				z"/>
			<path d="M-463.165,566.101c-1.459,0-2.645,1.187-2.645,2.655v150.469c0,1.459,1.186,2.65,2.645,2.65
				c1.469,0,2.654-1.191,2.654-2.65V568.756C-460.511,567.287-461.696,566.101-463.165,566.101z"/>
			<path d="M-374.237,620.815c-1.459,0-2.656,1.187-2.656,2.645v13.042c-6.184-9.763-16.834-15.687-28.588-15.687
				c-18.684,0-33.891,15.204-33.891,33.89v33.275c0,18.689,15.207,33.895,33.891,33.895c11.754,0,22.404-5.929,28.588-15.693v13.043
				c0,1.459,1.197,2.65,2.656,2.65c1.469,0,2.654-1.191,2.654-2.65V623.46C-371.583,622.002-372.769,620.815-374.237,620.815z
				 M-405.481,716.57c-15.76,0-28.592-12.821-28.592-28.59v-33.275c0-15.769,12.832-28.59,28.592-28.59
				c15.768,0,28.588,12.821,28.588,28.59v33.275C-376.894,703.749-389.714,716.57-405.481,716.57z"/>
			<path d="M-311.94,620.815c-11.734,0-22.385,5.924-28.578,15.687V623.46c0-1.458-1.189-2.645-2.656-2.645
				c-1.457,0-2.654,1.187-2.654,2.645v95.765c0,1.459,1.197,2.65,2.654,2.65c1.467,0,2.656-1.191,2.656-2.65v-64.52
				c0-15.769,12.82-28.59,28.578-28.59c15.77,0,28.59,12.821,28.59,28.59v64.52c0,1.459,1.186,2.65,2.656,2.65
				c1.467,0,2.652-1.191,2.652-2.65v-64.52C-278.042,636.02-293.247,620.815-311.94,620.815z"/>
			<path d="M-196.396,620.815c-1.459,0-2.664,1.187-2.664,2.645v13.042c-6.174-9.763-16.824-15.687-28.57-15.687
				c-18.705,0-33.898,15.204-33.898,33.89v33.275c0,18.689,15.193,33.895,33.898,33.895c11.746,0,22.396-5.929,28.57-15.693v13.043
				c0,1.459,1.205,2.65,2.664,2.65c1.469,0,2.654-1.191,2.654-2.65V623.46C-193.741,622.002-194.927,620.815-196.396,620.815z
				 M-227.63,716.57c-15.768,0-28.59-12.821-28.59-28.59v-33.275c0-15.769,12.822-28.59,28.59-28.59
				c15.758,0,28.57,12.821,28.57,28.59v33.275C-199.06,703.749-211.872,716.57-227.63,716.57z"/>
			<path d="M-134.089,620.815c-11.754,0-22.393,5.924-28.588,15.687l0.041-125.107c0-17.468-14.16-31.677-31.617-31.758h-123.48
				c-1.367,0-2.533,1.037-2.674,2.399c-0.08,0.598-1.611,14.838,6.789,24.271c4.424,4.968,10.709,7.612,18.664,7.864
				c-0.041,4.696,0.732,14.325,6.947,21.298c4.625,5.22,11.283,7.864,19.762,7.895h6.111c-0.039,4.706,0.734,14.319,6.949,21.283
				c4.637,5.204,11.275,7.859,19.76,7.891h67.439v146.688c0,1.459,1.186,2.65,2.652,2.65c1.469,0,2.656-1.191,2.656-2.65v-64.52
				c0-15.769,12.82-28.59,28.588-28.59c15.77,0,28.57,12.821,28.57,28.59v64.52c0,1.459,1.207,2.65,2.666,2.65
				c1.469,0,2.645-1.191,2.645-2.65v-64.52C-100.208,636.02-115.403,620.815-134.089,620.815z M-256.712,543.363h42.729
				c1.498,0,2.715-1.217,2.715-2.716c0-1.487-1.217-2.704-2.715-2.704h-54.254c-6.867-0.021-12.158-2.062-15.717-6.054
				c-4.949-5.552-5.592-13.646-5.572-17.699h58.205c1.5,0,2.727-1.217,2.727-2.715c0-1.499-1.227-2.706-2.727-2.706h-62.527
				c-6.857-0.024-12.148-2.061-15.709-6.053c-4.947-5.541-5.6-13.616-5.572-17.669h120.734c14.523,0,26.328,11.826,26.328,26.347
				c0,0.221,0.041,0.393,0.082,0.373v55.349h-67.428c-6.857-0.021-12.148-2.062-15.719-6.054
				C-256.079,555.501-256.722,547.416-256.712,543.363z"/>
		</g>
		<g>
			<path d="M-483.981,754.09h1.367l-3.82,21.681h-1.348L-483.981,754.09z"/>
			<path d="M-468.253,763.934c1.359-2.442,3.48-3.861,6.105-3.861c4.635,0,4.936,3.44,4.281,7.01l-1.457,8.688h-1.336l1.447-8.648
				c0.543-3.027,0.412-5.893-3.119-5.893c-3.449,0-5.611,3.122-6.113,6.053l-1.518,8.488h-1.318l1.479-8.396
				c0.563-2.992,0.514-6.115-3.307-6.115c-3.51,0-5.543,3.249-6.047,6.176l-1.457,8.336h-1.316l2.693-15.406h1.025
				c0.053,0.806-0.02,1.7-0.279,2.957h0.119c1.779-2.736,4.074-3.219,5.713-3.219C-469.671,760.103-468.353,761.903-468.253,763.934
				z"/>
			<path d="M-443.013,775.771h-1.016c-0.129-0.734,0.031-1.921,0.223-2.825h-0.16c-1.619,2.343-3.672,3.086-5.693,3.086
				c-3.771,0-5.148-2.251-5.148-5.339c0-5.667,2.824-10.59,7.984-10.59c2.283,0,3.951,0.774,4.725,2.635h0.133
				c0.162-1.025,0.35-1.86,0.664-2.373h0.994L-443.013,775.771z M-442.829,767.313c0.592-3.831-0.525-6.054-3.994-6.054
				c-3.801,0-6.627,3.671-6.627,9.333c0,2.544,1.115,4.248,4.172,4.248C-445.517,774.84-443.354,771.235-442.829,767.313z"/>
			<path d="M-439.462,778.928c0-0.291,0.039-0.422,0.119-0.773h1.158v0.352c0,1.608,1.287,2.676,4.191,2.735
				c3.119,0,5.4-1.479,6.277-5.692c0.191-0.995,0.443-2.281,0.834-3.51h-0.131c-1.287,2.284-3.279,3.963-6.074,3.963
				c-3.389,0-5.027-2.092-5.027-5.44c0-4.988,2.414-10.489,7.953-10.489c1.951,0,3.873,0.704,4.697,3.058h0.131
				c0.291-1.639,0.441-2.323,0.754-2.801h1.076l-2.967,15.512c-0.865,4.403-3.088,6.562-7.684,6.562
				C-436.786,782.402-439.462,781.342-439.462,778.928z M-426.108,766.67c0.352-2.604-0.451-5.44-3.961-5.44
				c-4.123,0-6.656,4.022-6.656,9.07c0,2.776,1.156,4.575,3.949,4.575C-429.075,774.875-426.63,770.4-426.108,766.67z"/>
			<path d="M-421.452,770.432c0-5.079,2.576-10.329,8.367-10.329c3.791,0,4.855,1.992,4.855,3.731c0,2.675-2.793,5.118-10.035,5.118
				c-0.482,0-1.125,0-1.709-0.06c-0.09,0.482-0.143,1.025-0.143,1.508c0,2.484,0.918,4.439,4.205,4.439
				c3.791,0,5.18-2.025,5.371-3.766h1.154c0,0.23-0.029,0.452-0.061,0.674c-0.422,2.836-3.447,4.283-6.594,4.283
				C-420.575,776.031-421.452,773.106-421.452,770.432z M-418.042,767.927c6.666,0,8.467-2.132,8.467-3.963
				c0-1.508-1.156-2.664-3.732-2.664c-4.053,0-6.023,3.564-6.506,6.526C-419.099,767.927-418.616,767.927-418.042,767.927z"/>
			<path d="M-392.661,766.83l-1.539,8.94h-1.377l1.52-8.688c0.471-2.7,0.693-5.853-3.422-5.853c-3.498,0-5.852,3.247-6.395,6.405
				l-1.387,8.136h-1.328l2.715-15.406h1.025c0.061,0.806-0.068,1.7-0.332,2.957h0.141c1.891-2.671,4.336-3.249,5.984-3.249
				C-392.358,760.072-392.067,763.481-392.661,766.83z"/>
			<path d="M-379.979,771.104c0-1.83-1.74-2.343-3.803-2.755c-2.465-0.523-4.918-0.915-4.918-3.521c0-2.473,1.932-4.727,6.246-4.727
				c2.342,0,4.635,0.936,4.635,3.219c0,0.321-0.039,0.773-0.131,1.125h-1.156c0.252-2.412-1.385-3.188-3.578-3.188
				c-3.119,0-4.668,1.68-4.668,3.48c0,1.8,2.031,2.051,4.285,2.504c2.344,0.452,4.395,1.196,4.375,3.74
				c0,2.665-2.051,5.048-6.629,5.048c-2.875,0-5.018-1.096-5.018-3.64c0-0.383,0.063-0.896,0.223-1.348h1.096
				c-0.412,3.088,1.508,3.861,3.891,3.861C-381.249,774.905-379.979,772.719-379.979,771.104z"/>
			<path d="M-354.397,769.888h-10.246l-3.139,5.883h-1.488l11.746-21.717h1.449l4.252,21.717h-1.428L-354.397,769.888z
				 M-357.132,755.858c-1.037,2.022-2.063,3.953-3.129,5.913l-3.729,6.889h9.43l-1.355-6.816c-0.352-1.933-0.684-3.934-1.025-5.985
				H-357.132z"/>
			<path d="M-348.837,770.432c0-5.079,2.566-10.329,8.367-10.329c3.801,0,4.857,1.992,4.857,3.731c0,2.675-2.805,5.118-10.037,5.118
				c-0.49,0-1.125,0-1.709-0.06c-0.09,0.482-0.129,1.025-0.129,1.508c0,2.484,0.904,4.439,4.172,4.439
				c3.801,0,5.199-2.025,5.381-3.766h1.156c0,0.23-0.02,0.452-0.051,0.674c-0.422,2.836-3.449,4.283-6.605,4.283
				C-347.981,776.031-348.837,773.106-348.837,770.432z M-345.429,767.927c6.658,0,8.469-2.132,8.469-3.963
				c0-1.508-1.156-2.664-3.742-2.664c-4.053,0-6.012,3.564-6.494,6.526C-346.483,767.927-346.001,767.927-345.429,767.927z
				 M-341.636,757.589l4.123-4.435l1.127,1.097l-4.697,3.921L-341.636,757.589z"/>
			<path d="M-333.46,775.771l2.705-15.406h0.994c0,0.936-0.09,1.992-0.352,3.148h0.131c1.127-2.183,3.539-3.44,5.984-3.471
				l-0.131,1.419c-4.596,0.251-6.055,2.921-6.598,6.104c-0.492,2.735-0.965,5.477-1.428,8.206H-333.46z"/>
			<path d="M-324.128,770.432c0-5.079,2.572-10.329,8.355-10.329c3.813,0,4.867,1.992,4.867,3.731c0,2.675-2.795,5.118-10.035,5.118
				c-0.492,0-1.127,0-1.709-0.06c-0.092,0.482-0.131,1.025-0.131,1.508c0,2.484,0.904,4.439,4.184,4.439
				c3.781,0,5.178-2.025,5.369-3.766h1.166c0,0.23-0.029,0.452-0.061,0.674c-0.422,2.836-3.467,4.283-6.598,4.283
				C-323.274,776.031-324.128,773.106-324.128,770.432z M-320.72,767.927c6.658,0,8.467-2.132,8.467-3.963
				c0-1.508-1.166-2.664-3.74-2.664c-4.063,0-6.025,3.564-6.496,6.526C-321.786,767.927-321.304,767.927-320.72,767.927z"/>
			<path d="M-296.685,775.771h-1.025c-0.133-0.734,0.027-1.921,0.211-2.825h-0.16c-1.6,2.343-3.662,3.086-5.693,3.086
				c-3.76,0-5.139-2.251-5.139-5.339c0-5.667,2.826-10.59,7.973-10.59c2.273,0,3.953,0.774,4.727,2.635h0.123
				c0.172-1.025,0.361-1.86,0.693-2.373h0.994L-296.685,775.771z M-296.524,767.313c0.594-3.831-0.512-6.054-3.994-6.054
				c-3.789,0-6.625,3.671-6.625,9.333c0,2.544,1.125,4.248,4.172,4.248C-299.198,774.84-297.036,771.235-296.524,767.313z"/>
			<path d="M-282.306,771.104c0-1.83-1.738-2.343-3.801-2.755c-2.475-0.523-4.928-0.915-4.928-3.521
				c0-2.473,1.932-4.727,6.244-4.727c2.354,0,4.637,0.936,4.637,3.219c0,0.321-0.029,0.773-0.131,1.125h-1.156
				c0.252-2.412-1.387-3.188-3.57-3.188c-3.127,0-4.676,1.68-4.676,3.48c0,1.8,2.041,2.051,4.285,2.504
				c2.342,0.452,4.404,1.196,4.383,3.74c0,2.665-2.061,5.048-6.627,5.048c-2.885,0-5.027-1.096-5.027-3.64
				c0-0.383,0.07-0.896,0.23-1.348h1.098c-0.422,3.088,1.496,3.861,3.881,3.861C-283.571,774.905-282.306,772.719-282.306,771.104z"
				/>
			<path d="M-269.251,770.432c0-5.079,2.574-10.329,8.377-10.329c3.789,0,4.855,1.992,4.855,3.731c0,2.675-2.805,5.118-10.045,5.118
				c-0.482,0-1.137,0-1.699-0.06c-0.104,0.482-0.131,1.025-0.131,1.508c0,2.484,0.904,4.439,4.184,4.439
				c3.801,0,5.178-2.025,5.369-3.766h1.156c0,0.23-0.031,0.452-0.061,0.674c-0.412,2.836-3.449,4.283-6.607,4.283
				C-268.388,776.031-269.251,773.106-269.251,770.432z M-265.833,767.927c6.658,0,8.467-2.132,8.467-3.963
				c0-1.508-1.166-2.664-3.74-2.664c-4.053,0-6.014,3.564-6.508,6.526C-266.899,767.927-266.427,767.927-265.833,767.927z"/>
			<path d="M-241.989,754.09h12.891l-0.221,1.252h-11.545l-1.457,8.301h10.789l-0.199,1.257h-10.822l-1.699,9.585h12.521
				l-0.203,1.286h-13.857L-241.989,754.09z"/>
			<path d="M-215.552,766.83l-1.549,8.94h-1.379l1.5-8.688c0.49-2.7,0.713-5.853-3.4-5.853c-3.51,0-5.863,3.247-6.404,6.405
				l-1.377,8.136h-1.32l2.697-15.406h1.025c0.07,0.806-0.061,1.7-0.324,2.957h0.133c1.9-2.671,4.334-3.249,5.982-3.249
				C-215.28,760.072-214.979,763.481-215.552,766.83z"/>
			<path d="M-213.733,778.928c0-0.291,0.041-0.422,0.143-0.773h1.154v0.352c0,1.608,1.279,2.676,4.184,2.735
				c3.129,0,5.412-1.479,6.275-5.692c0.191-0.995,0.443-2.281,0.836-3.51h-0.131c-1.297,2.284-3.279,3.963-6.074,3.963
				c-3.379,0-5.027-2.092-5.027-5.44c0-4.988,2.414-10.489,7.955-10.489c1.959,0,3.889,0.704,4.695,3.058h0.131
				c0.279-1.639,0.441-2.323,0.773-2.801h1.057l-2.959,15.512c-0.873,4.403-3.096,6.562-7.691,6.562
				C-211.048,782.402-213.733,781.342-213.733,778.928z M-200.368,766.67c0.352-2.604-0.453-5.44-3.963-5.44
				c-4.113,0-6.654,4.022-6.654,9.07c0,2.776,1.154,4.575,3.949,4.575C-203.323,774.875-200.882,770.4-200.368,766.67z"/>
			<path d="M-195.712,770.432c0-5.079,2.574-10.329,8.377-10.329c3.793,0,4.857,1.992,4.857,3.731c0,2.675-2.807,5.118-10.047,5.118
				c-0.482,0-1.125,0-1.699-0.06c-0.1,0.482-0.131,1.025-0.131,1.508c0,2.484,0.904,4.439,4.184,4.439
				c3.793,0,5.178-2.025,5.369-3.766h1.168c0,0.23-0.051,0.452-0.07,0.674c-0.412,2.836-3.451,4.283-6.588,4.283
				C-194.847,776.031-195.712,773.106-195.712,770.432z M-192.294,767.927c6.658,0,8.469-2.132,8.469-3.963
				c0-1.508-1.168-2.664-3.742-2.664c-4.051,0-6.014,3.564-6.496,6.526C-193.358,767.927-192.888,767.927-192.294,767.927z"/>
			<path d="M-166.911,766.83l-1.537,8.94h-1.389l1.518-8.688c0.473-2.7,0.705-5.853-3.408-5.853c-3.521,0-5.871,3.247-6.416,6.405
				l-1.377,8.136h-1.318l2.695-15.406h1.035c0.061,0.806-0.07,1.7-0.33,2.957h0.139c1.891-2.671,4.346-3.249,5.984-3.249
				C-166.62,760.072-166.327,763.481-166.911,766.83z"/>
			<path d="M-161.349,763.451c1.225-1.99,3.539-3.349,6.012-3.349c4.688,0,5.09,3.219,4.477,6.789l-1.5,8.879h-1.396l1.467-8.336
				c0.564-2.988,0.727-6.176-3.459-6.176c-3.6,0-5.762,3.349-6.273,6.275l-1.428,8.236h-1.309l4.014-22.838h1.324l-1.275,7.14
				c-0.182,0.966-0.463,2.344-0.775,3.379H-161.349z"/>
			<path d="M-136.089,775.771h-1.025c-0.141-0.734,0.02-1.921,0.221-2.825h-0.162c-1.607,2.343-3.67,3.086-5.691,3.086
				c-3.77,0-5.146-2.251-5.146-5.339c0-5.667,2.824-10.59,7.973-10.59c2.295,0,3.941,0.774,4.736,2.635h0.123
				c0.16-1.025,0.359-1.86,0.674-2.373h0.984L-136.089,775.771z M-135.927,767.313c0.602-3.831-0.523-6.054-3.994-6.054
				c-3.801,0-6.625,3.671-6.625,9.333c0,2.544,1.113,4.248,4.172,4.248C-138.603,774.84-136.45,771.235-135.927,767.313z"/>
			<path d="M-131.874,775.771l2.703-15.406h0.986c0,0.936-0.092,1.992-0.352,3.148h0.129c1.127-2.183,3.541-3.44,5.986-3.471
				l-0.123,1.419c-4.604,0.251-6.053,2.921-6.605,6.104c-0.494,2.735-0.967,5.477-1.42,8.206H-131.874z"/>
			<path d="M-119.396,760.364h1.318l-2.707,15.406h-1.316L-119.396,760.364z M-116.792,754.955c0,0.678-0.543,1.256-1.186,1.256
				c-0.553,0-0.846-0.353-0.846-0.869c0-0.68,0.584-1.252,1.229-1.252C-117.112,754.09-116.792,754.473-116.792,754.955z"/>
			<path d="M-103.507,775.771h-1.016c-0.131-0.734,0.02-1.921,0.211-2.825h-0.15c-1.619,2.343-3.67,3.086-5.701,3.086
				c-3.762,0-5.15-2.251-5.15-5.339c0-5.667,2.826-10.59,7.975-10.59c2.293,0,3.961,0.774,4.738,2.635h0.129
				c0.162-1.025,0.354-1.86,0.674-2.373h0.996L-103.507,775.771z M-103.347,767.313c0.615-3.831-0.514-6.054-3.992-6.054
				c-3.791,0-6.617,3.671-6.617,9.333c0,2.544,1.117,4.248,4.184,4.248C-106.011,774.84-103.86,771.235-103.347,767.313z"/>
		</g>
	</g>
	<g>
		<g>
			<path fill="#00597E" d="M-520.847,1070.815c-11.756,0-22.383,5.928-28.588,15.693v-13.044c0-1.463-1.188-2.649-2.654-2.649
				c-1.471,0-2.646,1.187-2.646,2.649v152.405c0,1.465,1.176,2.66,2.646,2.66c1.467,0,2.654-1.195,2.654-2.66v-69.688
				c6.205,9.77,16.832,15.693,28.588,15.693c18.695,0,33.9-15.205,33.9-33.889v-33.281
				C-486.946,1086.016-502.151,1070.815-520.847,1070.815z M-520.847,1166.57c-15.758,0-28.588-12.816-28.588-28.584v-33.281
				c0-15.764,12.83-28.586,28.588-28.586c15.768,0,28.592,12.822,28.592,28.586v33.281
				C-492.255,1153.754-505.079,1166.57-520.847,1166.57z"/>
			<path fill="#00597E" d="M-463.173,1016.104c-1.459,0-2.645,1.187-2.645,2.651v150.469c0,1.464,1.186,2.65,2.645,2.65
				c1.467,0,2.652-1.187,2.652-2.65v-150.469C-460.521,1017.291-461.706,1016.104-463.173,1016.104z"/>
			<path fill="#00597E" d="M-374.249,1070.815c-1.457,0-2.645,1.187-2.645,2.649v13.044c-6.191-9.766-16.842-15.693-28.588-15.693
				c-18.684,0-33.898,15.2-33.898,33.89v33.281c0,18.684,15.215,33.889,33.898,33.889c11.746,0,22.396-5.924,28.588-15.693v13.043
				c0,1.464,1.188,2.65,2.645,2.65c1.471,0,2.656-1.187,2.656-2.65v-95.76C-371.593,1072.002-372.778,1070.815-374.249,1070.815z
				 M-405.481,1166.57c-15.768,0-28.59-12.816-28.59-28.584v-33.281c0-15.764,12.822-28.586,28.59-28.586
				c15.758,0,28.588,12.822,28.588,28.586v33.281C-376.894,1153.754-389.724,1166.57-405.481,1166.57z"/>
			<path fill="#00597E" d="M-311.94,1070.815c-11.746,0-22.393,5.928-28.588,15.693v-13.044c0-1.463-1.188-2.649-2.656-2.649
				c-1.459,0-2.656,1.187-2.656,2.649v95.76c0,1.464,1.197,2.65,2.656,2.65c1.469,0,2.656-1.187,2.656-2.65v-64.52
				c0-15.764,12.82-28.586,28.588-28.586c15.758,0,28.59,12.822,28.59,28.586v64.52c0,1.464,1.188,2.65,2.656,2.65
				c1.467,0,2.645-1.187,2.645-2.65v-64.52C-278.05,1086.016-293.255,1070.815-311.94,1070.815z"/>
			<path fill="#00597E" d="M-196.396,1070.815c-1.467,0-2.664,1.187-2.664,2.649v13.044c-6.186-9.766-16.834-15.693-28.58-15.693
				c-18.684,0-33.889,15.2-33.889,33.89v33.281c0,18.684,15.205,33.889,33.889,33.889c11.746,0,22.395-5.924,28.58-15.693v13.043
				c0,1.464,1.197,2.65,2.664,2.65c1.457,0,2.645-1.187,2.645-2.65v-95.76C-193.751,1072.002-194.938,1070.815-196.396,1070.815z
				 M-227.64,1166.57c-15.768,0-28.58-12.816-28.58-28.584v-33.281c0-15.764,12.813-28.586,28.58-28.586
				c15.76,0,28.58,12.822,28.58,28.586v33.281C-199.06,1153.754-211.88,1166.57-227.64,1166.57z"/>
			<path fill="#00597E" d="M-134.089,1070.815c-11.754,0-22.402,5.928-28.588,15.693l0.031-125.114
				c0-17.462-14.16-31.672-31.607-31.758h-123.479c-1.369,0-2.533,1.037-2.686,2.399c-0.07,0.603-1.6,14.842,6.799,24.275
				c4.414,4.967,10.697,7.607,18.664,7.853c-0.053,4.707,0.732,14.332,6.939,21.311c4.623,5.214,11.281,7.863,19.758,7.894h6.115
				c-0.029,4.707,0.744,14.314,6.947,21.278c4.639,5.21,11.285,7.859,19.762,7.895h67.447v146.684c0,1.464,1.186,2.65,2.652,2.65
				c1.459,0,2.656-1.187,2.656-2.65v-64.52c0-15.764,12.813-28.586,28.588-28.586c15.76,0,28.58,12.822,28.58,28.586v64.52
				c0,1.464,1.188,2.65,2.645,2.65c1.469,0,2.656-1.187,2.656-2.65v-64.52C-100.208,1086.016-115.413,1070.815-134.089,1070.815z
				 M-256.702,993.368h42.729c1.479,0,2.705-1.217,2.705-2.714c0-1.489-1.227-2.711-2.705-2.711h-54.271
				c-6.869-0.021-12.158-2.057-15.717-6.054c-4.949-5.552-5.592-13.651-5.572-17.694h58.213c1.5,0,2.717-1.217,2.717-2.715
				c0-1.499-1.217-2.711-2.717-2.711h-62.527c-6.857-0.024-12.148-2.057-15.717-6.053c-4.939-5.541-5.592-13.616-5.572-17.664
				h120.734c14.531,0,26.338,11.821,26.338,26.342c0,0.227,0.039,0.397,0.08,0.377v55.345h-67.438
				c-6.859-0.021-12.148-2.057-15.707-6.054C-256.087,1005.507-256.731,997.411-256.702,993.368z"/>
		</g>
		<g>
			<path fill="#00597E" d="M-483.991,1204.09h1.377l-3.818,21.685h-1.348L-483.991,1204.09z"/>
			<path fill="#00597E" d="M-468.263,1213.934c1.357-2.442,3.479-3.861,6.115-3.861c4.635,0,4.926,3.444,4.283,7.015l-1.447,8.688
				h-1.348l1.436-8.652c0.555-3.032,0.424-5.888-3.115-5.888c-3.439,0-5.602,3.117-6.115,6.048l-1.52,8.492h-1.305l1.477-8.396
				c0.555-2.996,0.514-6.113-3.318-6.113c-3.498,0-5.541,3.247-6.043,6.175l-1.449,8.335h-1.326l2.705-15.41h1.035
				c0.031,0.81-0.041,1.705-0.291,2.957h0.119c1.771-2.73,4.064-3.213,5.703-3.213
				C-469.679,1210.108-468.353,1211.908-468.263,1213.934z"/>
			<path fill="#00597E" d="M-443.001,1225.774h-1.037c-0.119-0.743,0.041-1.93,0.232-2.829h-0.16
				c-1.609,2.347-3.67,3.093-5.701,3.093c-3.762,0-5.15-2.254-5.15-5.341c0-5.672,2.836-10.589,7.984-10.589
				c2.283,0,3.963,0.764,4.727,2.635h0.131c0.172-1.026,0.361-1.871,0.686-2.379h0.984L-443.001,1225.774z M-442.841,1217.318
				c0.613-3.832-0.512-6.054-3.992-6.054c-3.791,0-6.627,3.671-6.627,9.332c0,2.544,1.125,4.243,4.184,4.243
				C-445.515,1224.84-443.353,1221.239-442.841,1217.318z"/>
			<path fill="#00597E" d="M-439.462,1228.934c0-0.293,0.031-0.423,0.121-0.775h1.158v0.353c0,1.609,1.285,2.671,4.182,2.735
				c3.117,0,5.4-1.484,6.273-5.691c0.191-0.996,0.455-2.283,0.836-3.51h-0.131c-1.287,2.282-3.277,3.962-6.074,3.962
				c-3.379,0-5.018-2.097-5.018-5.445c0-4.982,2.414-10.489,7.945-10.489c1.959,0,3.893,0.71,4.695,3.062h0.131
				c0.291-1.643,0.443-2.321,0.773-2.805h1.066l-2.965,15.518c-0.877,4.404-3.088,6.556-7.693,6.556
				C-436.798,1232.402-439.462,1231.347-439.462,1228.934z M-426.116,1216.674c0.352-2.614-0.443-5.439-3.953-5.439
				c-4.123,0-6.666,4.022-6.666,9.07c0,2.766,1.156,4.57,3.961,4.57C-429.073,1224.875-426.63,1220.4-426.116,1216.674z"/>
			<path fill="#00597E" d="M-421.45,1220.436c0-5.088,2.574-10.327,8.357-10.327c3.801,0,4.855,1.991,4.855,3.729
				c0,2.671-2.797,5.12-10.037,5.12c-0.471,0-1.115,0-1.699-0.061c-0.1,0.478-0.131,1.025-0.131,1.503
				c0,2.479,0.896,4.439,4.184,4.439c3.801,0,5.178-2.025,5.381-3.761h1.146c0,0.226-0.021,0.447-0.061,0.673
				c-0.424,2.832-3.439,4.286-6.586,4.286C-420.587,1226.038-421.45,1223.101-421.45,1220.436z M-418.042,1217.927
				c6.656,0,8.457-2.126,8.457-3.957c0-1.509-1.158-2.675-3.73-2.675c-4.053,0-6.014,3.569-6.496,6.536
				C-419.097,1217.927-418.626,1217.927-418.042,1217.927z"/>
			<path fill="#00597E" d="M-392.661,1216.835l-1.549,8.939h-1.377l1.518-8.688c0.482-2.705,0.693-5.853-3.418-5.853
				c-3.5,0-5.854,3.248-6.395,6.4l-1.389,8.14h-1.316l2.705-15.41h1.035c0.061,0.81-0.07,1.705-0.342,2.957h0.141
				c1.9-2.671,4.334-3.249,5.982-3.249C-392.37,1210.072-392.077,1213.486-392.661,1216.835z"/>
			<path fill="#00597E" d="M-379.989,1221.109c0-1.835-1.73-2.348-3.793-2.766c-2.473-0.513-4.916-0.904-4.916-3.509
				c0-2.475,1.932-4.727,6.234-4.727c2.354,0,4.637,0.936,4.637,3.213c0,0.327-0.031,0.769-0.121,1.131h-1.166
				c0.262-2.413-1.377-3.188-3.57-3.188c-3.129,0-4.668,1.674-4.668,3.469c0,1.811,2.023,2.063,4.287,2.515
				c2.342,0.451,4.404,1.191,4.363,3.73c0,2.676-2.053,5.06-6.627,5.06c-2.857,0-5.008-1.098-5.008-3.642
				c0-0.382,0.061-0.9,0.221-1.348h1.088c-0.414,3.088,1.516,3.862,3.9,3.862C-381.237,1224.911-379.989,1222.719-379.989,1221.109z
				"/>
			<path fill="#00597E" d="M-354.405,1219.883h-10.238l-3.148,5.892h-1.479l11.746-21.721h1.449l4.242,21.721h-1.406
				L-354.405,1219.883z M-357.142,1205.858c-1.025,2.028-2.051,3.958-3.127,5.92l-3.721,6.888h9.422l-1.348-6.818
				c-0.361-1.937-0.672-3.932-1.025-5.989H-357.142z"/>
			<path fill="#00597E" d="M-348.837,1220.436c0-5.088,2.566-10.327,8.357-10.327c3.801,0,4.857,1.991,4.857,3.729
				c0,2.671-2.795,5.12-10.035,5.12c-0.482,0-1.129,0-1.711-0.061c-0.09,0.478-0.119,1.025-0.119,1.503
				c0,2.479,0.893,4.439,4.172,4.439c3.801,0,5.189-2.025,5.381-3.761h1.156c0,0.226-0.031,0.447-0.061,0.673
				c-0.422,2.832-3.438,4.286-6.596,4.286C-347.979,1226.038-348.837,1223.101-348.837,1220.436z M-345.437,1217.927
				c6.656,0,8.467-2.126,8.467-3.957c0-1.509-1.156-2.675-3.73-2.675c-4.053,0-6.023,3.569-6.496,6.536
				C-346.491,1217.927-346.009,1217.927-345.437,1217.927z M-341.636,1207.594l4.123-4.444l1.117,1.102l-4.697,3.927
				L-341.636,1207.594z"/>
			<path fill="#00597E" d="M-333.46,1225.774l2.693-15.41h1.008c0,0.931-0.102,1.996-0.361,3.152h0.131
				c1.125-2.182,3.539-3.444,5.982-3.479l-0.121,1.424c-4.605,0.256-6.053,2.921-6.596,6.108c-0.494,2.735-0.977,5.472-1.428,8.205
				H-333.46z"/>
			<path fill="#00597E" d="M-324.128,1220.436c0-5.088,2.574-10.327,8.355-10.327c3.803,0,4.857,1.991,4.857,3.729
				c0,2.671-2.795,5.12-10.035,5.12c-0.482,0-1.125,0-1.711-0.061c-0.088,0.478-0.119,1.025-0.119,1.503
				c0,2.479,0.896,4.439,4.172,4.439c3.805,0,5.18-2.025,5.381-3.761h1.156c0,0.226-0.029,0.447-0.061,0.673
				c-0.422,2.832-3.449,4.286-6.596,4.286C-323.272,1226.038-324.128,1223.101-324.128,1220.436z M-320.728,1217.927
				c6.654,0,8.465-2.126,8.465-3.957c0-1.509-1.166-2.675-3.73-2.675c-4.053,0-6.023,3.569-6.496,6.536
				C-321.784,1217.927-321.313,1217.927-320.728,1217.927z"/>
			<path fill="#00597E" d="M-296.685,1225.774h-1.035c-0.123-0.743,0.029-1.93,0.221-2.829h-0.16
				c-1.611,2.347-3.662,3.093-5.693,3.093c-3.76,0-5.148-2.254-5.148-5.341c0-5.672,2.826-10.589,7.975-10.589
				c2.283,0,3.963,0.764,4.736,2.635h0.133c0.16-1.026,0.352-1.871,0.674-2.379h0.994L-296.685,1225.774z M-296.534,1217.318
				c0.613-3.832-0.512-6.054-3.992-6.054c-3.791,0-6.627,3.671-6.627,9.332c0,2.544,1.125,4.243,4.184,4.243
				C-299.198,1224.84-297.046,1221.239-296.534,1217.318z"/>
			<path fill="#00597E" d="M-282.313,1221.109c0-1.835-1.73-2.348-3.791-2.766c-2.484-0.513-4.93-0.904-4.93-3.509
				c0-2.475,1.932-4.727,6.234-4.727c2.354,0,4.639,0.936,4.639,3.213c0,0.327-0.02,0.769-0.123,1.131h-1.164
				c0.26-2.413-1.379-3.188-3.57-3.188c-3.119,0-4.656,1.674-4.656,3.469c0,1.811,2.02,2.063,4.273,2.515
				c2.354,0.451,4.414,1.191,4.375,3.73c0,2.676-2.063,5.06-6.629,5.06c-2.865,0-5.018-1.098-5.018-3.642
				c0-0.382,0.061-0.9,0.23-1.348h1.088c-0.422,3.088,1.508,3.862,3.891,3.862C-283.571,1224.911-282.313,1222.719-282.313,1221.109
				z"/>
			<path fill="#00597E" d="M-269.251,1220.436c0-5.088,2.574-10.327,8.365-10.327c3.793,0,4.857,1.991,4.857,3.729
				c0,2.671-2.795,5.12-10.035,5.12c-0.492,0-1.137,0-1.711-0.061c-0.1,0.478-0.129,1.025-0.129,1.503
				c0,2.479,0.904,4.439,4.182,4.439c3.801,0,5.189-2.025,5.381-3.761h1.156c0,0.226-0.039,0.447-0.061,0.673
				c-0.422,2.832-3.449,4.286-6.605,4.286C-268.378,1226.038-269.251,1223.101-269.251,1220.436z M-265.841,1217.927
				c6.666,0,8.465-2.126,8.465-3.957c0-1.509-1.156-2.675-3.73-2.675c-4.053,0-6.023,3.569-6.506,6.536
				C-266.909,1217.927-266.427,1217.927-265.841,1217.927z"/>
			<path fill="#00597E" d="M-241.999,1204.09h12.893l-0.221,1.252h-11.547l-1.447,8.307h10.781l-0.203,1.251h-10.799l-1.711,9.589
				h12.51l-0.18,1.286H-245.8L-241.999,1204.09z"/>
			<path fill="#00597E" d="M-215.552,1216.835l-1.559,8.939h-1.367l1.508-8.688c0.482-2.705,0.703-5.853-3.418-5.853
				c-3.502,0-5.855,3.248-6.396,6.4l-1.377,8.14h-1.328l2.705-15.41h1.027c0.059,0.81-0.063,1.705-0.324,2.957h0.133
				c1.891-2.671,4.344-3.249,5.982-3.249C-215.271,1210.072-214.979,1213.486-215.552,1216.835z"/>
			<path fill="#00597E" d="M-213.731,1228.934c0-0.293,0.041-0.423,0.129-0.775h1.168v0.353c0,1.609,1.289,2.671,4.174,2.735
				c3.127,0,5.408-1.484,6.273-5.691c0.191-0.996,0.463-2.283,0.838-3.51h-0.133c-1.287,2.282-3.277,3.962-6.074,3.962
				c-3.379,0-5.018-2.097-5.018-5.445c0-4.982,2.404-10.489,7.945-10.489c1.971,0,3.9,0.71,4.695,3.062h0.141
				c0.281-1.643,0.441-2.321,0.773-2.805h1.057l-2.967,15.518c-0.863,4.404-3.088,6.556-7.691,6.556
				C-211.058,1232.402-213.731,1231.347-213.731,1228.934z M-200.376,1216.674c0.352-2.614-0.443-5.439-3.963-5.439
				c-4.104,0-6.646,4.022-6.646,9.07c0,2.766,1.145,4.57,3.951,4.57C-203.335,1224.875-200.88,1220.4-200.376,1216.674z"/>
			<path fill="#00597E" d="M-195.712,1220.436c0-5.088,2.576-10.327,8.367-10.327c3.791,0,4.857,1.991,4.857,3.729
				c0,2.671-2.795,5.12-10.047,5.12c-0.471,0-1.125,0-1.699-0.061c-0.09,0.478-0.131,1.025-0.131,1.503
				c0,2.479,0.906,4.439,4.184,4.439c3.803,0,5.18-2.025,5.381-3.761h1.156c0,0.226-0.031,0.447-0.07,0.673
				c-0.412,2.832-3.439,4.286-6.586,4.286C-194.847,1226.038-195.712,1223.101-195.712,1220.436z M-192.302,1217.927
				c6.656,0,8.467-2.126,8.467-3.957c0-1.509-1.166-2.675-3.732-2.675c-4.061,0-6.021,3.569-6.494,6.536
				C-193.358,1217.927-192.886,1217.927-192.302,1217.927z"/>
			<path fill="#00597E" d="M-166.909,1216.835l-1.551,8.939h-1.377l1.508-8.688c0.482-2.705,0.705-5.853-3.408-5.853
				c-3.51,0-5.861,3.248-6.416,6.4l-1.367,8.14h-1.326l2.693-15.41h1.045c0.061,0.81-0.068,1.705-0.33,2.957h0.131
				c1.898-2.671,4.344-3.249,5.982-3.249C-166.618,1210.072-166.337,1213.486-166.909,1216.835z"/>
			<path fill="#00597E" d="M-161.36,1213.447c1.229-1.986,3.551-3.339,6.023-3.339c4.697,0,5.09,3.213,4.467,6.787l-1.5,8.879
				h-1.387l1.479-8.335c0.543-2.987,0.703-6.175-3.471-6.175c-3.609,0-5.76,3.35-6.273,6.274l-1.42,8.235h-1.326l4.023-22.847h1.316
				l-1.277,7.145c-0.172,0.972-0.451,2.35-0.773,3.375H-161.36z"/>
			<path fill="#00597E" d="M-136.087,1225.774h-1.037c-0.131-0.743,0.031-1.93,0.223-2.829h-0.162
				c-1.6,2.347-3.66,3.093-5.693,3.093c-3.77,0-5.146-2.254-5.146-5.341c0-5.672,2.834-10.589,7.975-10.589
				c2.293,0,3.961,0.764,4.734,2.635h0.121c0.172-1.026,0.363-1.871,0.686-2.379h0.994L-136.087,1225.774z M-135.937,1217.318
				c0.611-3.832-0.514-6.054-3.992-6.054c-3.793,0-6.629,3.671-6.629,9.332c0,2.544,1.127,4.243,4.184,4.243
				C-138.601,1224.84-136.45,1221.239-135.937,1217.318z"/>
			<path fill="#00597E" d="M-131.884,1225.774l2.705-15.41h0.994c0,0.931-0.09,1.996-0.361,3.152h0.141
				c1.125-2.182,3.539-3.444,5.984-3.479l-0.133,1.424c-4.605,0.256-6.053,2.921-6.596,6.108c-0.482,2.735-0.967,5.472-1.408,8.205
				H-131.884z"/>
			<path fill="#00597E" d="M-119.405,1210.364h1.328l-2.705,15.41h-1.328L-119.405,1210.364z M-116.802,1204.959
				c0,0.674-0.541,1.252-1.186,1.252c-0.541,0-0.836-0.353-0.836-0.869c0-0.674,0.586-1.252,1.229-1.252
				C-117.124,1204.09-116.802,1204.477-116.802,1204.959z"/>
			<path fill="#00597E" d="M-103.507,1225.774h-1.025c-0.131-0.743,0.029-1.93,0.211-2.829h-0.15
				c-1.619,2.347-3.67,3.093-5.701,3.093c-3.762,0-5.141-2.254-5.141-5.341c0-5.672,2.828-10.589,7.975-10.589
				c2.285,0,3.963,0.764,4.727,2.635h0.131c0.16-1.026,0.363-1.871,0.686-2.379h0.994L-103.507,1225.774z M-103.347,1217.318
				c0.605-3.832-0.512-6.054-3.992-6.054c-3.791,0-6.615,3.671-6.615,9.332c0,2.544,1.117,4.243,4.174,4.243
				C-106.021,1224.84-103.858,1221.239-103.347,1217.318z"/>
		</g>
	</g>
	<g>
		<path fill="#4FC6E0" d="M1055.831,488.623c0-0.113,0.07-0.215,0.07-0.348c0.363-35.049-27.395-57.523-58.246-57.523l-0.016,0.012
			c0,0,2.223-1.574,2.223-0.012H773.37c-1.605,0-2.938,1.191-3.141,2.795c-0.129,1.055-2.805,27.762,11.914,44.291
			c8.039,9.043,19.633,13.656,34.441,13.742c-0.277,7.586,0.426,26.166,12.125,39.314c8.086,9.08,19.734,13.705,34.641,13.744
			h12.926c-0.273,7.598,0.445,26.158,12.141,39.318c8.063,9.072,19.695,13.701,34.625,13.742h129.59
			c1.754,0,3.191-1.389,3.191-3.143c0-0.045,0-0.125,0.008-0.166V488.623z"/>
		<path fill="#FFFFFF" d="M1060.968,482.414c0-31.76-25.746-57.596-57.496-57.754H778.929c-2.504,0-4.629,1.883-4.879,4.367
			c-0.129,1.094-2.906,26.99,12.344,44.133c8.055,9.045,19.453,13.848,33.938,14.299c-0.063,8.547,1.344,26.059,12.637,38.744
			c8.418,9.484,20.504,14.305,35.941,14.344h11.117c-0.074,8.564,1.332,26.045,12.625,38.717
			c8.418,9.469,20.512,14.287,35.949,14.348c0,0,104.199,0.154,127.805,0.08c0,0,0-0.004-0.012-0.012h0.02l-0.008,0.012
			c2.453,0,4.473-1.986,4.523-4.441c0,0.008,0,0.008,0,0.008L1060.968,482.414z M1051.233,583.748H928.601
			c-12.473-0.037-22.094-3.74-28.566-11.012c-9-10.105-10.172-24.813-10.129-32.189h77.707c2.699,0,4.918-2.201,4.918-4.928
			c0-2.715-2.219-4.924-4.918-4.924h-98.688c-12.488-0.035-22.109-3.744-28.582-11.016c-9-10.094-10.172-24.813-10.148-32.18
			h105.887c2.699,0,4.914-2.213,4.914-4.932s-2.215-4.924-4.914-4.924H822.343c-12.465-0.045-22.094-3.74-28.559-11.016
			c-8.996-10.074-10.191-24.758-10.137-32.121h219.566c26.402,0,47.898,21.498,47.898,47.906c0,0.412,0.047,0.711,0.121,0.68
			V583.748z"/>
	</g>
	<g>
		<path fill="#4FC6E0" d="M1055.834,136.623c0-0.113,0.063-0.215,0.063-0.348c0.371-35.049-27.387-57.523-58.246-57.523
			l-0.016,0.012c0,0,2.23-1.574,2.23-0.012H773.373c-1.613,0-2.938,1.191-3.148,2.795c-0.129,1.055-2.797,27.762,11.922,44.291
			c8.031,9.043,19.633,13.656,34.434,13.742c-0.277,7.586,0.434,26.166,12.133,39.314c8.078,9.08,19.727,13.705,34.641,13.744
			h12.926c-0.273,7.598,0.438,26.158,12.133,39.318c8.063,9.072,19.695,13.701,34.625,13.742h129.598
			c1.742,0,3.184-1.389,3.184-3.143c0-0.045,0-0.125,0.016-0.166V136.623z"/>
		<path fill="#00597E" d="M1060.971,130.414c0-31.76-25.754-57.596-57.504-57.754H778.932c-2.504,0-4.637,1.883-4.879,4.367
			c-0.129,1.094-2.906,26.99,12.344,44.133c8.047,9.045,19.453,13.848,33.93,14.299c-0.063,8.547,1.344,26.059,12.637,38.744
			c8.418,9.484,20.504,14.305,35.949,14.344h11.117c-0.082,8.564,1.324,26.045,12.617,38.717
			c8.418,9.469,20.52,14.287,35.949,14.348c0,0,104.195,0.154,127.801,0.08c0,0,0-0.004,0-0.012h0.02l-0.02,0.012
			c2.457,0,4.477-1.986,4.527-4.441c0,0.008,0,0.008,0,0.008L1060.971,130.414z M1051.229,231.748H928.596
			c-12.473-0.037-22.086-3.74-28.566-11.012c-9-10.105-10.164-24.813-10.129-32.189h77.715c2.699,0,4.91-2.201,4.91-4.928
			c0-2.715-2.211-4.924-4.91-4.924h-98.688c-12.488-0.035-22.121-3.744-28.582-11.016c-9-10.094-10.18-24.813-10.148-32.18h105.879
			c2.699,0,4.91-2.213,4.91-4.932s-2.211-4.924-4.91-4.924h-113.73c-12.473-0.045-22.102-3.74-28.566-11.016
			c-8.996-10.074-10.195-24.758-10.129-32.121h219.559c26.402,0,47.906,21.498,47.906,47.906c0,0.412,0.047,0.711,0.113,0.68
			V231.748z"/>
	</g>
</g>
</svg>
