<?xml version="1.0" encoding="utf-8"?>
<!-- Generator: Adobe Illustrator 16.0.0, SVG Export Plug-In . SVG Version: 6.00 Build 0)  -->
<!DOCTYPE svg PUBLIC "-//W3C//DTD SVG 1.1//EN" "http://www.w3.org/Graphics/SVG/1.1/DTD/svg11.dtd">
<svg version="1.1" xmlns="http://www.w3.org/2000/svg" xmlns:xlink="http://www.w3.org/1999/xlink" x="0px" y="0px" width="402px"
	 height="290px" viewBox="0 0 402 290" enable-background="new 0 0 402 290" xml:space="preserve">
<g id="circles">
</g>
<g id="icons">
	<g>
		<path fill="#4FC6E0" d="M-271.93,64.629c0.008-0.06,0.039-0.116,0.039-0.191c0.201-19.271-15.064-31.632-32.029-31.632
			l-0.008,0.006c0,0,1.225-0.865,1.225-0.006h-124.545c-0.885,0-1.619,0.659-1.73,1.539c-0.07,0.578-1.539,15.261,6.559,24.351
			c4.414,4.979,10.789,7.513,18.936,7.563c-0.152,4.164,0.23,14.386,6.666,21.622c4.445,4.987,10.852,7.531,19.047,7.551h7.109
			c-0.15,4.179,0.24,14.386,6.678,21.621c4.434,4.988,10.83,7.532,19.035,7.557h71.258c0.965,0,1.742-0.778,1.742-1.734
			c0-0.03-1.27-0.05-1.27-0.069c0,0,1.277-0.011,1.289-0.011V64.629z"/>
		<g>
			<path fill="#FFFFFF" d="M-627.305,170.636c-11.754,0-22.395,5.928-28.59,15.693v-13.044c0-1.463-1.197-2.649-2.654-2.649
				c-1.467,0-2.656,1.187-2.656,2.649V325.69c0,1.465,1.189,2.66,2.656,2.66c1.457,0,2.654-1.195,2.654-2.66v-69.688
				c6.195,9.77,16.836,15.693,28.59,15.693c18.686,0,33.891-15.205,33.891-33.889v-33.281
				C-593.414,185.836-608.619,170.636-627.305,170.636z M-627.305,266.391c-15.768,0-28.59-12.816-28.59-28.584v-33.281
				c0-15.764,12.822-28.586,28.59-28.586c15.758,0,28.58,12.822,28.58,28.586v33.281
				C-598.725,253.574-611.547,266.391-627.305,266.391z"/>
			<path fill="#FFFFFF" d="M-569.633,115.925c-1.459,0-2.645,1.187-2.645,2.651v150.469c0,1.464,1.186,2.65,2.645,2.65
				c1.469,0,2.656-1.187,2.656-2.65V118.576C-566.977,117.111-568.164,115.925-569.633,115.925z"/>
			<path fill="#FFFFFF" d="M-480.705,170.636c-1.459,0-2.656,1.187-2.656,2.649v13.044c-6.195-9.766-16.834-15.693-28.59-15.693
				c-18.684,0-33.889,15.2-33.889,33.89v33.281c0,18.684,15.205,33.889,33.889,33.889c11.756,0,22.395-5.924,28.59-15.693v13.043
				c0,1.464,1.197,2.65,2.656,2.65c1.467,0,2.652-1.187,2.652-2.65v-95.76C-478.053,171.822-479.238,170.636-480.705,170.636z
				 M-511.951,266.391c-15.758,0-28.59-12.816-28.59-28.584v-33.281c0-15.764,12.832-28.586,28.59-28.586s28.59,12.822,28.59,28.586
				v33.281C-483.361,253.574-496.193,266.391-511.951,266.391z"/>
			<path fill="#FFFFFF" d="M-418.408,170.636c-11.746,0-22.385,5.928-28.59,15.693v-13.044c0-1.463-1.178-2.649-2.645-2.649
				c-1.469,0-2.654,1.187-2.654,2.649v95.76c0,1.464,1.186,2.65,2.654,2.65c1.467,0,2.645-1.187,2.645-2.65v-64.52
				c0-15.764,12.832-28.586,28.59-28.586c15.768,0,28.59,12.822,28.59,28.586v64.52c0,1.464,1.188,2.65,2.654,2.65
				c1.469,0,2.654-1.187,2.654-2.65v-64.52C-384.51,185.836-399.715,170.636-418.408,170.636z"/>
			<path fill="#FFFFFF" d="M-302.854,170.636c-1.469,0-2.666,1.187-2.666,2.649v13.044c-6.193-9.766-16.832-15.693-28.578-15.693
				c-18.693,0-33.898,15.2-33.898,33.89v33.281c0,18.684,15.205,33.889,33.898,33.889c11.746,0,22.385-5.924,28.578-15.693v13.043
				c0,1.464,1.197,2.65,2.666,2.65c1.459,0,2.635-1.187,2.635-2.65v-95.76C-300.219,171.822-301.395,170.636-302.854,170.636z
				 M-334.098,266.391c-15.77,0-28.59-12.816-28.59-28.584v-33.281c0-15.764,12.82-28.586,28.59-28.586
				c15.746,0,28.578,12.822,28.578,28.586v33.281C-305.52,253.574-318.352,266.391-334.098,266.391z"/>
			<path fill="#FFFFFF" d="M-240.557,170.636c-11.756,0-22.395,5.928-28.588,15.693l0.039-125.114
				c0-17.462-14.16-31.672-31.615-31.758h-123.471c-1.377,0-2.545,1.037-2.684,2.399c-0.072,0.603-1.6,14.842,6.787,24.275
				c4.424,4.967,10.699,7.607,18.664,7.853c-0.039,4.707,0.734,14.332,6.949,21.311c4.627,5.214,11.273,7.863,19.76,7.894h6.115
				c-0.043,4.707,0.734,14.314,6.938,21.278c4.635,5.21,11.283,7.859,19.77,7.895h67.447v146.684c0,1.464,1.176,2.65,2.645,2.65
				c1.459,0,2.656-1.187,2.656-2.65v-64.52c0-15.764,12.82-28.586,28.588-28.586c15.76,0,28.58,12.822,28.58,28.586v64.52
				c0,1.464,1.197,2.65,2.656,2.65c1.467,0,2.652-1.187,2.652-2.65v-64.52C-206.668,185.836-221.873,170.636-240.557,170.636z
				 M-363.17,93.188h42.729c1.488,0,2.705-1.217,2.705-2.714c0-1.489-1.217-2.711-2.705-2.711h-54.264
				c-6.869-0.021-12.158-2.057-15.717-6.054c-4.949-5.552-5.592-13.651-5.58-17.694h58.225c1.488,0,2.705-1.217,2.705-2.715
				c0-1.499-1.217-2.711-2.705-2.711h-62.541c-6.857-0.024-12.146-2.057-15.707-6.053c-4.947-5.541-5.602-13.616-5.57-17.664
				h120.732c14.521,0,26.338,11.821,26.338,26.342c0,0.227,0.031,0.397,0.08,0.377v55.345h-67.447
				c-6.857-0.021-12.146-2.057-15.705-6.054C-362.547,105.327-363.189,97.231-363.17,93.188z"/>
		</g>
		<g>
			<path fill="#FFFFFF" d="M-590.449,303.91h1.367l-3.82,21.685h-1.348L-590.449,303.91z"/>
			<path fill="#FFFFFF" d="M-574.723,313.754c1.35-2.442,3.471-3.861,6.105-3.861c4.637,0,4.928,3.444,4.285,7.015l-1.451,8.688
				h-1.346l1.449-8.652c0.543-3.032,0.41-5.888-3.119-5.888c-3.447,0-5.611,3.117-6.113,6.048l-1.518,8.492h-1.316l1.477-8.396
				c0.553-2.996,0.514-6.113-3.318-6.113c-3.5,0-5.533,3.247-6.045,6.175l-1.447,8.335h-1.316l2.705-15.41h1.025
				c0.031,0.81-0.031,1.705-0.293,2.957h0.133c1.768-2.73,4.061-3.213,5.701-3.213
				C-576.139,309.929-574.822,311.729-574.723,313.754z"/>
			<path fill="#FFFFFF" d="M-549.469,325.595h-1.025c-0.133-0.743,0.027-1.93,0.219-2.829h-0.15
				c-1.619,2.347-3.682,3.093-5.701,3.093c-3.771,0-5.148-2.254-5.148-5.341c0-5.672,2.824-10.589,7.973-10.589
				c2.295,0,3.965,0.764,4.738,2.635h0.129c0.162-1.026,0.354-1.871,0.674-2.379h0.986L-549.469,325.595z M-549.309,317.139
				c0.613-3.832-0.512-6.054-3.994-6.054c-3.789,0-6.625,3.671-6.625,9.332c0,2.544,1.125,4.243,4.184,4.243
				C-551.984,324.66-549.82,321.06-549.309,317.139z"/>
			<path fill="#FFFFFF" d="M-545.93,328.754c0-0.293,0.029-0.423,0.131-0.775h1.145v0.353c0,1.609,1.289,2.671,4.195,2.735
				c3.117,0,5.398-1.484,6.275-5.691c0.191-0.996,0.441-2.283,0.834-3.51h-0.131c-1.289,2.282-3.279,3.962-6.084,3.962
				c-3.379,0-5.018-2.097-5.018-5.445c0-4.982,2.412-10.489,7.953-10.489c1.951,0,3.881,0.71,4.695,3.062h0.123
				c0.291-1.643,0.451-2.321,0.773-2.805h1.066l-2.957,15.518c-0.885,4.404-3.098,6.556-7.693,6.556
				C-543.266,332.223-545.93,331.167-545.93,328.754z M-532.576,316.494c0.352-2.614-0.451-5.439-3.961-5.439
				c-4.125,0-6.668,4.022-6.668,9.07c0,2.766,1.166,4.57,3.963,4.57C-535.543,324.695-533.1,320.221-532.576,316.494z"/>
			<path fill="#FFFFFF" d="M-527.92,320.256c0-5.088,2.574-10.327,8.367-10.327c3.801,0,4.857,1.991,4.857,3.729
				c0,2.671-2.795,5.12-10.035,5.12c-0.482,0-1.129,0-1.711-0.061c-0.092,0.478-0.131,1.025-0.131,1.503
				c0,2.479,0.904,4.439,4.195,4.439c3.789,0,5.178-2.025,5.369-3.761h1.156c0,0.226-0.031,0.447-0.063,0.673
				c-0.42,2.832-3.447,4.286-6.596,4.286C-527.055,325.858-527.92,322.921-527.92,320.256z M-524.512,317.747
				c6.668,0,8.469-2.126,8.469-3.957c0-1.509-1.156-2.675-3.742-2.675c-4.051,0-6.014,3.569-6.496,6.536
				C-525.566,317.747-525.084,317.747-524.512,317.747z"/>
			<path fill="#FFFFFF" d="M-499.129,316.655l-1.539,8.939h-1.387l1.518-8.688c0.482-2.705,0.705-5.853-3.408-5.853
				c-3.51,0-5.863,3.248-6.396,6.4l-1.396,8.14h-1.32l2.717-15.41h1.025c0.061,0.81-0.07,1.705-0.332,2.957h0.131
				c1.9-2.671,4.344-3.249,5.992-3.249C-498.826,309.893-498.535,313.307-499.129,316.655z"/>
			<path fill="#FFFFFF" d="M-486.449,320.93c0-1.835-1.738-2.348-3.801-2.766c-2.473-0.513-4.918-0.904-4.918-3.509
				c0-2.475,1.934-4.727,6.246-4.727c2.354,0,4.635,0.936,4.635,3.213c0,0.327-0.039,0.769-0.131,1.131h-1.154
				c0.252-2.413-1.389-3.188-3.57-3.188c-3.127,0-4.678,1.674-4.678,3.469c0,1.811,2.033,2.063,4.285,2.515
				c2.344,0.451,4.402,1.191,4.375,3.73c0,2.676-2.051,5.06-6.627,5.06c-2.867,0-5.018-1.098-5.018-3.642
				c0-0.382,0.059-0.9,0.221-1.348h1.096c-0.414,3.088,1.518,3.862,3.891,3.862C-487.705,324.731-486.449,322.539-486.449,320.93z"
				/>
			<path fill="#FFFFFF" d="M-460.865,319.703h-10.248l-3.137,5.892h-1.488l11.746-21.721h1.447l4.254,21.721h-1.418
				L-460.865,319.703z M-463.609,305.679c-1.027,2.028-2.053,3.958-3.119,5.92l-3.73,6.888h9.422l-1.348-6.818
				c-0.352-1.937-0.674-3.932-1.025-5.989H-463.609z"/>
			<path fill="#FFFFFF" d="M-455.305,320.256c0-5.088,2.564-10.327,8.357-10.327c3.811,0,4.867,1.991,4.867,3.729
				c0,2.671-2.807,5.12-10.037,5.12c-0.492,0-1.125,0-1.711-0.061c-0.1,0.478-0.129,1.025-0.129,1.503
				c0,2.479,0.906,4.439,4.182,4.439c3.793,0,5.182-2.025,5.373-3.761h1.156c0,0.226-0.021,0.447-0.061,0.673
				c-0.414,2.832-3.441,4.286-6.598,4.286C-454.451,325.858-455.305,322.921-455.305,320.256z M-451.895,317.747
				c6.646,0,8.465-2.126,8.465-3.957c0-1.509-1.164-2.675-3.74-2.675c-4.053,0-6.012,3.569-6.496,6.536
				C-452.951,317.747-452.469,317.747-451.895,317.747z M-448.104,307.414l4.123-4.444l1.125,1.102l-4.695,3.927L-448.104,307.414z"
				/>
			<path fill="#FFFFFF" d="M-439.928,325.595l2.705-15.41h0.994c0,0.931-0.09,1.996-0.352,3.152h0.131
				c1.125-2.182,3.529-3.444,5.982-3.479l-0.131,1.424c-4.604,0.256-6.055,2.921-6.596,6.108c-0.484,2.735-0.967,5.472-1.418,8.205
				H-439.928z"/>
			<path fill="#FFFFFF" d="M-430.598,320.256c0-5.088,2.576-10.327,8.357-10.327c3.813,0,4.867,1.991,4.867,3.729
				c0,2.671-2.805,5.12-10.037,5.12c-0.49,0-1.125,0-1.707-0.061c-0.102,0.478-0.133,1.025-0.133,1.503
				c0,2.479,0.906,4.439,4.186,4.439c3.789,0,5.178-2.025,5.369-3.761h1.156c0,0.226-0.02,0.447-0.061,0.673
				c-0.414,2.832-3.449,4.286-6.586,4.286C-429.74,325.858-430.598,322.921-430.598,320.256z M-427.188,317.747
				c6.658,0,8.469-2.126,8.469-3.957c0-1.509-1.168-2.675-3.742-2.675c-4.053,0-6.014,3.569-6.496,6.536
				C-428.252,317.747-427.77,317.747-427.188,317.747z"/>
			<path fill="#FFFFFF" d="M-403.154,325.595h-1.025c-0.131-0.743,0.02-1.93,0.211-2.829h-0.15c-1.619,2.347-3.67,3.093-5.701,3.093
				c-3.762,0-5.141-2.254-5.141-5.341c0-5.672,2.816-10.589,7.977-10.589c2.283,0,3.951,0.764,4.727,2.635h0.129
				c0.162-1.026,0.354-1.871,0.674-2.379h0.996L-403.154,325.595z M-402.994,317.139c0.605-3.832-0.521-6.054-3.99-6.054
				c-3.801,0-6.629,3.671-6.629,9.332c0,2.544,1.117,4.243,4.176,4.243C-405.668,324.66-403.516,321.06-402.994,317.139z"/>
			<path fill="#FFFFFF" d="M-388.783,320.93c0-1.835-1.73-2.348-3.791-2.766c-2.482-0.513-4.928-0.904-4.928-3.509
				c0-2.475,1.932-4.727,6.246-4.727c2.354,0,4.635,0.936,4.635,3.213c0,0.327-0.031,0.769-0.131,1.131h-1.156
				c0.252-2.413-1.389-3.188-3.57-3.188c-3.117,0-4.666,1.674-4.666,3.469c0,1.811,2.021,2.063,4.275,2.515
				c2.352,0.451,4.414,1.191,4.375,3.73c0,2.676-2.053,5.06-6.629,5.06c-2.865,0-5.018-1.098-5.018-3.642
				c0-0.382,0.07-0.9,0.23-1.348h1.086c-0.412,3.088,1.52,3.862,3.893,3.862C-390.031,324.731-388.783,322.539-388.783,320.93z"/>
			<path fill="#FFFFFF" d="M-375.711,320.256c0-5.088,2.564-10.327,8.357-10.327c3.801,0,4.867,1.991,4.867,3.729
				c0,2.671-2.807,5.12-10.037,5.12c-0.492,0-1.137,0-1.709-0.061c-0.109,0.478-0.131,1.025-0.131,1.503
				c0,2.479,0.895,4.439,4.184,4.439c3.803,0,5.18-2.025,5.371-3.761h1.156c0,0.226-0.031,0.447-0.061,0.673
				c-0.422,2.832-3.449,4.286-6.598,4.286C-374.846,325.858-375.711,322.921-375.711,320.256z M-372.301,317.747
				c6.656,0,8.465-2.126,8.465-3.957c0-1.509-1.164-2.675-3.738-2.675c-4.053,0-6.014,3.569-6.496,6.536
				C-373.369,317.747-372.883,317.747-372.301,317.747z"/>
			<path fill="#FFFFFF" d="M-348.459,303.91h12.893l-0.221,1.252h-11.555l-1.449,8.307h10.781l-0.191,1.251h-10.809l-1.711,9.589
				h12.52l-0.189,1.286h-13.879L-348.459,303.91z"/>
			<path fill="#FFFFFF" d="M-322.021,316.655l-1.559,8.939h-1.367l1.51-8.688c0.482-2.705,0.703-5.853-3.422-5.853
				c-3.498,0-5.852,3.248-6.395,6.4l-1.377,8.14h-1.328l2.705-15.41h1.025c0.072,0.81-0.059,1.705-0.32,2.957h0.129
				c1.902-2.671,4.344-3.249,5.984-3.249C-321.738,309.893-321.447,313.307-322.021,316.655z"/>
			<path fill="#FFFFFF" d="M-320.189,328.754c0-0.293,0.027-0.423,0.131-0.775h1.156v0.353c0,1.609,1.285,2.671,4.182,2.735
				c3.119,0,5.412-1.484,6.277-5.691c0.189-0.996,0.451-2.283,0.834-3.51h-0.131c-1.289,2.282-3.279,3.962-6.084,3.962
				c-3.369,0-5.018-2.097-5.018-5.445c0-4.982,2.412-10.489,7.943-10.489c1.973,0,3.902,0.71,4.697,3.062h0.139
				c0.283-1.643,0.443-2.321,0.775-2.805h1.057l-2.967,15.518c-0.865,4.404-3.088,6.556-7.695,6.556
				C-317.525,332.223-320.189,331.167-320.189,328.754z M-306.846,316.494c0.352-2.614-0.443-5.439-3.951-5.439
				c-4.115,0-6.658,4.022-6.658,9.07c0,2.766,1.158,4.57,3.963,4.57C-309.791,324.695-307.35,320.221-306.846,316.494z"/>
			<path fill="#FFFFFF" d="M-302.18,320.256c0-5.088,2.572-10.327,8.367-10.327c3.801,0,4.867,1.991,4.867,3.729
				c0,2.671-2.805,5.12-10.047,5.12c-0.482,0-1.127,0-1.699-0.061c-0.102,0.478-0.129,1.025-0.129,1.503
				c0,2.479,0.902,4.439,4.182,4.439c3.791,0,5.168-2.025,5.371-3.761h1.154c0,0.226-0.029,0.447-0.068,0.673
				c-0.404,2.832-3.439,4.286-6.578,4.286C-301.314,325.858-302.18,322.921-302.18,320.256z M-298.762,317.747
				c6.648,0,8.469-2.126,8.469-3.957c0-1.509-1.178-2.675-3.742-2.675c-4.061,0-6.012,3.569-6.494,6.536
				C-299.826,317.747-299.344,317.747-298.762,317.747z"/>
			<path fill="#FFFFFF" d="M-273.381,316.655l-1.537,8.939h-1.387l1.508-8.688c0.482-2.705,0.703-5.853-3.41-5.853
				c-3.51,0-5.861,3.248-6.406,6.4l-1.377,8.14h-1.316l2.693-15.41h1.037c0.061,0.81-0.068,1.705-0.322,2.957h0.121
				c1.9-2.671,4.346-3.249,5.984-3.249C-273.086,309.893-272.807,313.307-273.381,316.655z"/>
			<path fill="#FFFFFF" d="M-267.816,313.268c1.225-1.986,3.537-3.339,6.012-3.339c4.697,0,5.088,3.213,4.475,6.787l-1.508,8.879
				h-1.389l1.48-8.335c0.551-2.987,0.713-6.175-3.471-6.175c-3.602,0-5.764,3.35-6.275,6.274l-1.418,8.235h-1.316l4.012-22.847
				h1.328l-1.287,7.145c-0.172,0.972-0.455,2.35-0.766,3.375H-267.816z"/>
			<path fill="#FFFFFF" d="M-242.559,325.595h-1.025c-0.141-0.743,0.02-1.93,0.223-2.829h-0.162
				c-1.607,2.347-3.67,3.093-5.689,3.093c-3.773,0-5.16-2.254-5.16-5.341c0-5.672,2.836-10.589,7.973-10.589
				c2.295,0,3.965,0.764,4.748,2.635h0.121c0.16-1.026,0.361-1.871,0.674-2.379h0.994L-242.559,325.595z M-242.406,317.139
				c0.613-3.832-0.512-6.054-3.994-6.054c-3.789,0-6.625,3.671-6.625,9.332c0,2.544,1.125,4.243,4.184,4.243
				C-245.072,324.66-242.918,321.06-242.406,317.139z"/>
			<path fill="#FFFFFF" d="M-238.354,325.595l2.703-15.41h0.998c0,0.931-0.092,1.996-0.352,3.152h0.131
				c1.125-2.182,3.539-3.444,5.982-3.479l-0.131,1.424c-4.596,0.256-6.043,2.921-6.598,6.108c-0.482,2.735-0.965,5.472-1.408,8.205
				H-238.354z"/>
			<path fill="#FFFFFF" d="M-225.865,310.185h1.318l-2.703,15.41h-1.32L-225.865,310.185z M-223.27,304.779
				c0,0.674-0.533,1.252-1.176,1.252c-0.555,0-0.834-0.353-0.834-0.869c0-0.674,0.57-1.252,1.217-1.252
				C-223.58,303.91-223.27,304.297-223.27,304.779z"/>
			<path fill="#FFFFFF" d="M-209.975,325.595H-211c-0.123-0.743,0.029-1.93,0.221-2.829h-0.16c-1.611,2.347-3.662,3.093-5.693,3.093
				c-3.76,0-5.148-2.254-5.148-5.341c0-5.672,2.824-10.589,7.975-10.589c2.281,0,3.973,0.764,4.736,2.635h0.121
				c0.172-1.026,0.363-1.871,0.684-2.379h0.996L-209.975,325.595z M-209.814,317.139c0.613-3.832-0.512-6.054-3.992-6.054
				c-3.791,0-6.617,3.671-6.617,9.332c0,2.544,1.115,4.243,4.184,4.243C-212.479,324.66-210.326,321.06-209.814,317.139z"/>
		</g>
	</g>
	<g>
		<path fill="#4FC6E0" d="M-879.928,64.629c0-0.06,0.043-0.116,0.043-0.191c0.199-19.271-15.066-31.632-32.031-31.632l-0.01,0.006
			c0,0,1.227-0.865,1.227-0.006h-124.543c-0.896,0-1.619,0.659-1.73,1.539c-0.072,0.578-1.539,15.261,6.557,24.351
			c4.412,4.979,10.789,7.513,18.936,7.563c-0.152,4.164,0.221,14.386,6.666,21.622c4.445,4.987,10.852,7.531,19.047,7.551h7.111
			c-0.162,4.179,0.24,14.386,6.676,21.621c4.434,4.988,10.83,7.532,19.037,7.557h71.256c0.967,0,1.73-0.778,1.73-1.734
			c0-0.03-1.256-0.05-1.256-0.069l1.285-0.011V64.629z"/>
		<g>
			<path fill="#00597E" d="M-1235.322,170.636c-11.734,0-22.373,5.928-28.568,15.693v-13.044c0-1.463-1.197-2.649-2.664-2.649
				c-1.457,0-2.645,1.187-2.645,2.649V325.69c0,1.465,1.188,2.66,2.645,2.66c1.467,0,2.664-1.195,2.664-2.66v-69.688
				c6.195,9.77,16.834,15.693,28.568,15.693c18.707,0,33.9-15.205,33.9-33.889v-33.281
				C-1201.422,185.836-1216.615,170.636-1235.322,170.636z M-1235.322,266.391c-15.748,0-28.568-12.816-28.568-28.584v-33.281
				c0-15.764,12.82-28.586,28.568-28.586c15.779,0,28.592,12.822,28.592,28.586v33.281
				C-1206.73,253.574-1219.543,266.391-1235.322,266.391z"/>
			<path fill="#00597E" d="M-1177.629,115.925c-1.459,0-2.645,1.187-2.645,2.651v150.469c0,1.464,1.186,2.65,2.645,2.65
				c1.469,0,2.654-1.187,2.654-2.65V118.576C-1174.975,117.111-1176.16,115.925-1177.629,115.925z"/>
			<path fill="#00597E" d="M-1088.701,170.636c-1.459,0-2.656,1.187-2.656,2.649v13.044c-6.193-9.766-16.834-15.693-28.588-15.693
				c-18.684,0-33.9,15.2-33.9,33.89v33.281c0,18.684,15.217,33.889,33.9,33.889c11.754,0,22.395-5.924,28.588-15.693v13.043
				c0,1.464,1.197,2.65,2.656,2.65c1.469,0,2.654-1.187,2.654-2.65v-95.76C-1086.047,171.822-1087.232,170.636-1088.701,170.636z
				 M-1119.945,266.391c-15.76,0-28.592-12.816-28.592-28.584v-33.281c0-15.764,12.832-28.586,28.592-28.586
				c15.756,0,28.588,12.822,28.588,28.586v33.281C-1091.357,253.574-1104.189,266.391-1119.945,266.391z"/>
			<path fill="#00597E" d="M-1026.404,170.636c-11.746,0-22.385,5.928-28.59,15.693v-13.044c0-1.463-1.186-2.649-2.645-2.649
				c-1.469,0-2.654,1.187-2.654,2.649v95.76c0,1.464,1.186,2.65,2.654,2.65c1.459,0,2.645-1.187,2.645-2.65v-64.52
				c0-15.764,12.832-28.586,28.59-28.586c15.77,0,28.59,12.822,28.59,28.586v64.52c0,1.464,1.186,2.65,2.656,2.65
				c1.467,0,2.652-1.187,2.652-2.65v-64.52C-992.506,185.836-1007.711,170.636-1026.404,170.636z"/>
			<path fill="#00597E" d="M-910.859,170.636c-1.459,0-2.664,1.187-2.664,2.649v13.044c-6.186-9.766-16.824-15.693-28.57-15.693
				c-18.705,0-33.898,15.2-33.898,33.89v33.281c0,18.684,15.193,33.889,33.898,33.889c11.746,0,22.385-5.924,28.57-15.693v13.043
				c0,1.464,1.205,2.65,2.664,2.65c1.469,0,2.645-1.187,2.645-2.65v-95.76C-908.215,171.822-909.391,170.636-910.859,170.636z
				 M-942.094,266.391c-15.768,0-28.59-12.816-28.59-28.584v-33.281c0-15.764,12.822-28.586,28.59-28.586
				c15.748,0,28.57,12.822,28.57,28.586v33.281C-913.523,253.574-926.346,266.391-942.094,266.391z"/>
			<path fill="#00597E" d="M-848.553,170.636c-11.754,0-22.393,5.928-28.588,15.693l0.041-125.114
				c0-17.462-14.16-31.672-31.617-31.758h-123.48c-1.367,0-2.533,1.037-2.674,2.399c-0.08,0.603-1.611,14.842,6.789,24.275
				c4.424,4.967,10.697,7.607,18.664,7.853c-0.041,4.707,0.732,14.332,6.947,21.311c4.625,5.214,11.273,7.863,19.762,7.894h6.111
				c-0.039,4.707,0.734,14.314,6.939,21.278c4.637,5.21,11.285,7.859,19.77,7.895h67.439v146.684c0,1.464,1.186,2.65,2.652,2.65
				c1.449,0,2.656-1.187,2.656-2.65v-64.52c0-15.764,12.82-28.586,28.588-28.586c15.76,0,28.57,12.822,28.57,28.586v64.52
				c0,1.464,1.207,2.65,2.666,2.65c1.469,0,2.645-1.187,2.645-2.65v-64.52C-814.672,185.836-829.867,170.636-848.553,170.636z
				 M-971.176,93.188h42.729c1.498,0,2.715-1.217,2.715-2.714c0-1.489-1.217-2.711-2.715-2.711h-54.254
				c-6.867-0.021-12.158-2.057-15.717-6.054c-4.949-5.552-5.592-13.651-5.58-17.694h58.213c1.5,0,2.717-1.217,2.717-2.715
				c0-1.499-1.217-2.711-2.717-2.711h-62.527c-6.857-0.024-12.148-2.057-15.709-6.053c-4.947-5.541-5.6-13.616-5.572-17.664h120.734
				c14.523,0,26.328,11.821,26.328,26.342c0,0.227,0.041,0.397,0.082,0.377v55.345h-67.439c-6.857-0.021-12.146-2.057-15.707-6.054
				C-970.543,105.327-971.186,97.231-971.176,93.188z"/>
		</g>
		<g>
			<path fill="#00597E" d="M-1198.445,303.91h1.367l-3.82,21.685h-1.348L-1198.445,303.91z"/>
			<path fill="#00597E" d="M-1182.717,313.754c1.348-2.442,3.469-3.861,6.105-3.861c4.635,0,4.926,3.444,4.281,7.015l-1.457,8.688
				h-1.336l1.447-8.652c0.543-3.032,0.412-5.888-3.119-5.888c-3.449,0-5.611,3.117-6.113,6.048l-1.518,8.492h-1.318l1.479-8.396
				c0.555-2.996,0.514-6.113-3.33-6.113c-3.486,0-5.52,3.247-6.031,6.175l-1.449,8.335h-1.316l2.693-15.41h1.025
				c0.041,0.81-0.02,1.705-0.279,2.957h0.119c1.779-2.73,4.074-3.213,5.713-3.213
				C-1184.135,309.929-1182.816,311.729-1182.717,313.754z"/>
			<path fill="#00597E" d="M-1157.477,325.595h-1.016c-0.129-0.743,0.031-1.93,0.223-2.829h-0.16
				c-1.619,2.347-3.672,3.093-5.693,3.093c-3.771,0-5.16-2.254-5.16-5.341c0-5.672,2.836-10.589,7.986-10.589
				c2.293,0,3.961,0.764,4.734,2.635h0.133c0.162-1.026,0.35-1.871,0.664-2.379h0.994L-1157.477,325.595z M-1157.316,317.139
				c0.615-3.832-0.502-6.054-3.98-6.054c-3.791,0-6.627,3.671-6.627,9.332c0,2.544,1.125,4.243,4.182,4.243
				C-1159.98,324.66-1157.818,321.06-1157.316,317.139z"/>
			<path fill="#00597E" d="M-1153.926,328.754c0-0.293,0.031-0.423,0.119-0.775h1.158v0.353c0,1.609,1.287,2.671,4.191,2.735
				c3.119,0,5.4-1.484,6.277-5.691c0.191-0.996,0.443-2.283,0.834-3.51h-0.131c-1.287,2.282-3.279,3.962-6.084,3.962
				c-3.379,0-5.018-2.097-5.018-5.445c0-4.982,2.414-10.489,7.953-10.489c1.951,0,3.873,0.71,4.697,3.062h0.121
				c0.291-1.643,0.451-2.321,0.764-2.805h1.076l-2.967,15.518c-0.875,4.404-3.088,6.556-7.684,6.556
				C-1151.262,332.223-1153.926,331.167-1153.926,328.754z M-1140.572,316.494c0.352-2.614-0.451-5.439-3.961-5.439
				c-4.123,0-6.678,4.022-6.678,9.07c0,2.766,1.178,4.57,3.971,4.57C-1143.539,324.695-1141.094,320.221-1140.572,316.494z"/>
			<path fill="#00597E" d="M-1135.916,320.256c0-5.088,2.576-10.327,8.367-10.327c3.791,0,4.855,1.991,4.855,3.729
				c0,2.671-2.793,5.12-10.035,5.12c-0.482,0-1.125,0-1.709-0.061c-0.09,0.478-0.143,1.025-0.143,1.503
				c0,2.479,0.918,4.439,4.205,4.439c3.791,0,5.18-2.025,5.371-3.761h1.154c0,0.226-0.029,0.447-0.061,0.673
				c-0.422,2.832-3.447,4.286-6.594,4.286C-1135.051,325.858-1135.916,322.921-1135.916,320.256z M-1132.506,317.747
				c6.656,0,8.467-2.126,8.467-3.957c0-1.509-1.156-2.675-3.74-2.675c-4.053,0-6.016,3.569-6.498,6.536
				C-1133.563,317.747-1133.08,317.747-1132.506,317.747z"/>
			<path fill="#00597E" d="M-1107.125,316.655l-1.539,8.939h-1.389l1.52-8.688c0.482-2.705,0.705-5.853-3.41-5.853
				c-3.508,0-5.861,3.248-6.395,6.4l-1.396,8.14h-1.318l2.715-15.41h1.025c0.061,0.81-0.068,1.705-0.332,2.957h0.133
				c1.898-2.671,4.344-3.249,5.992-3.249C-1106.822,309.893-1106.531,313.307-1107.125,316.655z"/>
			<path fill="#00597E" d="M-1094.443,320.93c0-1.835-1.74-2.348-3.803-2.766c-2.473-0.513-4.918-0.904-4.918-3.509
				c0-2.475,1.932-4.727,6.246-4.727c2.342,0,4.635,0.936,4.635,3.213c0,0.327-0.039,0.769-0.131,1.131h-1.156
				c0.252-2.413-1.385-3.188-3.578-3.188c-3.119,0-4.668,1.674-4.668,3.469c0,1.811,2.031,2.063,4.285,2.515
				c2.344,0.451,4.395,1.191,4.375,3.73c0,2.676-2.051,5.06-6.629,5.06c-2.875,0-5.018-1.098-5.018-3.642
				c0-0.382,0.063-0.9,0.223-1.348h1.096c-0.412,3.088,1.508,3.862,3.891,3.862C-1095.713,324.731-1094.443,322.539-1094.443,320.93
				z"/>
			<path fill="#00597E" d="M-1068.861,319.703h-10.246l-3.139,5.892h-1.488l11.746-21.721h1.449l4.252,21.721h-1.428
				L-1068.861,319.703z M-1071.607,305.679c-1.025,2.028-2.051,3.958-3.117,5.92l-3.729,6.888h9.422l-1.348-6.818
				c-0.352-1.937-0.684-3.932-1.025-5.989H-1071.607z"/>
			<path fill="#00597E" d="M-1063.301,320.256c0-5.088,2.566-10.327,8.357-10.327c3.811,0,4.867,1.991,4.867,3.729
				c0,2.671-2.805,5.12-10.037,5.12c-0.49,0-1.125,0-1.709-0.061c-0.102,0.478-0.129,1.025-0.129,1.503
				c0,2.479,0.904,4.439,4.172,4.439c3.801,0,5.189-2.025,5.381-3.761h1.156c0,0.226-0.02,0.447-0.063,0.673
				c-0.41,2.832-3.438,4.286-6.594,4.286C-1062.445,325.858-1063.301,322.921-1063.301,320.256z M-1059.893,317.747
				c6.648,0,8.469-2.126,8.469-3.957c0-1.509-1.166-2.675-3.742-2.675c-4.053,0-6.012,3.569-6.494,6.536
				C-1060.947,317.747-1060.465,317.747-1059.893,317.747z M-1056.1,307.414l4.123-4.444l1.127,1.102l-4.697,3.927L-1056.1,307.414z
				"/>
			<path fill="#00597E" d="M-1047.924,325.595l2.705-15.41h0.994c0,0.931-0.1,1.996-0.352,3.152h0.131
				c1.127-2.182,3.531-3.444,5.984-3.479l-0.131,1.424c-4.607,0.256-6.055,2.921-6.598,6.108c-0.492,2.735-0.965,5.472-1.428,8.205
				H-1047.924z"/>
			<path fill="#00597E" d="M-1038.592,320.256c0-5.088,2.572-10.327,8.355-10.327c3.813,0,4.867,1.991,4.867,3.729
				c0,2.671-2.805,5.12-10.035,5.12c-0.492,0-1.127,0-1.709-0.061c-0.102,0.478-0.131,1.025-0.131,1.503
				c0,2.479,0.904,4.439,4.184,4.439c3.781,0,5.178-2.025,5.369-3.761h1.156c0,0.226-0.02,0.447-0.061,0.673
				c-0.412,2.832-3.457,4.286-6.588,4.286C-1037.738,325.858-1038.592,322.921-1038.592,320.256z M-1035.184,317.747
				c6.646,0,8.467-2.126,8.467-3.957c0-1.509-1.166-2.675-3.74-2.675c-4.063,0-6.025,3.569-6.496,6.536
				C-1036.25,317.747-1035.768,317.747-1035.184,317.747z"/>
			<path fill="#00597E" d="M-1011.148,325.595h-1.025c-0.133-0.743,0.02-1.93,0.211-2.829h-0.16
				c-1.619,2.347-3.662,3.093-5.693,3.093c-3.76,0-5.139-2.254-5.139-5.341c0-5.672,2.814-10.589,7.973-10.589
				c2.273,0,3.953,0.764,4.727,2.635h0.123c0.172-1.026,0.361-1.871,0.674-2.379h1.006L-1011.148,325.595z M-1010.988,317.139
				c0.594-3.832-0.523-6.054-3.994-6.054c-3.799,0-6.625,3.671-6.625,9.332c0,2.544,1.115,4.243,4.172,4.243
				C-1013.662,324.66-1011.512,321.06-1010.988,317.139z"/>
			<path fill="#00597E" d="M-996.777,320.93c0-1.835-1.73-2.348-3.793-2.766c-2.482-0.513-4.928-0.904-4.928-3.509
				c0-2.475,1.932-4.727,6.244-4.727c2.354,0,4.637,0.936,4.637,3.213c0,0.327-0.029,0.769-0.131,1.131h-1.156
				c0.252-2.413-1.387-3.188-3.59-3.188c-3.107,0-4.656,1.674-4.656,3.469c0,1.811,2.031,2.063,4.285,2.515
				c2.342,0.451,4.404,1.191,4.373,3.73c0,2.676-2.051,5.06-6.627,5.06c-2.875,0-5.018-1.098-5.018-3.642
				c0-0.382,0.07-0.9,0.23-1.348h1.086c-0.41,3.088,1.508,3.862,3.893,3.862C-998.035,324.731-996.777,322.539-996.777,320.93z"/>
			<path fill="#00597E" d="M-983.715,320.256c0-5.088,2.574-10.327,8.365-10.327c3.801,0,4.867,1.991,4.867,3.729
				c0,2.671-2.805,5.12-10.045,5.12c-0.482,0-1.137,0-1.699-0.061c-0.111,0.478-0.131,1.025-0.131,1.503
				c0,2.479,0.885,4.439,4.184,4.439c3.801,0,5.178-2.025,5.369-3.761h1.156c0,0.226-0.031,0.447-0.061,0.673
				c-0.434,2.832-3.449,4.286-6.607,4.286C-982.852,325.858-983.715,322.921-983.715,320.256z M-980.297,317.747
				c6.658,0,8.457-2.126,8.457-3.957c0-1.509-1.156-2.675-3.73-2.675c-4.053,0-6.014,3.569-6.508,6.536
				C-981.363,317.747-980.891,317.747-980.297,317.747z"/>
			<path fill="#00597E" d="M-956.453,303.91h12.891l-0.221,1.252h-11.555l-1.447,8.307h10.781l-0.191,1.251h-10.822l-1.699,9.589
				h12.521l-0.203,1.286h-13.865L-956.453,303.91z"/>
			<path fill="#00597E" d="M-930.016,316.655l-1.561,8.939h-1.367l1.5-8.688c0.49-2.705,0.713-5.853-3.41-5.853
				c-3.5,0-5.854,3.248-6.395,6.4l-1.377,8.14h-1.328l2.705-15.41h1.025c0.07,0.81-0.061,1.705-0.324,2.957h0.133
				c1.9-2.671,4.334-3.249,5.982-3.249C-929.744,309.893-929.443,313.307-930.016,316.655z"/>
			<path fill="#00597E" d="M-928.197,328.754c0-0.293,0.041-0.423,0.143-0.775h1.154v0.353c0,1.609,1.279,2.671,4.184,2.735
				c3.107,0,5.412-1.484,6.275-5.691c0.191-0.996,0.443-2.283,0.836-3.51h-0.131c-1.297,2.282-3.279,3.962-6.084,3.962
				c-3.369,0-5.018-2.097-5.018-5.445c0-4.982,2.414-10.489,7.943-10.489c1.971,0,3.9,0.71,4.686,3.062h0.152
				c0.279-1.643,0.441-2.321,0.773-2.805h1.057l-2.967,15.518c-0.865,4.404-3.088,6.556-7.693,6.556
				C-925.531,332.223-928.197,331.167-928.197,328.754z M-914.842,316.494c0.354-2.614-0.443-5.439-3.953-5.439
				c-4.113,0-6.654,4.022-6.654,9.07c0,2.766,1.154,4.57,3.949,4.57C-917.787,324.695-915.346,320.221-914.842,316.494z"/>
			<path fill="#00597E" d="M-910.176,320.256c0-5.088,2.574-10.327,8.367-10.327c3.803,0,4.867,1.991,4.867,3.729
				c0,2.671-2.807,5.12-10.047,5.12c-0.482,0-1.125,0-1.699-0.061c-0.1,0.478-0.131,1.025-0.131,1.503
				c0,2.479,0.885,4.439,4.184,4.439c3.793,0,5.17-2.025,5.369-3.761h1.156c0,0.226-0.039,0.447-0.068,0.673
				c-0.422,2.832-3.441,4.286-6.578,4.286C-909.311,325.858-910.176,322.921-910.176,320.256z M-906.758,317.747
				c6.648,0,8.469-2.126,8.469-3.957c0-1.509-1.176-2.675-3.742-2.675c-4.061,0-6.014,3.569-6.496,6.536
				C-907.822,317.747-907.352,317.747-906.758,317.747z"/>
			<path fill="#00597E" d="M-881.375,316.655l-1.537,8.939h-1.389l1.508-8.688c0.482-2.705,0.703-5.853-3.41-5.853
				c-3.51,0-5.859,3.248-6.404,6.4l-1.377,8.14h-1.318l2.695-15.41h1.035c0.061,0.81-0.07,1.705-0.33,2.957h0.131
				c1.898-2.671,4.332-3.249,5.982-3.249C-881.084,309.893-880.801,313.307-881.375,316.655z"/>
			<path fill="#00597E" d="M-875.813,313.268c1.225-1.986,3.539-3.339,6.012-3.339c4.688,0,5.09,3.213,4.477,6.787l-1.52,8.879
				h-1.377l1.467-8.335c0.564-2.987,0.727-6.175-3.459-6.175c-3.609,0-5.762,3.35-6.273,6.274l-1.428,8.235h-1.309l4.014-22.847
				h1.324l-1.285,7.145c-0.172,0.972-0.453,2.35-0.766,3.375H-875.813z"/>
			<path fill="#00597E" d="M-850.553,325.595h-1.025c-0.141-0.743,0.02-1.93,0.221-2.829h-0.162
				c-1.607,2.347-3.67,3.093-5.691,3.093c-3.77,0-5.168-2.254-5.168-5.341c0-5.672,2.846-10.589,7.975-10.589
				c2.303,0,3.961,0.764,4.756,2.635h0.123c0.16-1.026,0.359-1.871,0.674-2.379h0.984L-850.553,325.595z M-850.402,317.139
				c0.613-3.832-0.512-6.054-4.002-6.054c-3.781,0-6.617,3.671-6.617,9.332c0,2.544,1.125,4.243,4.184,4.243
				C-853.066,324.66-850.914,321.06-850.402,317.139z"/>
			<path fill="#00597E" d="M-846.35,325.595l2.705-15.41h0.996c0,0.931-0.092,1.996-0.352,3.152h0.129
				c1.127-2.182,3.541-3.444,5.986-3.479l-0.133,1.424c-4.594,0.256-6.043,2.921-6.596,6.108c-0.494,2.735-0.967,5.472-1.42,8.205
				H-846.35z"/>
			<path fill="#00597E" d="M-833.859,310.185h1.318l-2.707,15.41h-1.316L-833.859,310.185z M-831.266,304.779
				c0,0.674-0.533,1.252-1.176,1.252c-0.553,0-0.846-0.353-0.846-0.869c0-0.674,0.584-1.252,1.229-1.252
				C-831.576,303.91-831.266,304.297-831.266,304.779z"/>
			<path fill="#00597E" d="M-817.971,325.595h-1.027c-0.119-0.743,0.031-1.93,0.223-2.829h-0.16
				c-1.609,2.347-3.66,3.093-5.703,3.093c-3.75,0-5.139-2.254-5.139-5.341c0-5.672,2.826-10.589,7.975-10.589
				c2.283,0,3.961,0.764,4.738,2.635h0.119c0.172-1.026,0.363-1.871,0.684-2.379h0.996L-817.971,325.595z M-817.811,317.139
				c0.615-3.832-0.514-6.054-3.992-6.054c-3.791,0-6.617,3.671-6.617,9.332c0,2.544,1.117,4.243,4.184,4.243
				C-820.475,324.66-818.324,321.06-817.811,317.139z"/>
		</g>
	</g>
	<g>
		<path fill="#A7A9AC" d="M-267.928,950.626c0-0.065,0.031-0.115,0.031-0.196c0.211-19.268-15.055-31.626-32.02-31.626l-0.01,0.004
			c0,0,1.227-0.859,1.227-0.004h-124.543c-0.896,0-1.619,0.658-1.73,1.538c-0.072,0.583-1.539,15.266,6.557,24.352
			c4.404,4.972,10.789,7.512,18.936,7.557c-0.152,4.174,0.221,14.391,6.666,21.621c4.445,4.993,10.852,7.542,19.047,7.558h7.111
			c-0.162,4.178,0.24,14.386,6.676,21.625c4.434,4.982,10.82,7.532,19.037,7.552h71.248c0.965,0,1.748-0.773,1.748-1.739
			c0-0.024-1.266-0.046-1.266-0.066l1.285-0.015V950.626z"/>
		<g>
			<path d="M-623.322,1056.633c-11.744,0-22.383,5.929-28.568,15.691v-13.042c0-1.463-1.197-2.649-2.664-2.649
				c-1.457,0-2.645,1.187-2.645,2.649v152.406c0,1.462,1.188,2.659,2.645,2.659c1.467,0,2.664-1.197,2.664-2.659v-69.689
				c6.186,9.77,16.824,15.698,28.568,15.698c18.707,0,33.9-15.205,33.9-33.895v-33.281
				C-589.422,1071.838-604.615,1056.633-623.322,1056.633z M-623.322,1152.387c-15.748,0-28.568-12.821-28.568-28.584v-33.281
				c0-15.758,12.82-28.584,28.568-28.584c15.779,0,28.602,12.826,28.602,28.584v33.281
				C-594.721,1139.565-607.543,1152.387-623.322,1152.387z"/>
			<path d="M-565.629,1001.918c-1.459,0-2.645,1.195-2.645,2.654v150.469c0,1.459,1.186,2.656,2.645,2.656
				c1.469,0,2.645-1.197,2.645-2.656v-150.469C-562.984,1003.113-564.16,1001.918-565.629,1001.918z"/>
			<path d="M-476.701,1056.633c-1.459,0-2.656,1.187-2.656,2.649v13.042c-6.193-9.763-16.834-15.691-28.588-15.691
				c-18.684,0-33.9,15.205-33.9,33.889v33.281c0,18.689,15.217,33.895,33.9,33.895c11.754,0,22.395-5.929,28.588-15.698v13.042
				c0,1.459,1.197,2.656,2.656,2.656c1.469,0,2.654-1.197,2.654-2.656v-95.759C-474.047,1057.819-475.232,1056.633-476.701,1056.633
				z M-507.945,1152.387c-15.76,0-28.592-12.821-28.592-28.584v-33.281c0-15.758,12.832-28.584,28.592-28.584
				c15.756,0,28.588,12.826,28.588,28.584v33.281C-479.357,1139.565-492.189,1152.387-507.945,1152.387z"/>
			<path d="M-414.404,1056.633c-11.746,0-22.385,5.929-28.59,15.691v-13.042c0-1.463-1.186-2.649-2.645-2.649
				c-1.469,0-2.654,1.187-2.654,2.649v95.759c0,1.459,1.186,2.656,2.654,2.656c1.459,0,2.645-1.197,2.645-2.656v-64.52
				c0-15.758,12.832-28.584,28.59-28.584c15.77,0,28.59,12.826,28.59,28.584v64.52c0,1.459,1.186,2.656,2.656,2.656
				c1.467,0,2.652-1.197,2.652-2.656v-64.52C-380.506,1071.838-395.711,1056.633-414.404,1056.633z"/>
			<path d="M-298.859,1056.633c-1.459,0-2.664,1.187-2.664,2.649v13.042c-6.186-9.763-16.824-15.691-28.57-15.691
				c-18.705,0-33.898,15.205-33.898,33.889v33.281c0,18.689,15.193,33.895,33.898,33.895c11.746,0,22.385-5.929,28.57-15.698v13.042
				c0,1.459,1.205,2.656,2.664,2.656c1.469,0,2.645-1.197,2.645-2.656v-95.759C-296.215,1057.819-297.391,1056.633-298.859,1056.633
				z M-330.094,1152.387c-15.768,0-28.59-12.821-28.59-28.584v-33.281c0-15.758,12.822-28.584,28.59-28.584
				c15.748,0,28.57,12.826,28.57,28.584v33.281C-301.523,1139.565-314.346,1152.387-330.094,1152.387z"/>
			<path d="M-236.553,1056.633c-11.754,0-22.393,5.929-28.588,15.691l0.041-125.112c0-17.457-14.16-31.672-31.617-31.757h-123.48
				c-1.367,0-2.533,1.035-2.674,2.403c-0.08,0.598-1.611,14.838,6.777,24.266c4.436,4.973,10.709,7.613,18.676,7.862
				c-0.041,4.697,0.732,14.332,6.947,21.305c4.625,5.215,11.273,7.864,19.762,7.89h6.104c-0.031,4.706,0.742,14.319,6.947,21.288
				c4.637,5.204,11.285,7.854,19.762,7.885h67.447v146.688c0,1.459,1.186,2.656,2.652,2.656c1.449,0,2.656-1.197,2.656-2.656v-64.52
				c0-15.758,12.82-28.584,28.588-28.584c15.76,0,28.57,12.826,28.57,28.584v64.52c0,1.459,1.207,2.656,2.666,2.656
				c1.457,0,2.645-1.197,2.645-2.656v-64.52C-202.672,1071.838-217.867,1056.633-236.553,1056.633z M-359.166,979.181h42.719
				c1.498,0,2.715-1.207,2.715-2.711c0-1.493-1.217-2.71-2.715-2.71h-54.254c-6.867-0.02-12.158-2.051-15.717-6.054
				c-4.949-5.55-5.592-13.646-5.58-17.698h58.213c1.5,0,2.717-1.216,2.717-2.71s-1.217-2.711-2.717-2.711h-62.527
				c-6.857-0.02-12.148-2.052-15.709-6.053c-4.947-5.542-5.6-13.616-5.572-17.664h120.734c14.523,0,26.338,11.821,26.338,26.342
				c0,0.231,0.031,0.392,0.072,0.371v55.35h-67.447c-6.85-0.02-12.139-2.051-15.699-6.054
				C-358.543,991.323-359.186,983.233-359.166,979.181z"/>
		</g>
		<g>
			<path d="M-586.445,1189.906h1.367l-3.82,21.687h-1.348L-586.445,1189.906z"/>
			<path d="M-570.717,1199.752c1.348-2.443,3.469-3.861,6.105-3.861c4.635,0,4.926,3.444,4.281,7.014l-1.457,8.688h-1.336
				l1.447-8.653c0.543-3.027,0.412-5.883-3.119-5.883c-3.449,0-5.611,3.117-6.113,6.044l-1.518,8.492h-1.318l1.479-8.396
				c0.555-2.992,0.514-6.115-3.318-6.115c-3.498,0-5.531,3.249-6.043,6.176l-1.459,8.336h-1.307l2.693-15.411h1.025
				c0.041,0.804-0.02,1.705-0.279,2.957h0.119c1.779-2.731,4.074-3.208,5.713-3.208
				C-572.135,1195.931-570.816,1197.73-570.717,1199.752z"/>
			<path d="M-545.477,1211.593h-1.016c-0.129-0.739,0.031-1.926,0.223-2.831h-0.16c-1.619,2.349-3.682,3.088-5.693,3.088
				c-3.771,0-5.16-2.253-5.16-5.34c0-5.662,2.836-10.579,7.986-10.579c2.293,0,3.961,0.764,4.734,2.629h0.133
				c0.162-1.031,0.35-1.865,0.664-2.378h0.994L-545.477,1211.593z M-545.316,1203.131c0.625-3.831-0.502-6.05-3.98-6.05
				c-3.791,0-6.627,3.671-6.627,9.333c0,2.544,1.125,4.248,4.182,4.248C-547.98,1210.662-545.818,1207.058-545.316,1203.131z"/>
			<path d="M-541.926,1214.746c0-0.283,0.031-0.418,0.119-0.77h1.158v0.352c0,1.608,1.287,2.67,4.184,2.735
				c3.127,0,5.408-1.483,6.285-5.687c0.191-1.006,0.443-2.293,0.834-3.52h-0.131c-1.287,2.288-3.279,3.961-6.084,3.961
				c-3.379,0-5.018-2.092-5.018-5.439c0-4.983,2.414-10.488,7.953-10.488c1.951,0,3.873,0.708,4.697,3.057h0.121
				c0.291-1.639,0.451-2.318,0.764-2.796h1.076l-2.967,15.507c-0.875,4.408-3.088,6.566-7.684,6.566
				C-539.262,1218.225-541.926,1217.159-541.926,1214.746z M-528.572,1202.487c0.344-2.605-0.451-5.431-3.961-5.431
				c-4.123,0-6.668,4.022-6.668,9.065c0,2.771,1.168,4.571,3.961,4.571C-531.539,1210.693-529.094,1206.218-528.572,1202.487z"/>
			<path d="M-523.916,1206.254c0-5.084,2.576-10.323,8.367-10.323c3.791,0,4.855,1.986,4.855,3.726
				c0,2.671-2.793,5.124-10.035,5.124c-0.482,0-1.125,0-1.709-0.07c-0.09,0.482-0.143,1.03-0.143,1.508
				c0,2.483,0.918,4.444,4.205,4.444c3.791,0,5.18-2.031,5.371-3.771h1.154c0,0.231-0.029,0.453-0.061,0.679
				c-0.422,2.832-3.447,4.279-6.594,4.279C-523.051,1211.85-523.916,1208.923-523.916,1206.254z M-520.506,1203.744
				c6.656,0,8.467-2.127,8.467-3.952c0-1.518-1.156-2.675-3.74-2.675c-4.053,0-6.016,3.569-6.498,6.536
				C-521.563,1203.744-521.08,1203.744-520.506,1203.744z"/>
			<path d="M-495.125,1202.648l-1.539,8.944h-1.389l1.52-8.688c0.482-2.7,0.705-5.848-3.41-5.848c-3.508,0-5.861,3.248-6.402,6.396
				l-1.389,8.141h-1.318l2.707-15.411h1.033c0.061,0.804-0.068,1.705-0.332,2.957h0.133c1.891-2.666,4.344-3.248,5.992-3.248
				C-494.822,1195.891-494.531,1199.3-495.125,1202.648z"/>
			<path d="M-482.443,1206.927c0-1.836-1.74-2.349-3.803-2.761c-2.473-0.513-4.918-0.909-4.918-3.509
				c0-2.484,1.932-4.727,6.246-4.727c2.354,0,4.635,0.925,4.635,3.208c0,0.322-0.039,0.773-0.131,1.13h-1.156
				c0.252-2.418-1.385-3.188-3.57-3.188c-3.127,0-4.676,1.676-4.676,3.475c0,1.811,2.031,2.057,4.285,2.51
				c2.344,0.448,4.395,1.191,4.375,3.735c0,2.67-2.051,5.049-6.629,5.049c-2.875,0-5.018-1.092-5.018-3.636
				c0-0.387,0.063-0.899,0.223-1.352h1.096c-0.412,3.092,1.508,3.865,3.891,3.865
				C-483.713,1210.728-482.443,1208.535-482.443,1206.927z"/>
			<path d="M-456.861,1205.705h-10.246l-3.139,5.888h-1.488l11.746-21.722h1.438l4.264,21.722h-1.416L-456.861,1205.705z
				 M-459.607,1191.677c-1.025,2.032-2.051,3.957-3.117,5.917l-3.729,6.885h9.422l-1.348-6.818
				c-0.352-1.931-0.684-3.928-1.025-5.983H-459.607z"/>
			<path d="M-451.301,1206.254c0-5.084,2.566-10.323,8.346-10.323c3.822,0,4.879,1.986,4.879,3.726
				c0,2.671-2.805,5.124-10.037,5.124c-0.49,0-1.125,0-1.709-0.07c-0.102,0.482-0.129,1.03-0.129,1.508
				c0,2.483,0.904,4.444,4.172,4.444c3.791,0,5.189-2.031,5.381-3.771h1.156c0,0.231-0.02,0.453-0.063,0.679
				c-0.41,2.832-3.438,4.279-6.594,4.279C-450.445,1211.85-451.301,1208.923-451.301,1206.254z M-447.893,1203.744
				c6.648,0,8.469-2.127,8.469-3.952c0-1.518-1.166-2.675-3.742-2.675c-4.053,0-6.012,3.569-6.494,6.536
				C-448.947,1203.744-448.465,1203.744-447.893,1203.744z M-444.1,1193.411l4.123-4.439l1.127,1.096l-4.697,3.927L-444.1,1193.411z
				"/>
			<path d="M-435.924,1211.593l2.705-15.411h0.994c0,0.936-0.1,1.991-0.352,3.153h0.131c1.127-2.188,3.531-3.444,5.984-3.476
				l-0.131,1.418c-4.607,0.251-6.064,2.927-6.598,6.109c-0.492,2.735-0.965,5.477-1.428,8.206H-435.924z"/>
			<path d="M-426.592,1206.254c0-5.084,2.572-10.323,8.355-10.323c3.813,0,4.867,1.986,4.867,3.726
				c0,2.671-2.805,5.124-10.035,5.124c-0.492,0-1.127,0-1.709-0.07c-0.102,0.482-0.143,1.03-0.143,1.508
				c0,2.483,0.916,4.444,4.195,4.444c3.781,0,5.178-2.031,5.369-3.771h1.156c0,0.231-0.02,0.453-0.061,0.679
				c-0.412,2.832-3.457,4.279-6.588,4.279C-425.738,1211.85-426.592,1208.923-426.592,1206.254z M-423.193,1203.744
				c6.656,0,8.477-2.127,8.477-3.952c0-1.518-1.166-2.675-3.74-2.675c-4.063,0-6.025,3.569-6.496,6.536
				C-424.25,1203.744-423.768,1203.744-423.193,1203.744z"/>
			<path d="M-399.148,1211.593h-1.025c-0.133-0.739,0.02-1.926,0.211-2.831h-0.16c-1.619,2.349-3.662,3.088-5.693,3.088
				c-3.76,0-5.139-2.253-5.139-5.34c0-5.662,2.814-10.579,7.973-10.579c2.285,0,3.953,0.764,4.727,2.629h0.133
				c0.162-1.031,0.352-1.865,0.664-2.378h1.006L-399.148,1211.593z M-398.988,1203.131c0.594-3.831-0.523-6.05-3.994-6.05
				c-3.799,0-6.625,3.671-6.625,9.333c0,2.544,1.115,4.248,4.172,4.248C-401.662,1210.662-399.512,1207.058-398.988,1203.131z"/>
			<path d="M-384.777,1206.927c0-1.836-1.73-2.349-3.793-2.761c-2.482-0.513-4.928-0.909-4.928-3.509
				c0-2.484,1.932-4.727,6.244-4.727c2.354,0,4.627,0.925,4.627,3.208c0,0.322-0.02,0.773-0.121,1.13h-1.156
				c0.252-2.418-1.387-3.188-3.578-3.188c-3.119,0-4.668,1.676-4.668,3.475c0,1.811,2.031,2.057,4.285,2.51
				c2.342,0.448,4.412,1.191,4.373,3.735c0,2.67-2.051,5.049-6.627,5.049c-2.875,0-5.018-1.092-5.018-3.636
				c0-0.387,0.07-0.899,0.23-1.352h1.086c-0.41,3.092,1.508,3.865,3.893,3.865C-386.025,1210.728-384.777,1208.535-384.777,1206.927
				z"/>
			<path d="M-371.715,1206.254c0-5.084,2.574-10.323,8.365-10.323c3.801,0,4.857,1.986,4.857,3.726
				c0,2.671-2.795,5.124-10.027,5.124c-0.49,0-1.145,0-1.707-0.07c-0.111,0.482-0.131,1.03-0.131,1.508
				c0,2.483,0.893,4.444,4.184,4.444c3.801,0,5.178-2.031,5.369-3.771h1.156c0,0.231-0.031,0.453-0.061,0.679
				c-0.434,2.832-3.449,4.279-6.607,4.279C-370.852,1211.85-371.715,1208.923-371.715,1206.254z M-368.297,1203.744
				c6.658,0,8.457-2.127,8.457-3.952c0-1.518-1.156-2.675-3.73-2.675c-4.053,0-6.014,3.569-6.508,6.536
				C-369.363,1203.744-368.891,1203.744-368.297,1203.744z"/>
			<path d="M-344.453,1189.906h12.891l-0.221,1.258h-11.555l-1.447,8.297h10.781l-0.203,1.256h-10.801l-1.709,9.59h12.51
				l-0.191,1.286h-13.865L-344.453,1189.906z"/>
			<path d="M-318.016,1202.648l-1.561,8.944h-1.367l1.508-8.688c0.482-2.7,0.705-5.848-3.418-5.848c-3.5,0-5.861,3.248-6.395,6.396
				l-1.377,8.141h-1.328l2.705-15.411h1.025c0.07,0.804-0.061,1.705-0.324,2.957h0.133c1.9-2.666,4.334-3.248,5.982-3.248
				C-317.744,1195.891-317.443,1199.3-318.016,1202.648z"/>
			<path d="M-316.197,1214.746c0-0.283,0.041-0.418,0.143-0.77h1.154v0.352c0,1.608,1.279,2.67,4.184,2.735
				c3.107,0,5.412-1.483,6.275-5.687c0.182-1.006,0.453-2.293,0.836-3.52h-0.131c-1.297,2.288-3.279,3.961-6.084,3.961
				c-3.369,0-5.018-2.092-5.018-5.439c0-4.983,2.414-10.488,7.943-10.488c1.971,0,3.9,0.708,4.686,3.057h0.152
				c0.279-1.639,0.441-2.318,0.773-2.796h1.057l-2.967,15.507c-0.865,4.408-3.088,6.566-7.693,6.566
				C-313.531,1218.225-316.197,1217.159-316.197,1214.746z M-302.842,1202.487c0.354-2.605-0.443-5.431-3.953-5.431
				c-4.113,0-6.666,4.022-6.666,9.065c0,2.771,1.166,4.571,3.961,4.571C-305.787,1210.693-303.346,1206.218-302.842,1202.487z"/>
			<path d="M-298.176,1206.254c0-5.084,2.574-10.323,8.367-10.323c3.803,0,4.855,1.986,4.855,3.726
				c0,2.671-2.795,5.124-10.035,5.124c-0.482,0-1.125,0-1.699-0.07c-0.1,0.482-0.131,1.03-0.131,1.508
				c0,2.483,0.885,4.444,4.184,4.444c3.793,0,5.17-2.031,5.369-3.771h1.156c0,0.231-0.029,0.453-0.068,0.679
				c-0.422,2.832-3.441,4.279-6.578,4.279C-297.311,1211.85-298.176,1208.923-298.176,1206.254z M-294.758,1203.744
				c6.648,0,8.469-2.127,8.469-3.952c0-1.518-1.176-2.675-3.742-2.675c-4.061,0-6.014,3.569-6.506,6.536
				C-295.822,1203.744-295.352,1203.744-294.758,1203.744z"/>
			<path d="M-269.375,1202.648l-1.537,8.944h-1.389l1.508-8.688c0.482-2.7,0.703-5.848-3.41-5.848c-3.51,0-5.859,3.248-6.404,6.396
				l-1.377,8.141h-1.318l2.695-15.411h1.035c0.061,0.804-0.08,1.705-0.33,2.957h0.131c1.898-2.666,4.332-3.248,5.982-3.248
				C-269.084,1195.891-268.801,1199.3-269.375,1202.648z"/>
			<path d="M-263.813,1199.27c1.225-1.992,3.539-3.339,6.012-3.339c4.688,0,5.09,3.208,4.477,6.787l-1.52,8.875h-1.377l1.467-8.336
				c0.564-2.988,0.727-6.176-3.459-6.176c-3.609,0-5.762,3.349-6.273,6.275l-1.428,8.236h-1.309l4.014-22.843h1.324l-1.285,7.141
				c-0.172,0.965-0.453,2.348-0.766,3.379H-263.813z"/>
			<path d="M-238.553,1211.593h-1.025c-0.152-0.739,0.02-1.926,0.221-2.831h-0.162c-1.607,2.349-3.67,3.088-5.701,3.088
				c-3.76,0-5.158-2.253-5.158-5.34c0-5.662,2.846-10.579,7.975-10.579c2.303,0,3.961,0.764,4.756,2.629h0.123
				c0.16-1.031,0.359-1.865,0.674-2.378h0.984L-238.553,1211.593z M-238.402,1203.131c0.613-3.831-0.512-6.05-4.002-6.05
				c-3.781,0-6.617,3.671-6.617,9.333c0,2.544,1.125,4.248,4.184,4.248C-241.066,1210.662-238.914,1207.058-238.402,1203.131z"/>
			<path d="M-234.35,1211.593l2.705-15.411h0.996c0,0.936-0.092,1.991-0.352,3.153h0.129c1.127-2.188,3.541-3.444,5.986-3.476
				l-0.133,1.418c-4.594,0.251-6.043,2.927-6.596,6.109c-0.494,2.735-0.967,5.477-1.408,8.206H-234.35z"/>
			<path d="M-221.859,1196.182h1.318l-2.707,15.411h-1.316L-221.859,1196.182z M-219.266,1190.781c0,0.674-0.533,1.248-1.176,1.248
				c-0.553,0-0.846-0.353-0.846-0.865c0-0.68,0.584-1.258,1.229-1.258C-219.576,1189.906-219.266,1190.295-219.266,1190.781z"/>
			<path d="M-205.971,1211.593h-1.027c-0.119-0.739,0.031-1.926,0.223-2.831h-0.172c-1.598,2.349-3.648,3.088-5.691,3.088
				c-3.75,0-5.139-2.253-5.139-5.34c0-5.662,2.826-10.579,7.975-10.579c2.283,0,3.961,0.764,4.738,2.629h0.119
				c0.172-1.031,0.363-1.865,0.684-2.378h0.996L-205.971,1211.593z M-205.811,1203.131c0.615-3.831-0.514-6.05-3.992-6.05
				c-3.791,0-6.617,3.671-6.617,9.333c0,2.544,1.117,4.248,4.184,4.248C-208.475,1210.662-206.324,1207.058-205.811,1203.131z"/>
		</g>
	</g>
	<g>
		<g>
			<path fill="#FFFFFF" d="M-623.307,606.636c-11.754,0-22.393,5.924-28.588,15.687V609.28c0-1.458-1.197-2.645-2.656-2.645
				c-1.467,0-2.654,1.187-2.654,2.645v152.41c0,1.458,1.188,2.655,2.654,2.655c1.459,0,2.656-1.197,2.656-2.655v-69.688
				c6.195,9.765,16.834,15.693,28.588,15.693c18.686,0,33.891-15.205,33.891-33.895v-33.275
				C-589.416,621.84-604.621,606.636-623.307,606.636z M-623.307,702.391c-15.768,0-28.588-12.821-28.588-28.59v-33.275
				c0-15.769,12.82-28.59,28.588-28.59c15.76,0,28.58,12.821,28.58,28.59v33.275C-594.727,689.569-607.547,702.391-623.307,702.391z
				"/>
			<path fill="#FFFFFF" d="M-565.633,551.921c-1.459,0-2.645,1.187-2.645,2.655v150.469c0,1.459,1.186,2.65,2.645,2.65
				c1.469,0,2.654-1.191,2.654-2.65V554.576C-562.979,553.107-564.164,551.921-565.633,551.921z"/>
			<path fill="#FFFFFF" d="M-476.707,606.636c-1.457,0-2.654,1.187-2.654,2.645v13.042c-6.195-9.763-16.834-15.687-28.592-15.687
				c-18.684,0-33.889,15.204-33.889,33.89v33.275c0,18.689,15.205,33.895,33.889,33.895c11.758,0,22.396-5.929,28.592-15.693v13.043
				c0,1.459,1.197,2.65,2.654,2.65c1.467,0,2.654-1.191,2.654-2.65V609.28C-474.053,607.822-475.24,606.636-476.707,606.636z
				 M-507.953,702.391c-15.756,0-28.588-12.821-28.588-28.59v-33.275c0-15.769,12.832-28.59,28.588-28.59
				c15.76,0,28.592,12.821,28.592,28.59v33.275C-479.361,689.569-492.193,702.391-507.953,702.391z"/>
			<path fill="#FFFFFF" d="M-414.41,606.636c-11.744,0-22.385,5.924-28.588,15.687V609.28c0-1.458-1.178-2.645-2.645-2.645
				c-1.469,0-2.656,1.187-2.656,2.645v95.765c0,1.459,1.188,2.65,2.656,2.65c1.467,0,2.645-1.191,2.645-2.65v-64.52
				c0-15.769,12.832-28.59,28.588-28.59c15.768,0,28.592,12.821,28.592,28.59v64.52c0,1.459,1.186,2.65,2.652,2.65
				c1.469,0,2.656-1.191,2.656-2.65v-64.52C-380.51,621.84-395.715,606.636-414.41,606.636z"/>
			<path fill="#FFFFFF" d="M-298.854,606.636c-1.469,0-2.666,1.187-2.666,2.645v13.042c-6.193-9.763-16.832-15.687-28.578-15.687
				c-18.695,0-33.9,15.204-33.9,33.89v33.275c0,18.689,15.205,33.895,33.9,33.895c11.746,0,22.385-5.929,28.578-15.693v13.043
				c0,1.459,1.197,2.65,2.666,2.65c1.457,0,2.633-1.191,2.633-2.65V609.28C-296.221,607.822-297.396,606.636-298.854,606.636z
				 M-330.098,702.391c-15.77,0-28.59-12.821-28.59-28.59v-33.275c0-15.769,12.82-28.59,28.59-28.59
				c15.746,0,28.578,12.821,28.578,28.59v33.275C-301.52,689.569-314.352,702.391-330.098,702.391z"/>
			<path fill="#FFFFFF" d="M-236.557,606.636c-11.756,0-22.396,5.924-28.59,15.687l0.041-125.107
				c0-17.468-14.16-31.677-31.617-31.758h-123.469c-1.379,0-2.545,1.037-2.684,2.399c-0.072,0.598-1.6,14.838,6.785,24.271
				c4.426,4.968,10.701,7.612,18.664,7.864c-0.039,4.696,0.734,14.325,6.949,21.298c4.627,5.22,11.275,7.864,19.76,7.895h6.115
				c-0.041,4.706,0.734,14.319,6.939,21.283c4.635,5.204,11.281,7.859,19.77,7.891h67.447v146.688c0,1.459,1.176,2.65,2.645,2.65
				c1.457,0,2.654-1.191,2.654-2.65v-64.52c0-15.769,12.822-28.59,28.59-28.59c15.758,0,28.58,12.821,28.58,28.59v64.52
				c0,1.459,1.197,2.65,2.654,2.65c1.467,0,2.654-1.191,2.654-2.65v-64.52C-202.668,621.84-217.873,606.636-236.557,606.636z
				 M-359.17,529.184h42.729c1.488,0,2.705-1.217,2.705-2.716c0-1.487-1.217-2.704-2.705-2.704h-54.264
				c-6.869-0.021-12.158-2.062-15.719-6.054c-4.947-5.552-5.59-13.646-5.58-17.699h58.225c1.488,0,2.705-1.217,2.705-2.715
				c0-1.499-1.217-2.706-2.705-2.706h-62.539c-6.859-0.024-12.148-2.061-15.707-6.053c-4.949-5.541-5.602-13.616-5.572-17.669
				h120.734c14.52,0,26.338,11.826,26.338,26.347c0,0.221,0.029,0.393,0.08,0.373v55.349h-67.447
				c-6.857-0.021-12.146-2.062-15.707-6.054C-358.547,541.321-359.189,533.236-359.17,529.184z"/>
		</g>
		<g>
			<path fill="#FFFFFF" d="M-586.449,739.91h1.367l-3.82,21.681h-1.348L-586.449,739.91z"/>
			<path fill="#FFFFFF" d="M-570.723,749.754c1.35-2.442,3.471-3.861,6.104-3.861c4.637,0,4.93,3.44,4.285,7.01l-1.449,8.688h-1.348
				l1.449-8.648c0.545-3.027,0.412-5.893-3.117-5.893c-3.449,0-5.611,3.122-6.113,6.053l-1.52,8.488h-1.316l1.479-8.396
				c0.551-2.992,0.512-6.115-3.318-6.115c-3.502,0-5.533,3.249-6.045,6.176l-1.447,8.336h-1.318l2.707-15.406h1.025
				c0.029,0.806-0.031,1.7-0.295,2.957h0.133c1.77-2.736,4.063-3.219,5.703-3.219C-572.141,745.923-570.822,747.724-570.723,749.754
				z"/>
			<path fill="#FFFFFF" d="M-545.471,761.591h-1.025c-0.133-0.734,0.029-1.921,0.221-2.825h-0.15
				c-1.619,2.343-3.682,3.086-5.703,3.086c-3.77,0-5.146-2.251-5.146-5.339c0-5.667,2.824-10.59,7.973-10.59
				c2.295,0,3.963,0.774,4.736,2.635h0.131c0.16-1.025,0.352-1.86,0.674-2.373h0.986L-545.471,761.591z M-545.309,753.133
				c0.611-3.831-0.514-6.054-3.994-6.054c-3.791,0-6.627,3.671-6.627,9.333c0,2.544,1.127,4.248,4.184,4.248
				C-547.984,760.66-545.822,757.056-545.309,753.133z"/>
			<path fill="#FFFFFF" d="M-541.93,764.748c0-0.291,0.027-0.422,0.131-0.773h1.145v0.352c0,1.608,1.289,2.676,4.193,2.735
				c3.119,0,5.4-1.479,6.275-5.692c0.191-0.995,0.441-2.281,0.836-3.51h-0.131c-1.289,2.284-3.279,3.963-6.084,3.963
				c-3.379,0-5.018-2.092-5.018-5.44c0-4.988,2.412-10.489,7.953-10.489c1.951,0,3.881,0.704,4.695,3.058h0.121
				c0.291-1.639,0.453-2.323,0.773-2.801h1.068l-2.959,15.512c-0.883,4.403-3.096,6.562-7.691,6.562
				C-539.266,768.223-541.93,767.162-541.93,764.748z M-528.576,752.49c0.352-2.604-0.453-5.44-3.963-5.44
				c-4.123,0-6.666,4.022-6.666,9.07c0,2.776,1.164,4.575,3.961,4.575C-531.543,760.695-529.1,756.221-528.576,752.49z"/>
			<path fill="#FFFFFF" d="M-523.92,756.252c0-5.079,2.572-10.329,8.367-10.329c3.799,0,4.855,1.992,4.855,3.731
				c0,2.675-2.795,5.118-10.035,5.118c-0.482,0-1.127,0-1.709-0.06c-0.092,0.482-0.131,1.025-0.131,1.508
				c0,2.484,0.904,4.439,4.193,4.439c3.789,0,5.178-2.025,5.369-3.766h1.156c0,0.23-0.029,0.452-0.061,0.674
				c-0.422,2.836-3.449,4.283-6.598,4.283C-523.055,761.852-523.92,758.927-523.92,756.252z M-520.512,753.747
				c6.668,0,8.467-2.132,8.467-3.963c0-1.508-1.156-2.664-3.742-2.664c-4.049,0-6.012,3.564-6.494,6.526
				C-521.566,753.747-521.084,753.747-520.512,753.747z"/>
			<path fill="#FFFFFF" d="M-495.129,752.65l-1.539,8.94h-1.389l1.52-8.688c0.482-2.7,0.703-5.853-3.41-5.853
				c-3.51,0-5.863,3.247-6.395,6.405l-1.398,8.136h-1.318l2.717-15.406h1.025c0.061,0.806-0.072,1.7-0.332,2.957h0.129
				c1.902-2.671,4.346-3.249,5.994-3.249C-494.828,745.893-494.535,749.302-495.129,752.65z"/>
			<path fill="#FFFFFF" d="M-482.449,756.925c0-1.83-1.738-2.343-3.801-2.755c-2.473-0.523-4.918-0.915-4.918-3.521
				c0-2.473,1.932-4.727,6.246-4.727c2.354,0,4.635,0.936,4.635,3.219c0,0.321-0.039,0.773-0.131,1.125h-1.156
				c0.252-2.412-1.389-3.188-3.57-3.188c-3.127,0-4.676,1.68-4.676,3.48c0,1.8,2.031,2.051,4.285,2.504
				c2.342,0.452,4.402,1.196,4.375,3.74c0,2.665-2.053,5.048-6.629,5.048c-2.865,0-5.018-1.096-5.018-3.64
				c0-0.383,0.059-0.896,0.223-1.348h1.094c-0.412,3.088,1.52,3.861,3.893,3.861C-483.705,760.726-482.449,758.539-482.449,756.925z
				"/>
			<path fill="#FFFFFF" d="M-456.867,755.708h-10.248l-3.135,5.883h-1.488l11.744-21.717h1.447l4.256,21.717h-1.42L-456.867,755.708
				z M-459.611,741.679c-1.025,2.022-2.051,3.953-3.117,5.913l-3.732,6.889h9.424l-1.348-6.816
				c-0.354-1.933-0.674-3.934-1.025-5.985H-459.611z"/>
			<path fill="#FFFFFF" d="M-451.305,756.252c0-5.079,2.563-10.329,8.357-10.329c3.811,0,4.867,1.992,4.867,3.731
				c0,2.675-2.809,5.118-10.037,5.118c-0.494,0-1.127,0-1.711-0.06c-0.1,0.482-0.131,1.025-0.131,1.508
				c0,2.484,0.906,4.439,4.184,4.439c3.793,0,5.182-2.025,5.371-3.766h1.156c0,0.23-0.021,0.452-0.061,0.674
				c-0.412,2.836-3.439,4.283-6.598,4.283C-450.451,761.852-451.305,758.927-451.305,756.252z M-447.896,753.747
				c6.648,0,8.467-2.132,8.467-3.963c0-1.508-1.164-2.664-3.74-2.664c-4.053,0-6.012,3.564-6.498,6.526
				C-448.953,753.747-448.471,753.747-447.896,753.747z M-444.104,743.409l4.121-4.435l1.127,1.097l-4.697,3.921L-444.104,743.409z"
				/>
			<path fill="#FFFFFF" d="M-435.93,761.591l2.705-15.406h0.996c0,0.936-0.092,1.992-0.352,3.148h0.131
				c1.125-2.183,3.527-3.44,5.982-3.471l-0.131,1.419c-4.605,0.251-6.055,2.921-6.596,6.104c-0.484,2.735-0.967,5.477-1.418,8.206
				H-435.93z"/>
			<path fill="#FFFFFF" d="M-426.598,756.252c0-5.079,2.574-10.329,8.357-10.329c3.811,0,4.867,1.992,4.867,3.731
				c0,2.675-2.805,5.118-10.037,5.118c-0.49,0-1.125,0-1.709-0.06c-0.102,0.482-0.131,1.025-0.131,1.508
				c0,2.484,0.906,4.439,4.184,4.439c3.791,0,5.18-2.025,5.371-3.766h1.156c0,0.23-0.02,0.452-0.063,0.674
				c-0.412,2.836-3.447,4.283-6.586,4.283C-425.742,761.852-426.598,758.927-426.598,756.252z M-423.189,753.747
				c6.658,0,8.469-2.132,8.469-3.963c0-1.508-1.166-2.664-3.742-2.664c-4.053,0-6.012,3.564-6.494,6.526
				C-424.254,753.747-423.771,753.747-423.189,753.747z"/>
			<path fill="#FFFFFF" d="M-399.154,761.591h-1.025c-0.131-0.734,0.02-1.921,0.211-2.825h-0.15
				c-1.619,2.343-3.67,3.086-5.703,3.086c-3.762,0-5.139-2.251-5.139-5.339c0-5.667,2.816-10.59,7.975-10.59
				c2.285,0,3.953,0.774,4.727,2.635h0.131c0.16-1.025,0.352-1.86,0.674-2.373h0.994L-399.154,761.591z M-398.994,753.133
				c0.604-3.831-0.521-6.054-3.992-6.054c-3.801,0-6.627,3.671-6.627,9.333c0,2.544,1.117,4.248,4.174,4.248
				C-401.67,760.66-399.516,757.056-398.994,753.133z"/>
			<path fill="#FFFFFF" d="M-384.785,756.925c0-1.83-1.729-2.343-3.789-2.755c-2.484-0.523-4.928-0.915-4.928-3.521
				c0-2.473,1.932-4.727,6.244-4.727c2.354,0,4.635,0.936,4.635,3.219c0,0.321-0.029,0.773-0.129,1.125h-1.156
				c0.252-2.412-1.389-3.188-3.57-3.188c-3.119,0-4.666,1.68-4.666,3.48c0,1.8,2.021,2.051,4.273,2.504
				c2.352,0.452,4.414,1.196,4.375,3.74c0,2.665-2.051,5.048-6.627,5.048c-2.867,0-5.018-1.096-5.018-3.64
				c0-0.383,0.068-0.896,0.23-1.348h1.086c-0.412,3.088,1.52,3.861,3.893,3.861C-386.031,760.726-384.785,758.539-384.785,756.925z"
				/>
			<path fill="#FFFFFF" d="M-371.711,756.252c0-5.079,2.564-10.329,8.357-10.329c3.801,0,4.867,1.992,4.867,3.731
				c0,2.675-2.807,5.118-10.037,5.118c-0.494,0-1.137,0-1.711-0.06c-0.107,0.482-0.129,1.025-0.129,1.508
				c0,2.484,0.895,4.439,4.182,4.439c3.803,0,5.182-2.025,5.373-3.766h1.156c0,0.23-0.031,0.452-0.063,0.674
				c-0.42,2.836-3.447,4.283-6.596,4.283C-370.846,761.852-371.711,758.927-371.711,756.252z M-368.303,753.747
				c6.656,0,8.467-2.132,8.467-3.963c0-1.508-1.164-2.664-3.74-2.664c-4.053,0-6.012,3.564-6.494,6.526
				C-369.369,753.747-368.885,753.747-368.303,753.747z"/>
			<path fill="#FFFFFF" d="M-344.459,739.91h12.893l-0.223,1.252h-11.553l-1.449,8.301h10.779l-0.191,1.257h-10.809l-1.709,9.585
				h12.518l-0.189,1.286h-13.879L-344.459,739.91z"/>
			<path fill="#FFFFFF" d="M-318.021,752.65l-1.559,8.94h-1.367l1.508-8.688c0.482-2.7,0.705-5.853-3.42-5.853
				c-3.498,0-5.852,3.247-6.395,6.405l-1.379,8.136h-1.328l2.707-15.406h1.025c0.072,0.806-0.059,1.7-0.322,2.957h0.131
				c1.9-2.671,4.344-3.249,5.984-3.249C-317.74,745.893-317.449,749.302-318.021,752.65z"/>
			<path fill="#FFFFFF" d="M-316.189,764.748c0-0.291,0.027-0.422,0.129-0.773h1.156v0.352c0,1.608,1.287,2.676,4.184,2.735
				c3.119,0,5.41-1.479,6.275-5.692c0.191-0.995,0.453-2.281,0.834-3.51h-0.129c-1.289,2.284-3.279,3.963-6.086,3.963
				c-3.367,0-5.018-2.092-5.018-5.44c0-4.988,2.412-10.489,7.945-10.489c1.971,0,3.9,0.704,4.695,3.058h0.141
				c0.281-1.639,0.443-2.323,0.775-2.801h1.057l-2.967,15.512c-0.865,4.403-3.088,6.562-7.695,6.562
				C-313.525,768.223-316.189,767.162-316.189,764.748z M-302.846,752.49c0.35-2.604-0.443-5.44-3.953-5.44
				c-4.113,0-6.658,4.022-6.658,9.07c0,2.776,1.158,4.575,3.965,4.575C-305.793,760.695-303.35,756.221-302.846,752.49z"/>
			<path fill="#FFFFFF" d="M-298.18,756.252c0-5.079,2.572-10.329,8.365-10.329c3.801,0,4.869,1.992,4.869,3.731
				c0,2.675-2.807,5.118-10.047,5.118c-0.482,0-1.127,0-1.699-0.06c-0.102,0.482-0.131,1.025-0.131,1.508
				c0,2.484,0.904,4.439,4.184,4.439c3.789,0,5.168-2.025,5.369-3.766h1.156c0,0.23-0.031,0.452-0.07,0.674
				c-0.404,2.836-3.439,4.283-6.576,4.283C-297.314,761.852-298.18,758.927-298.18,756.252z M-294.762,753.747
				c6.646,0,8.469-2.132,8.469-3.963c0-1.508-1.178-2.664-3.742-2.664c-4.063,0-6.014,3.564-6.496,6.526
				C-295.826,753.747-295.344,753.747-294.762,753.747z"/>
			<path fill="#FFFFFF" d="M-269.381,752.65l-1.539,8.94h-1.387l1.51-8.688c0.482-2.7,0.703-5.853-3.41-5.853
				c-3.51,0-5.863,3.247-6.406,6.405l-1.377,8.136h-1.318l2.695-15.406h1.037c0.061,0.806-0.07,1.7-0.322,2.957h0.119
				c1.902-2.671,4.346-3.249,5.984-3.249C-269.088,745.893-268.807,749.302-269.381,752.65z"/>
			<path fill="#FFFFFF" d="M-263.818,749.271c1.227-1.99,3.539-3.349,6.014-3.349c4.695,0,5.086,3.219,4.475,6.789l-1.508,8.879
				h-1.389l1.479-8.336c0.553-2.988,0.713-6.176-3.471-6.176c-3.6,0-5.762,3.349-6.275,6.275l-1.416,8.236h-1.316l4.01-22.838h1.328
				l-1.285,7.14c-0.172,0.966-0.455,2.344-0.766,3.379H-263.818z"/>
			<path fill="#FFFFFF" d="M-238.559,761.591h-1.025c-0.141-0.734,0.02-1.921,0.221-2.825h-0.16
				c-1.607,2.343-3.67,3.086-5.691,3.086c-3.771,0-5.158-2.251-5.158-5.339c0-5.667,2.836-10.59,7.973-10.59
				c2.295,0,3.963,0.774,4.748,2.635h0.119c0.162-1.025,0.363-1.86,0.674-2.373h0.996L-238.559,761.591z M-238.406,753.133
				c0.613-3.831-0.514-6.054-3.994-6.054c-3.789,0-6.625,3.671-6.625,9.333c0,2.544,1.125,4.248,4.182,4.248
				C-241.072,760.66-238.92,757.056-238.406,753.133z"/>
			<path fill="#FFFFFF" d="M-234.354,761.591l2.703-15.406h0.998c0,0.936-0.092,1.992-0.352,3.148h0.129
				c1.127-2.183,3.541-3.44,5.982-3.471l-0.131,1.419c-4.596,0.251-6.043,2.921-6.596,6.104c-0.482,2.735-0.965,5.477-1.408,8.206
				H-234.354z"/>
			<path fill="#FFFFFF" d="M-221.865,746.185h1.316l-2.703,15.406h-1.318L-221.865,746.185z M-219.27,740.775
				c0,0.678-0.533,1.256-1.176,1.256c-0.555,0-0.836-0.353-0.836-0.869c0-0.68,0.572-1.252,1.217-1.252
				C-219.582,739.91-219.27,740.293-219.27,740.775z"/>
			<path fill="#FFFFFF" d="M-205.977,761.591h-1.025c-0.121-0.734,0.031-1.921,0.223-2.825h-0.162
				c-1.609,2.343-3.66,3.086-5.693,3.086c-3.758,0-5.146-2.251-5.146-5.339c0-5.667,2.824-10.59,7.975-10.59
				c2.281,0,3.973,0.774,4.734,2.635h0.123c0.17-1.025,0.361-1.86,0.684-2.373h0.996L-205.977,761.591z M-205.814,753.133
				c0.611-3.831-0.514-6.054-3.992-6.054c-3.793,0-6.617,3.671-6.617,9.333c0,2.544,1.115,4.248,4.184,4.248
				C-208.479,760.66-206.328,757.056-205.814,753.133z"/>
		</g>
	</g>
	<g>
		<g>
			<path d="M-1235.299,606.636c-11.758,0-22.396,5.924-28.592,15.687V609.28c0-1.458-1.197-2.645-2.664-2.645
				c-1.457,0-2.645,1.187-2.645,2.645v152.41c0,1.458,1.188,2.655,2.645,2.655c1.467,0,2.664-1.197,2.664-2.655v-69.688
				c6.195,9.765,16.834,15.693,28.592,15.693c18.684,0,33.877-15.205,33.877-33.895v-33.275
				C-1201.422,621.84-1216.615,606.636-1235.299,606.636z M-1235.299,702.391c-15.771,0-28.592-12.821-28.592-28.59v-33.275
				c0-15.769,12.82-28.59,28.592-28.59c15.756,0,28.588,12.821,28.588,28.59v33.275
				C-1206.711,689.569-1219.543,702.391-1235.299,702.391z"/>
			<path d="M-1177.629,551.921c-1.459,0-2.645,1.187-2.645,2.655v150.469c0,1.459,1.186,2.65,2.645,2.65
				c1.469,0,2.654-1.191,2.654-2.65V554.576C-1174.975,553.107-1176.16,551.921-1177.629,551.921z"/>
			<path d="M-1088.701,606.636c-1.459,0-2.656,1.187-2.656,2.645v13.042c-6.184-9.763-16.834-15.687-28.588-15.687
				c-18.684,0-33.891,15.204-33.891,33.89v33.275c0,18.689,15.207,33.895,33.891,33.895c11.754,0,22.404-5.929,28.588-15.693v13.043
				c0,1.459,1.197,2.65,2.656,2.65c1.469,0,2.654-1.191,2.654-2.65V609.28C-1086.047,607.822-1087.232,606.636-1088.701,606.636z
				 M-1119.945,702.391c-15.76,0-28.592-12.821-28.592-28.59v-33.275c0-15.769,12.832-28.59,28.592-28.59
				c15.768,0,28.588,12.821,28.588,28.59v33.275C-1091.357,689.569-1104.178,702.391-1119.945,702.391z"/>
			<path d="M-1026.404,606.636c-11.734,0-22.385,5.924-28.578,15.687V609.28c0-1.458-1.189-2.645-2.656-2.645
				c-1.457,0-2.654,1.187-2.654,2.645v95.765c0,1.459,1.197,2.65,2.654,2.65c1.467,0,2.656-1.191,2.656-2.65v-64.52
				c0-15.769,12.82-28.59,28.578-28.59c15.77,0,28.59,12.821,28.59,28.59v64.52c0,1.459,1.186,2.65,2.656,2.65
				c1.467,0,2.652-1.191,2.652-2.65v-64.52C-992.506,621.84-1007.711,606.636-1026.404,606.636z"/>
			<path d="M-910.859,606.636c-1.459,0-2.664,1.187-2.664,2.645v13.042c-6.174-9.763-16.824-15.687-28.57-15.687
				c-18.705,0-33.898,15.204-33.898,33.89v33.275c0,18.689,15.193,33.895,33.898,33.895c11.746,0,22.396-5.929,28.57-15.693v13.043
				c0,1.459,1.205,2.65,2.664,2.65c1.469,0,2.654-1.191,2.654-2.65V609.28C-908.205,607.822-909.391,606.636-910.859,606.636z
				 M-942.094,702.391c-15.768,0-28.59-12.821-28.59-28.59v-33.275c0-15.769,12.822-28.59,28.59-28.59
				c15.758,0,28.57,12.821,28.57,28.59v33.275C-913.523,689.569-926.336,702.391-942.094,702.391z"/>
			<path d="M-848.553,606.636c-11.754,0-22.393,5.924-28.588,15.687l0.041-125.107c0-17.468-14.16-31.677-31.617-31.758h-123.48
				c-1.367,0-2.533,1.037-2.674,2.399c-0.08,0.598-1.611,14.838,6.789,24.271c4.424,4.968,10.709,7.612,18.664,7.864
				c-0.041,4.696,0.732,14.325,6.947,21.298c4.625,5.22,11.283,7.864,19.762,7.895h6.111c-0.039,4.706,0.734,14.319,6.949,21.283
				c4.637,5.204,11.275,7.859,19.76,7.891h67.439v146.688c0,1.459,1.186,2.65,2.652,2.65c1.469,0,2.656-1.191,2.656-2.65v-64.52
				c0-15.769,12.82-28.59,28.588-28.59c15.77,0,28.57,12.821,28.57,28.59v64.52c0,1.459,1.207,2.65,2.666,2.65
				c1.469,0,2.645-1.191,2.645-2.65v-64.52C-814.672,621.84-829.867,606.636-848.553,606.636z M-971.176,529.184h42.729
				c1.498,0,2.715-1.217,2.715-2.716c0-1.487-1.217-2.704-2.715-2.704h-54.254c-6.867-0.021-12.158-2.062-15.717-6.054
				c-4.949-5.552-5.592-13.646-5.572-17.699h58.205c1.5,0,2.727-1.217,2.727-2.715c0-1.499-1.227-2.706-2.727-2.706h-62.527
				c-6.857-0.024-12.148-2.061-15.709-6.053c-4.947-5.541-5.6-13.616-5.572-17.669h120.734c14.523,0,26.328,11.826,26.328,26.347
				c0,0.221,0.041,0.393,0.082,0.373v55.349h-67.428c-6.857-0.021-12.148-2.062-15.719-6.054
				C-970.543,541.321-971.186,533.236-971.176,529.184z"/>
		</g>
		<g>
			<path d="M-1198.445,739.91h1.367l-3.82,21.681h-1.348L-1198.445,739.91z"/>
			<path d="M-1182.717,749.754c1.359-2.442,3.48-3.861,6.105-3.861c4.635,0,4.936,3.44,4.281,7.01l-1.457,8.688h-1.336l1.447-8.648
				c0.543-3.027,0.412-5.893-3.119-5.893c-3.449,0-5.611,3.122-6.113,6.053l-1.518,8.488h-1.318l1.479-8.396
				c0.563-2.992,0.514-6.115-3.307-6.115c-3.51,0-5.543,3.249-6.047,6.176l-1.457,8.336h-1.316l2.693-15.406h1.025
				c0.053,0.806-0.02,1.7-0.279,2.957h0.119c1.779-2.736,4.074-3.219,5.713-3.219
				C-1184.135,745.923-1182.816,747.724-1182.717,749.754z"/>
			<path d="M-1157.477,761.591h-1.016c-0.129-0.734,0.031-1.921,0.223-2.825h-0.16c-1.619,2.343-3.672,3.086-5.693,3.086
				c-3.771,0-5.148-2.251-5.148-5.339c0-5.667,2.824-10.59,7.984-10.59c2.283,0,3.951,0.774,4.725,2.635h0.133
				c0.162-1.025,0.35-1.86,0.664-2.373h0.994L-1157.477,761.591z M-1157.293,753.133c0.592-3.831-0.525-6.054-3.994-6.054
				c-3.801,0-6.627,3.671-6.627,9.333c0,2.544,1.115,4.248,4.172,4.248C-1159.98,760.66-1157.818,757.056-1157.293,753.133z"/>
			<path d="M-1153.926,764.748c0-0.291,0.039-0.422,0.119-0.773h1.158v0.352c0,1.608,1.287,2.676,4.191,2.735
				c3.119,0,5.4-1.479,6.277-5.692c0.191-0.995,0.443-2.281,0.834-3.51h-0.131c-1.287,2.284-3.279,3.963-6.074,3.963
				c-3.389,0-5.027-2.092-5.027-5.44c0-4.988,2.414-10.489,7.953-10.489c1.951,0,3.873,0.704,4.697,3.058h0.131
				c0.291-1.639,0.441-2.323,0.754-2.801h1.076l-2.967,15.512c-0.865,4.403-3.088,6.562-7.684,6.562
				C-1151.25,768.223-1153.926,767.162-1153.926,764.748z M-1140.572,752.49c0.352-2.604-0.451-5.44-3.961-5.44
				c-4.123,0-6.656,4.022-6.656,9.07c0,2.776,1.156,4.575,3.949,4.575C-1143.539,760.695-1141.094,756.221-1140.572,752.49z"/>
			<path d="M-1135.916,756.252c0-5.079,2.576-10.329,8.367-10.329c3.791,0,4.855,1.992,4.855,3.731
				c0,2.675-2.793,5.118-10.035,5.118c-0.482,0-1.125,0-1.709-0.06c-0.09,0.482-0.143,1.025-0.143,1.508
				c0,2.484,0.918,4.439,4.205,4.439c3.791,0,5.18-2.025,5.371-3.766h1.154c0,0.23-0.029,0.452-0.061,0.674
				c-0.422,2.836-3.447,4.283-6.594,4.283C-1135.039,761.852-1135.916,758.927-1135.916,756.252z M-1132.506,753.747
				c6.666,0,8.467-2.132,8.467-3.963c0-1.508-1.156-2.664-3.732-2.664c-4.053,0-6.023,3.564-6.506,6.526
				C-1133.563,753.747-1133.08,753.747-1132.506,753.747z"/>
			<path d="M-1107.125,752.65l-1.539,8.94h-1.377l1.52-8.688c0.471-2.7,0.693-5.853-3.422-5.853c-3.498,0-5.852,3.247-6.395,6.405
				l-1.387,8.136h-1.328l2.715-15.406h1.025c0.061,0.806-0.068,1.7-0.332,2.957h0.141c1.891-2.671,4.336-3.249,5.984-3.249
				C-1106.822,745.893-1106.531,749.302-1107.125,752.65z"/>
			<path d="M-1094.443,756.925c0-1.83-1.74-2.343-3.803-2.755c-2.465-0.523-4.918-0.915-4.918-3.521
				c0-2.473,1.932-4.727,6.246-4.727c2.342,0,4.635,0.936,4.635,3.219c0,0.321-0.039,0.773-0.131,1.125h-1.156
				c0.252-2.412-1.385-3.188-3.578-3.188c-3.119,0-4.668,1.68-4.668,3.48c0,1.8,2.031,2.051,4.285,2.504
				c2.344,0.452,4.395,1.196,4.375,3.74c0,2.665-2.051,5.048-6.629,5.048c-2.875,0-5.018-1.096-5.018-3.64
				c0-0.383,0.063-0.896,0.223-1.348h1.096c-0.412,3.088,1.508,3.861,3.891,3.861
				C-1095.713,760.726-1094.443,758.539-1094.443,756.925z"/>
			<path d="M-1068.861,755.708h-10.246l-3.139,5.883h-1.488l11.746-21.717h1.449l4.252,21.717h-1.428L-1068.861,755.708z
				 M-1071.596,741.679c-1.037,2.022-2.063,3.953-3.129,5.913l-3.729,6.889h9.43l-1.355-6.816c-0.352-1.933-0.684-3.934-1.025-5.985
				H-1071.596z"/>
			<path d="M-1063.301,756.252c0-5.079,2.566-10.329,8.367-10.329c3.801,0,4.857,1.992,4.857,3.731
				c0,2.675-2.805,5.118-10.037,5.118c-0.49,0-1.125,0-1.709-0.06c-0.09,0.482-0.129,1.025-0.129,1.508
				c0,2.484,0.904,4.439,4.172,4.439c3.801,0,5.199-2.025,5.381-3.766h1.156c0,0.23-0.02,0.452-0.051,0.674
				c-0.422,2.836-3.449,4.283-6.605,4.283C-1062.445,761.852-1063.301,758.927-1063.301,756.252z M-1059.893,753.747
				c6.658,0,8.469-2.132,8.469-3.963c0-1.508-1.156-2.664-3.742-2.664c-4.053,0-6.012,3.564-6.494,6.526
				C-1060.947,753.747-1060.465,753.747-1059.893,753.747z M-1056.1,743.409l4.123-4.435l1.127,1.097l-4.697,3.921L-1056.1,743.409z
				"/>
			<path d="M-1047.924,761.591l2.705-15.406h0.994c0,0.936-0.09,1.992-0.352,3.148h0.131c1.127-2.183,3.539-3.44,5.984-3.471
				l-0.131,1.419c-4.596,0.251-6.055,2.921-6.598,6.104c-0.492,2.735-0.965,5.477-1.428,8.206H-1047.924z"/>
			<path d="M-1038.592,756.252c0-5.079,2.572-10.329,8.355-10.329c3.813,0,4.867,1.992,4.867,3.731
				c0,2.675-2.795,5.118-10.035,5.118c-0.492,0-1.127,0-1.709-0.06c-0.092,0.482-0.131,1.025-0.131,1.508
				c0,2.484,0.904,4.439,4.184,4.439c3.781,0,5.178-2.025,5.369-3.766h1.166c0,0.23-0.029,0.452-0.061,0.674
				c-0.422,2.836-3.467,4.283-6.598,4.283C-1037.738,761.852-1038.592,758.927-1038.592,756.252z M-1035.184,753.747
				c6.658,0,8.467-2.132,8.467-3.963c0-1.508-1.166-2.664-3.74-2.664c-4.063,0-6.025,3.564-6.496,6.526
				C-1036.25,753.747-1035.768,753.747-1035.184,753.747z"/>
			<path d="M-1011.148,761.591h-1.025c-0.133-0.734,0.027-1.921,0.211-2.825h-0.16c-1.6,2.343-3.662,3.086-5.693,3.086
				c-3.76,0-5.139-2.251-5.139-5.339c0-5.667,2.826-10.59,7.973-10.59c2.273,0,3.953,0.774,4.727,2.635h0.123
				c0.172-1.025,0.361-1.86,0.693-2.373h0.994L-1011.148,761.591z M-1010.988,753.133c0.594-3.831-0.512-6.054-3.994-6.054
				c-3.789,0-6.625,3.671-6.625,9.333c0,2.544,1.125,4.248,4.172,4.248C-1013.662,760.66-1011.5,757.056-1010.988,753.133z"/>
			<path d="M-996.77,756.925c0-1.83-1.738-2.343-3.801-2.755c-2.475-0.523-4.928-0.915-4.928-3.521c0-2.473,1.932-4.727,6.244-4.727
				c2.354,0,4.637,0.936,4.637,3.219c0,0.321-0.029,0.773-0.131,1.125h-1.156c0.252-2.412-1.387-3.188-3.57-3.188
				c-3.127,0-4.676,1.68-4.676,3.48c0,1.8,2.041,2.051,4.285,2.504c2.342,0.452,4.404,1.196,4.383,3.74
				c0,2.665-2.061,5.048-6.627,5.048c-2.885,0-5.027-1.096-5.027-3.64c0-0.383,0.07-0.896,0.23-1.348h1.098
				c-0.422,3.088,1.496,3.861,3.881,3.861C-998.035,760.726-996.77,758.539-996.77,756.925z"/>
			<path d="M-983.715,756.252c0-5.079,2.574-10.329,8.377-10.329c3.789,0,4.855,1.992,4.855,3.731c0,2.675-2.805,5.118-10.045,5.118
				c-0.482,0-1.137,0-1.699-0.06c-0.104,0.482-0.131,1.025-0.131,1.508c0,2.484,0.904,4.439,4.184,4.439
				c3.801,0,5.178-2.025,5.369-3.766h1.156c0,0.23-0.031,0.452-0.061,0.674c-0.412,2.836-3.449,4.283-6.607,4.283
				C-982.852,761.852-983.715,758.927-983.715,756.252z M-980.297,753.747c6.658,0,8.467-2.132,8.467-3.963
				c0-1.508-1.166-2.664-3.74-2.664c-4.053,0-6.014,3.564-6.508,6.526C-981.363,753.747-980.891,753.747-980.297,753.747z"/>
			<path d="M-956.453,739.91h12.891l-0.221,1.252h-11.545l-1.457,8.301h10.789l-0.199,1.257h-10.822l-1.699,9.585h12.521
				l-0.203,1.286h-13.857L-956.453,739.91z"/>
			<path d="M-930.016,752.65l-1.549,8.94h-1.379l1.5-8.688c0.49-2.7,0.713-5.853-3.4-5.853c-3.51,0-5.863,3.247-6.404,6.405
				l-1.377,8.136h-1.32l2.697-15.406h1.025c0.07,0.806-0.061,1.7-0.324,2.957h0.133c1.9-2.671,4.334-3.249,5.982-3.249
				C-929.744,745.893-929.443,749.302-930.016,752.65z"/>
			<path d="M-928.197,764.748c0-0.291,0.041-0.422,0.143-0.773h1.154v0.352c0,1.608,1.279,2.676,4.184,2.735
				c3.129,0,5.412-1.479,6.275-5.692c0.191-0.995,0.443-2.281,0.836-3.51h-0.131c-1.297,2.284-3.279,3.963-6.074,3.963
				c-3.379,0-5.027-2.092-5.027-5.44c0-4.988,2.414-10.489,7.955-10.489c1.959,0,3.889,0.704,4.695,3.058h0.131
				c0.279-1.639,0.441-2.323,0.773-2.801h1.057l-2.959,15.512c-0.873,4.403-3.096,6.562-7.691,6.562
				C-925.512,768.223-928.197,767.162-928.197,764.748z M-914.832,752.49c0.352-2.604-0.453-5.44-3.963-5.44
				c-4.113,0-6.654,4.022-6.654,9.07c0,2.776,1.154,4.575,3.949,4.575C-917.787,760.695-915.346,756.221-914.832,752.49z"/>
			<path d="M-910.176,756.252c0-5.079,2.574-10.329,8.377-10.329c3.793,0,4.857,1.992,4.857,3.731c0,2.675-2.807,5.118-10.047,5.118
				c-0.482,0-1.125,0-1.699-0.06c-0.1,0.482-0.131,1.025-0.131,1.508c0,2.484,0.904,4.439,4.184,4.439
				c3.793,0,5.178-2.025,5.369-3.766h1.168c0,0.23-0.051,0.452-0.07,0.674c-0.412,2.836-3.451,4.283-6.588,4.283
				C-909.311,761.852-910.176,758.927-910.176,756.252z M-906.758,753.747c6.658,0,8.469-2.132,8.469-3.963
				c0-1.508-1.168-2.664-3.742-2.664c-4.051,0-6.014,3.564-6.496,6.526C-907.822,753.747-907.352,753.747-906.758,753.747z"/>
			<path d="M-881.375,752.65l-1.537,8.94h-1.389l1.518-8.688c0.473-2.7,0.705-5.853-3.408-5.853c-3.521,0-5.871,3.247-6.416,6.405
				l-1.377,8.136h-1.318l2.695-15.406h1.035c0.061,0.806-0.07,1.7-0.33,2.957h0.139c1.891-2.671,4.346-3.249,5.984-3.249
				C-881.084,745.893-880.791,749.302-881.375,752.65z"/>
			<path d="M-875.813,749.271c1.225-1.99,3.539-3.349,6.012-3.349c4.688,0,5.09,3.219,4.477,6.789l-1.5,8.879h-1.396l1.467-8.336
				c0.564-2.988,0.727-6.176-3.459-6.176c-3.6,0-5.762,3.349-6.273,6.275l-1.428,8.236h-1.309l4.014-22.838h1.324l-1.275,7.14
				c-0.182,0.966-0.463,2.344-0.775,3.379H-875.813z"/>
			<path d="M-850.553,761.591h-1.025c-0.141-0.734,0.02-1.921,0.221-2.825h-0.162c-1.607,2.343-3.67,3.086-5.691,3.086
				c-3.77,0-5.146-2.251-5.146-5.339c0-5.667,2.824-10.59,7.973-10.59c2.295,0,3.941,0.774,4.736,2.635h0.123
				c0.16-1.025,0.359-1.86,0.674-2.373h0.984L-850.553,761.591z M-850.391,753.133c0.602-3.831-0.523-6.054-3.994-6.054
				c-3.801,0-6.625,3.671-6.625,9.333c0,2.544,1.113,4.248,4.172,4.248C-853.066,760.66-850.914,757.056-850.391,753.133z"/>
			<path d="M-846.338,761.591l2.703-15.406h0.986c0,0.936-0.092,1.992-0.352,3.148h0.129c1.127-2.183,3.541-3.44,5.986-3.471
				l-0.123,1.419c-4.604,0.251-6.053,2.921-6.605,6.104c-0.494,2.735-0.967,5.477-1.42,8.206H-846.338z"/>
			<path d="M-833.859,746.185h1.318l-2.707,15.406h-1.316L-833.859,746.185z M-831.256,740.775c0,0.678-0.543,1.256-1.186,1.256
				c-0.553,0-0.846-0.353-0.846-0.869c0-0.68,0.584-1.252,1.229-1.252C-831.576,739.91-831.256,740.293-831.256,740.775z"/>
			<path d="M-817.971,761.591h-1.016c-0.131-0.734,0.02-1.921,0.211-2.825h-0.15c-1.619,2.343-3.67,3.086-5.701,3.086
				c-3.762,0-5.15-2.251-5.15-5.339c0-5.667,2.826-10.59,7.975-10.59c2.293,0,3.961,0.774,4.738,2.635h0.129
				c0.162-1.025,0.354-1.86,0.674-2.373h0.996L-817.971,761.591z M-817.811,753.133c0.615-3.831-0.514-6.054-3.992-6.054
				c-3.791,0-6.617,3.671-6.617,9.333c0,2.544,1.117,4.248,4.184,4.248C-820.475,760.66-818.324,757.056-817.811,753.133z"/>
		</g>
	</g>
	<g>
		<g>
			<path fill="#00597E" d="M-1235.311,1056.636c-11.756,0-22.383,5.928-28.588,15.693v-13.044c0-1.463-1.188-2.649-2.654-2.649
				c-1.471,0-2.646,1.187-2.646,2.649v152.405c0,1.465,1.176,2.66,2.646,2.66c1.467,0,2.654-1.195,2.654-2.66v-69.688
				c6.205,9.77,16.832,15.693,28.588,15.693c18.695,0,33.9-15.205,33.9-33.889v-33.281
				C-1201.41,1071.836-1216.615,1056.636-1235.311,1056.636z M-1235.311,1152.391c-15.758,0-28.588-12.816-28.588-28.584v-33.281
				c0-15.764,12.83-28.586,28.588-28.586c15.768,0,28.592,12.822,28.592,28.586v33.281
				C-1206.719,1139.574-1219.543,1152.391-1235.311,1152.391z"/>
			<path fill="#00597E" d="M-1177.637,1001.925c-1.459,0-2.645,1.187-2.645,2.651v150.469c0,1.464,1.186,2.65,2.645,2.65
				c1.467,0,2.652-1.187,2.652-2.65v-150.469C-1174.984,1003.111-1176.17,1001.925-1177.637,1001.925z"/>
			<path fill="#00597E" d="M-1088.713,1056.636c-1.457,0-2.645,1.187-2.645,2.649v13.044c-6.191-9.766-16.842-15.693-28.588-15.693
				c-18.684,0-33.898,15.2-33.898,33.89v33.281c0,18.684,15.215,33.889,33.898,33.889c11.746,0,22.396-5.924,28.588-15.693v13.043
				c0,1.464,1.188,2.65,2.645,2.65c1.471,0,2.656-1.187,2.656-2.65v-95.76C-1086.057,1057.822-1087.242,1056.636-1088.713,1056.636z
				 M-1119.945,1152.391c-15.768,0-28.59-12.816-28.59-28.584v-33.281c0-15.764,12.822-28.586,28.59-28.586
				c15.758,0,28.588,12.822,28.588,28.586v33.281C-1091.357,1139.574-1104.188,1152.391-1119.945,1152.391z"/>
			<path fill="#00597E" d="M-1026.404,1056.636c-11.746,0-22.393,5.928-28.588,15.693v-13.044c0-1.463-1.188-2.649-2.656-2.649
				c-1.459,0-2.656,1.187-2.656,2.649v95.76c0,1.464,1.197,2.65,2.656,2.65c1.469,0,2.656-1.187,2.656-2.65v-64.52
				c0-15.764,12.82-28.586,28.588-28.586c15.758,0,28.59,12.822,28.59,28.586v64.52c0,1.464,1.188,2.65,2.656,2.65
				c1.467,0,2.645-1.187,2.645-2.65v-64.52C-992.514,1071.836-1007.719,1056.636-1026.404,1056.636z"/>
			<path fill="#00597E" d="M-910.859,1056.636c-1.467,0-2.664,1.187-2.664,2.649v13.044c-6.186-9.766-16.834-15.693-28.58-15.693
				c-18.684,0-33.889,15.2-33.889,33.89v33.281c0,18.684,15.205,33.889,33.889,33.889c11.746,0,22.395-5.924,28.58-15.693v13.043
				c0,1.464,1.197,2.65,2.664,2.65c1.457,0,2.645-1.187,2.645-2.65v-95.76C-908.215,1057.822-909.402,1056.636-910.859,1056.636z
				 M-942.104,1152.391c-15.768,0-28.58-12.816-28.58-28.584v-33.281c0-15.764,12.813-28.586,28.58-28.586
				c15.76,0,28.58,12.822,28.58,28.586v33.281C-913.523,1139.574-926.344,1152.391-942.104,1152.391z"/>
			<path fill="#00597E" d="M-848.553,1056.636c-11.754,0-22.402,5.928-28.588,15.693l0.031-125.114
				c0-17.462-14.16-31.672-31.607-31.758h-123.479c-1.369,0-2.533,1.037-2.686,2.399c-0.07,0.603-1.6,14.842,6.799,24.275
				c4.414,4.967,10.697,7.607,18.664,7.853c-0.053,4.707,0.732,14.332,6.939,21.311c4.623,5.214,11.281,7.863,19.758,7.894h6.115
				c-0.029,4.707,0.744,14.314,6.947,21.278c4.639,5.21,11.285,7.859,19.762,7.895h67.447v146.684c0,1.464,1.186,2.65,2.652,2.65
				c1.459,0,2.656-1.187,2.656-2.65v-64.52c0-15.764,12.813-28.586,28.588-28.586c15.76,0,28.58,12.822,28.58,28.586v64.52
				c0,1.464,1.188,2.65,2.645,2.65c1.469,0,2.656-1.187,2.656-2.65v-64.52C-814.672,1071.836-829.877,1056.636-848.553,1056.636z
				 M-971.166,979.188h42.729c1.479,0,2.705-1.217,2.705-2.714c0-1.489-1.227-2.711-2.705-2.711h-54.271
				c-6.869-0.021-12.158-2.057-15.717-6.054c-4.949-5.552-5.592-13.651-5.572-17.694h58.213c1.5,0,2.717-1.217,2.717-2.715
				c0-1.499-1.217-2.711-2.717-2.711h-62.527c-6.857-0.024-12.148-2.057-15.717-6.053c-4.939-5.541-5.592-13.616-5.572-17.664
				h120.734c14.531,0,26.338,11.821,26.338,26.342c0,0.227,0.039,0.397,0.08,0.377v55.345h-67.438
				c-6.859-0.021-12.148-2.057-15.707-6.054C-970.551,991.327-971.195,983.231-971.166,979.188z"/>
		</g>
		<g>
			<path fill="#00597E" d="M-1198.455,1189.91h1.377l-3.818,21.685h-1.348L-1198.455,1189.91z"/>
			<path fill="#00597E" d="M-1182.727,1199.754c1.357-2.442,3.479-3.861,6.115-3.861c4.635,0,4.926,3.444,4.283,7.015l-1.447,8.688
				h-1.348l1.436-8.652c0.555-3.032,0.424-5.888-3.115-5.888c-3.439,0-5.602,3.117-6.115,6.048l-1.52,8.492h-1.305l1.477-8.396
				c0.555-2.996,0.514-6.113-3.318-6.113c-3.498,0-5.541,3.247-6.043,6.175l-1.449,8.335h-1.326l2.705-15.41h1.035
				c0.031,0.81-0.041,1.705-0.291,2.957h0.119c1.771-2.73,4.064-3.213,5.703-3.213
				C-1184.143,1195.929-1182.816,1197.729-1182.727,1199.754z"/>
			<path fill="#00597E" d="M-1157.465,1211.595h-1.037c-0.119-0.743,0.041-1.93,0.232-2.829h-0.16
				c-1.609,2.347-3.67,3.093-5.701,3.093c-3.762,0-5.15-2.254-5.15-5.341c0-5.672,2.836-10.589,7.984-10.589
				c2.283,0,3.963,0.764,4.727,2.635h0.131c0.172-1.026,0.361-1.871,0.686-2.379h0.984L-1157.465,1211.595z M-1157.305,1203.139
				c0.613-3.832-0.512-6.054-3.992-6.054c-3.791,0-6.627,3.671-6.627,9.332c0,2.544,1.125,4.243,4.184,4.243
				C-1159.979,1210.66-1157.816,1207.06-1157.305,1203.139z"/>
			<path fill="#00597E" d="M-1153.926,1214.754c0-0.293,0.031-0.423,0.121-0.775h1.158v0.353c0,1.609,1.285,2.671,4.182,2.735
				c3.117,0,5.4-1.484,6.273-5.691c0.191-0.996,0.455-2.283,0.836-3.51h-0.131c-1.287,2.282-3.277,3.962-6.074,3.962
				c-3.379,0-5.018-2.097-5.018-5.445c0-4.982,2.414-10.489,7.945-10.489c1.959,0,3.893,0.71,4.695,3.062h0.131
				c0.291-1.643,0.443-2.321,0.773-2.805h1.066l-2.965,15.518c-0.877,4.404-3.088,6.556-7.693,6.556
				C-1151.262,1218.223-1153.926,1217.167-1153.926,1214.754z M-1140.58,1202.494c0.352-2.614-0.443-5.439-3.953-5.439
				c-4.123,0-6.666,4.022-6.666,9.07c0,2.766,1.156,4.57,3.961,4.57C-1143.537,1210.695-1141.094,1206.221-1140.58,1202.494z"/>
			<path fill="#00597E" d="M-1135.914,1206.256c0-5.088,2.574-10.327,8.357-10.327c3.801,0,4.855,1.991,4.855,3.729
				c0,2.671-2.797,5.12-10.037,5.12c-0.471,0-1.115,0-1.699-0.061c-0.1,0.478-0.131,1.025-0.131,1.503
				c0,2.479,0.896,4.439,4.184,4.439c3.801,0,5.178-2.025,5.381-3.761h1.146c0,0.226-0.021,0.447-0.061,0.673
				c-0.424,2.832-3.439,4.286-6.586,4.286C-1135.051,1211.858-1135.914,1208.921-1135.914,1206.256z M-1132.506,1203.747
				c6.656,0,8.457-2.126,8.457-3.957c0-1.509-1.158-2.675-3.73-2.675c-4.053,0-6.014,3.569-6.496,6.536
				C-1133.561,1203.747-1133.09,1203.747-1132.506,1203.747z"/>
			<path fill="#00597E" d="M-1107.125,1202.655l-1.549,8.939h-1.377l1.518-8.688c0.482-2.705,0.693-5.853-3.418-5.853
				c-3.5,0-5.854,3.248-6.395,6.4l-1.389,8.14h-1.316l2.705-15.41h1.035c0.061,0.81-0.07,1.705-0.342,2.957h0.141
				c1.9-2.671,4.334-3.249,5.982-3.249C-1106.834,1195.893-1106.541,1199.307-1107.125,1202.655z"/>
			<path fill="#00597E" d="M-1094.453,1206.93c0-1.835-1.73-2.348-3.793-2.766c-2.473-0.513-4.916-0.904-4.916-3.509
				c0-2.475,1.932-4.727,6.234-4.727c2.354,0,4.637,0.936,4.637,3.213c0,0.327-0.031,0.769-0.121,1.131h-1.166
				c0.262-2.413-1.377-3.188-3.57-3.188c-3.129,0-4.668,1.674-4.668,3.469c0,1.811,2.023,2.063,4.287,2.515
				c2.342,0.451,4.404,1.191,4.363,3.73c0,2.676-2.053,5.06-6.627,5.06c-2.857,0-5.008-1.098-5.008-3.642
				c0-0.382,0.061-0.9,0.221-1.348h1.088c-0.414,3.088,1.516,3.862,3.9,3.862
				C-1095.701,1210.731-1094.453,1208.539-1094.453,1206.93z"/>
			<path fill="#00597E" d="M-1068.869,1205.703h-10.238l-3.148,5.892h-1.479l11.746-21.721h1.449l4.242,21.721h-1.406
				L-1068.869,1205.703z M-1071.605,1191.679c-1.025,2.028-2.051,3.958-3.127,5.92l-3.721,6.888h9.422l-1.348-6.818
				c-0.361-1.937-0.672-3.932-1.025-5.989H-1071.605z"/>
			<path fill="#00597E" d="M-1063.301,1206.256c0-5.088,2.566-10.327,8.357-10.327c3.801,0,4.857,1.991,4.857,3.729
				c0,2.671-2.795,5.12-10.035,5.12c-0.482,0-1.129,0-1.711-0.061c-0.09,0.478-0.119,1.025-0.119,1.503
				c0,2.479,0.893,4.439,4.172,4.439c3.801,0,5.189-2.025,5.381-3.761h1.156c0,0.226-0.031,0.447-0.061,0.673
				c-0.422,2.832-3.438,4.286-6.596,4.286C-1062.443,1211.858-1063.301,1208.921-1063.301,1206.256z M-1059.9,1203.747
				c6.656,0,8.467-2.126,8.467-3.957c0-1.509-1.156-2.675-3.73-2.675c-4.053,0-6.023,3.569-6.496,6.536
				C-1060.955,1203.747-1060.473,1203.747-1059.9,1203.747z M-1056.1,1193.414l4.123-4.444l1.117,1.102l-4.697,3.927
				L-1056.1,1193.414z"/>
			<path fill="#00597E" d="M-1047.924,1211.595l2.693-15.41h1.008c0,0.931-0.102,1.996-0.361,3.152h0.131
				c1.125-2.182,3.539-3.444,5.982-3.479l-0.121,1.424c-4.605,0.256-6.053,2.921-6.596,6.108c-0.494,2.735-0.977,5.472-1.428,8.205
				H-1047.924z"/>
			<path fill="#00597E" d="M-1038.592,1206.256c0-5.088,2.574-10.327,8.355-10.327c3.803,0,4.857,1.991,4.857,3.729
				c0,2.671-2.795,5.12-10.035,5.12c-0.482,0-1.125,0-1.711-0.061c-0.088,0.478-0.119,1.025-0.119,1.503
				c0,2.479,0.896,4.439,4.172,4.439c3.805,0,5.18-2.025,5.381-3.761h1.156c0,0.226-0.029,0.447-0.061,0.673
				c-0.422,2.832-3.449,4.286-6.596,4.286C-1037.736,1211.858-1038.592,1208.921-1038.592,1206.256z M-1035.191,1203.747
				c6.654,0,8.465-2.126,8.465-3.957c0-1.509-1.166-2.675-3.73-2.675c-4.053,0-6.023,3.569-6.496,6.536
				C-1036.248,1203.747-1035.777,1203.747-1035.191,1203.747z"/>
			<path fill="#00597E" d="M-1011.148,1211.595h-1.035c-0.123-0.743,0.029-1.93,0.221-2.829h-0.16
				c-1.611,2.347-3.662,3.093-5.693,3.093c-3.76,0-5.148-2.254-5.148-5.341c0-5.672,2.826-10.589,7.975-10.589
				c2.283,0,3.963,0.764,4.736,2.635h0.133c0.16-1.026,0.352-1.871,0.674-2.379h0.994L-1011.148,1211.595z M-1010.998,1203.139
				c0.613-3.832-0.512-6.054-3.992-6.054c-3.791,0-6.627,3.671-6.627,9.332c0,2.544,1.125,4.243,4.184,4.243
				C-1013.662,1210.66-1011.51,1207.06-1010.998,1203.139z"/>
			<path fill="#00597E" d="M-996.777,1206.93c0-1.835-1.73-2.348-3.791-2.766c-2.484-0.513-4.93-0.904-4.93-3.509
				c0-2.475,1.932-4.727,6.234-4.727c2.354,0,4.639,0.936,4.639,3.213c0,0.327-0.02,0.769-0.123,1.131h-1.164
				c0.26-2.413-1.379-3.188-3.57-3.188c-3.119,0-4.656,1.674-4.656,3.469c0,1.811,2.02,2.063,4.273,2.515
				c2.354,0.451,4.414,1.191,4.375,3.73c0,2.676-2.063,5.06-6.629,5.06c-2.865,0-5.018-1.098-5.018-3.642
				c0-0.382,0.061-0.9,0.23-1.348h1.088c-0.422,3.088,1.508,3.862,3.891,3.862C-998.035,1210.731-996.777,1208.539-996.777,1206.93z
				"/>
			<path fill="#00597E" d="M-983.715,1206.256c0-5.088,2.574-10.327,8.365-10.327c3.793,0,4.857,1.991,4.857,3.729
				c0,2.671-2.795,5.12-10.035,5.12c-0.492,0-1.137,0-1.711-0.061c-0.1,0.478-0.129,1.025-0.129,1.503
				c0,2.479,0.904,4.439,4.182,4.439c3.801,0,5.189-2.025,5.381-3.761h1.156c0,0.226-0.039,0.447-0.061,0.673
				c-0.422,2.832-3.449,4.286-6.605,4.286C-982.842,1211.858-983.715,1208.921-983.715,1206.256z M-980.305,1203.747
				c6.666,0,8.465-2.126,8.465-3.957c0-1.509-1.156-2.675-3.73-2.675c-4.053,0-6.023,3.569-6.506,6.536
				C-981.373,1203.747-980.891,1203.747-980.305,1203.747z"/>
			<path fill="#00597E" d="M-956.463,1189.91h12.893l-0.221,1.252h-11.547l-1.447,8.307h10.781l-0.203,1.251h-10.799l-1.711,9.589
				h12.51l-0.18,1.286h-13.877L-956.463,1189.91z"/>
			<path fill="#00597E" d="M-930.016,1202.655l-1.559,8.939h-1.367l1.508-8.688c0.482-2.705,0.703-5.853-3.418-5.853
				c-3.502,0-5.855,3.248-6.396,6.4l-1.377,8.14h-1.328l2.705-15.41h1.027c0.059,0.81-0.063,1.705-0.324,2.957h0.133
				c1.891-2.671,4.344-3.249,5.982-3.249C-929.734,1195.893-929.443,1199.307-930.016,1202.655z"/>
			<path fill="#00597E" d="M-928.195,1214.754c0-0.293,0.041-0.423,0.129-0.775h1.168v0.353c0,1.609,1.289,2.671,4.174,2.735
				c3.127,0,5.408-1.484,6.273-5.691c0.191-0.996,0.463-2.283,0.838-3.51h-0.133c-1.287,2.282-3.277,3.962-6.074,3.962
				c-3.379,0-5.018-2.097-5.018-5.445c0-4.982,2.404-10.489,7.945-10.489c1.971,0,3.9,0.71,4.695,3.062h0.141
				c0.281-1.643,0.441-2.321,0.773-2.805h1.057l-2.967,15.518c-0.863,4.404-3.088,6.556-7.691,6.556
				C-925.521,1218.223-928.195,1217.167-928.195,1214.754z M-914.84,1202.494c0.352-2.614-0.443-5.439-3.963-5.439
				c-4.104,0-6.646,4.022-6.646,9.07c0,2.766,1.145,4.57,3.951,4.57C-917.799,1210.695-915.344,1206.221-914.84,1202.494z"/>
			<path fill="#00597E" d="M-910.176,1206.256c0-5.088,2.576-10.327,8.367-10.327c3.791,0,4.857,1.991,4.857,3.729
				c0,2.671-2.795,5.12-10.047,5.12c-0.471,0-1.125,0-1.699-0.061c-0.09,0.478-0.131,1.025-0.131,1.503
				c0,2.479,0.906,4.439,4.184,4.439c3.803,0,5.18-2.025,5.381-3.761h1.156c0,0.226-0.031,0.447-0.07,0.673
				c-0.412,2.832-3.439,4.286-6.586,4.286C-909.311,1211.858-910.176,1208.921-910.176,1206.256z M-906.766,1203.747
				c6.656,0,8.467-2.126,8.467-3.957c0-1.509-1.166-2.675-3.732-2.675c-4.061,0-6.021,3.569-6.494,6.536
				C-907.822,1203.747-907.35,1203.747-906.766,1203.747z"/>
			<path fill="#00597E" d="M-881.373,1202.655l-1.551,8.939h-1.377l1.508-8.688c0.482-2.705,0.705-5.853-3.408-5.853
				c-3.51,0-5.861,3.248-6.416,6.4l-1.367,8.14h-1.326l2.693-15.41h1.045c0.061,0.81-0.068,1.705-0.33,2.957h0.131
				c1.898-2.671,4.344-3.249,5.982-3.249C-881.082,1195.893-880.801,1199.307-881.373,1202.655z"/>
			<path fill="#00597E" d="M-875.824,1199.268c1.229-1.986,3.551-3.339,6.023-3.339c4.697,0,5.09,3.213,4.467,6.787l-1.5,8.879
				h-1.387l1.479-8.335c0.543-2.987,0.703-6.175-3.471-6.175c-3.609,0-5.76,3.35-6.273,6.274l-1.42,8.235h-1.326l4.023-22.847h1.316
				l-1.277,7.145c-0.172,0.972-0.451,2.35-0.773,3.375H-875.824z"/>
			<path fill="#00597E" d="M-850.551,1211.595h-1.037c-0.131-0.743,0.031-1.93,0.223-2.829h-0.162
				c-1.6,2.347-3.66,3.093-5.693,3.093c-3.77,0-5.146-2.254-5.146-5.341c0-5.672,2.834-10.589,7.975-10.589
				c2.293,0,3.961,0.764,4.734,2.635h0.121c0.172-1.026,0.363-1.871,0.686-2.379h0.994L-850.551,1211.595z M-850.4,1203.139
				c0.611-3.832-0.514-6.054-3.992-6.054c-3.793,0-6.629,3.671-6.629,9.332c0,2.544,1.127,4.243,4.184,4.243
				C-853.064,1210.66-850.914,1207.06-850.4,1203.139z"/>
			<path fill="#00597E" d="M-846.348,1211.595l2.705-15.41h0.994c0,0.931-0.09,1.996-0.361,3.152h0.141
				c1.125-2.182,3.539-3.444,5.984-3.479l-0.133,1.424c-4.605,0.256-6.053,2.921-6.596,6.108c-0.482,2.735-0.967,5.472-1.408,8.205
				H-846.348z"/>
			<path fill="#00597E" d="M-833.869,1196.185h1.328l-2.705,15.41h-1.328L-833.869,1196.185z M-831.266,1190.779
				c0,0.674-0.541,1.252-1.186,1.252c-0.541,0-0.836-0.353-0.836-0.869c0-0.674,0.586-1.252,1.229-1.252
				C-831.588,1189.91-831.266,1190.297-831.266,1190.779z"/>
			<path fill="#00597E" d="M-817.971,1211.595h-1.025c-0.131-0.743,0.029-1.93,0.211-2.829h-0.15
				c-1.619,2.347-3.67,3.093-5.701,3.093c-3.762,0-5.141-2.254-5.141-5.341c0-5.672,2.828-10.589,7.975-10.589
				c2.285,0,3.963,0.764,4.727,2.635h0.131c0.16-1.026,0.363-1.871,0.686-2.379h0.994L-817.971,1211.595z M-817.811,1203.139
				c0.605-3.832-0.512-6.054-3.992-6.054c-3.791,0-6.615,3.671-6.615,9.332c0,2.544,1.117,4.243,4.174,4.243
				C-820.484,1210.66-818.322,1207.06-817.811,1203.139z"/>
		</g>
	</g>
	<g>
		<path fill="#4FC6E0" d="M341.367,474.443c0-0.113,0.07-0.215,0.07-0.348c0.363-35.049-27.395-57.523-58.246-57.523l-0.016,0.012
			c0,0,2.223-1.574,2.223-0.012H58.906c-1.605,0-2.938,1.191-3.141,2.795c-0.129,1.055-2.805,27.762,11.914,44.291
			c8.039,9.043,19.633,13.656,34.441,13.742c-0.277,7.586,0.426,26.166,12.125,39.314c8.086,9.08,19.734,13.705,34.641,13.744
			h12.926c-0.273,7.598,0.445,26.158,12.141,39.318c8.063,9.072,19.695,13.701,34.625,13.742h129.59
			c1.754,0,3.191-1.389,3.191-3.143c0-0.045,0-0.125,0.008-0.166V474.443z"/>
		<path fill="#FFFFFF" d="M346.504,468.234c0-31.76-25.746-57.596-57.496-57.754H64.465c-2.504,0-4.629,1.883-4.879,4.367
			c-0.129,1.094-2.906,26.99,12.344,44.133c8.055,9.045,19.453,13.848,33.938,14.299c-0.063,8.547,1.344,26.059,12.637,38.744
			c8.418,9.484,20.504,14.305,35.941,14.344h11.117c-0.074,8.564,1.332,26.045,12.625,38.717
			c8.418,9.469,20.512,14.287,35.949,14.348c0,0,104.199,0.154,127.805,0.08c0,0,0-0.004-0.012-0.012h0.02l-0.008,0.012
			c2.453,0,4.473-1.986,4.523-4.441c0,0.008,0,0.008,0,0.008L346.504,468.234z M336.77,569.568H214.137
			c-12.473-0.037-22.094-3.74-28.566-11.012c-9-10.105-10.172-24.813-10.129-32.189h77.707c2.699,0,4.918-2.201,4.918-4.928
			c0-2.715-2.219-4.924-4.918-4.924h-98.688c-12.488-0.035-22.109-3.744-28.582-11.016c-9-10.094-10.172-24.813-10.148-32.18
			h105.887c2.699,0,4.914-2.213,4.914-4.932s-2.215-4.924-4.914-4.924H107.879c-12.465-0.045-22.094-3.74-28.559-11.016
			c-8.996-10.074-10.191-24.758-10.137-32.121H288.75c26.402,0,47.898,21.498,47.898,47.906c0,0.412,0.047,0.711,0.121,0.68V569.568
			z"/>
	</g>
	<g>
		<path fill="#4FC6E0" d="M341.37,122.443c0-0.113,0.063-0.215,0.063-0.348c0.371-35.049-27.387-57.523-58.246-57.523l-0.016,0.012
			c0,0,2.23-1.574,2.23-0.012H58.909c-1.613,0-2.938,1.191-3.148,2.795c-0.129,1.055-2.797,27.762,11.922,44.291
			c8.031,9.043,19.633,13.656,34.434,13.742c-0.277,7.586,0.434,26.166,12.133,39.314c8.078,9.08,19.727,13.705,34.641,13.744
			h12.926c-0.273,7.598,0.438,26.158,12.133,39.318c8.063,9.072,19.695,13.701,34.625,13.742h129.598
			c1.742,0,3.184-1.389,3.184-3.143c0-0.045,0-0.125,0.016-0.166V122.443z"/>
		<path fill="#00597E" d="M346.507,116.234c0-31.76-25.754-57.596-57.504-57.754H64.468c-2.504,0-4.637,1.883-4.879,4.367
			c-0.129,1.094-2.906,26.99,12.344,44.133c8.047,9.045,19.453,13.848,33.93,14.299c-0.063,8.547,1.344,26.059,12.637,38.744
			c8.418,9.484,20.504,14.305,35.949,14.344h11.117c-0.082,8.564,1.324,26.045,12.617,38.717
			c8.418,9.469,20.52,14.287,35.949,14.348c0,0,104.195,0.154,127.801,0.08c0,0,0-0.004,0-0.012h0.02l-0.02,0.012
			c2.457,0,4.477-1.986,4.527-4.441c0,0.008,0,0.008,0,0.008L346.507,116.234z M336.765,217.568H214.132
			c-12.473-0.037-22.086-3.74-28.566-11.012c-9-10.105-10.164-24.813-10.129-32.189h77.715c2.699,0,4.91-2.201,4.91-4.928
			c0-2.715-2.211-4.924-4.91-4.924h-98.688c-12.488-0.035-22.121-3.744-28.582-11.016c-9-10.094-10.18-24.813-10.148-32.18h105.879
			c2.699,0,4.91-2.213,4.91-4.932s-2.211-4.924-4.91-4.924h-113.73c-12.473-0.045-22.102-3.74-28.566-11.016
			C70.319,90.375,69.12,75.691,69.187,68.328h219.559c26.402,0,47.906,21.498,47.906,47.906c0,0.412,0.047,0.711,0.113,0.68V217.568
			z"/>
	</g>
</g>
</svg>
