<?xml version="1.0" encoding="UTF-8" standalone="no"?>
<!-- Generator: Adobe Illustrator 22.1.0, SVG Export Plug-In . SVG Version: 6.00 Build 0)  -->

<svg
   xmlns:dc="http://purl.org/dc/elements/1.1/"
   xmlns:cc="http://creativecommons.org/ns#"
   xmlns:rdf="http://www.w3.org/1999/02/22-rdf-syntax-ns#"
   xmlns:svg="http://www.w3.org/2000/svg"
   xmlns="http://www.w3.org/2000/svg"
   xmlns:sodipodi="http://sodipodi.sourceforge.net/DTD/sodipodi-0.dtd"
   xmlns:inkscape="http://www.inkscape.org/namespaces/inkscape"
   version="1.1"
   id="Camada_1"
   x="0px"
   y="0px"
   viewBox="0 0 1084 469.09999"
   xml:space="preserve"
   sodipodi:docname="logo_hor_w2.svg"
   width="1084"
   height="469.10001"
   inkscape:version="0.92.3 (2405546, 2018-03-11)"><metadata
   id="metadata47"><rdf:RDF><cc:Work
       rdf:about=""><dc:format>image/svg+xml</dc:format><dc:type
         rdf:resource="http://purl.org/dc/dcmitype/StillImage" /><dc:title></dc:title></cc:Work></rdf:RDF></metadata><defs
   id="defs45" /><sodipodi:namedview
   pagecolor="#ffffff"
   bordercolor="#666666"
   borderopacity="1"
   objecttolerance="10"
   gridtolerance="10"
   guidetolerance="10"
   inkscape:pageopacity="0"
   inkscape:pageshadow="2"
   inkscape:window-width="1920"
   inkscape:window-height="1025"
   id="namedview43"
   showgrid="false"
   inkscape:zoom="0.21081808"
   inkscape:cx="541.99999"
   inkscape:cy="234.54999"
   inkscape:window-x="0"
   inkscape:window-y="0"
   inkscape:window-maximized="1"
   inkscape:current-layer="Camada_1" />
<style
   type="text/css"
   id="style2">
	.st0{fill:#00C64B;}
	.st1{fill:#FFFFFF;}
	.st2{fill:#00CE46;}
</style>
<g
   id="g40"
   transform="translate(-53.3,-186.4)">
	<g
   id="g16">
		<path
   class="st0"
   d="M 553.5,359 496.6,485.6 448.4,359 h 20.4 l 22.5,60.3 6.9,20.4 7.8,-19.9 26.6,-60.8 z"
   id="path4"
   inkscape:connector-curvature="0"
   style="fill:#00c64b" />
		<path
   class="st1"
   d="M 638.3,463.1 H 584.8 C 580.5,474.1 577,483 577,483 H 557 L 611.4,356.1 666.3,483 h -19.9 c -0.1,0 -3.6,-8.9 -8.1,-19.9 z M 632,447 c 0,0 -3.2,-6.9 -4.4,-10.1 -2.7,-7.4 -5.3,-13.5 -6.6,-17 -6,-15.1 -9.2,-25.2 -9.2,-25.2 0,0 -3.9,10.3 -9.9,25.2 -1.4,3.9 -3.7,10.1 -6.6,17 -1.2,3.2 -4.3,10.1 -4.3,10.1 0,0 2.5,-0.4 20.7,-0.4 18.2,0 20.3,0.4 20.3,0.4 z"
   id="path6"
   inkscape:connector-curvature="0"
   style="fill:#ffffff" />
		<path
   class="st1"
   d="m 679.3,356.4 68.4,67.6 14.9,15.4 -0.2,-19 v -61.2 h 20.4 V 484.7 L 711,415.2 698.8,402.1 699,417.5 v 64.9 h -19.7 z"
   id="path8"
   inkscape:connector-curvature="0"
   style="fill:#ffffff" />
		<path
   class="st1"
   d="m 891.3,359.4 v 17.7 H 854 V 482.9 H 833.1 V 377.1 h -36.2 v -17.7 z"
   id="path10"
   inkscape:connector-curvature="0"
   style="fill:#ffffff" />
		<path
   class="st1"
   d="m 988,359.2 h 2.3 v 81.4 c 0,24.5 -19.9,44.3 -44.1,44.3 -24.5,0 -44.3,-19.9 -44.3,-44.3 v -81.4 h 2.3 13.8 1.2 v 79.4 c 0,15.1 12.1,28.9 26.9,28.9 14.7,0 26.8,-13.8 26.8,-28.9 v -79.4 h 1.2 z"
   id="path12"
   inkscape:connector-curvature="0"
   style="fill:#ffffff" />
		<path
   class="st1"
   d="m 1137.3,483.1 h -19.7 l 0.2,-63.7 0.5,-14.4 -9.4,10.8 -32.4,34.4 -34.8,-32.1 -10.1,-12.1 0.4,16.8 v 60.1 h -20.2 V 355.8 l 64.7,65.6 60.8,-65.6 z"
   id="path14"
   inkscape:connector-curvature="0"
   style="fill:#ffffff" />
	</g>
	<g
   id="g30">
		<g
   id="g20">
			<path
   class="st1"
   d="m 378,340.8 -15.1,-1.5 v -3.5 c 0,-74.2 -66.1,-134.5 -147.3,-134.5 -81.2,0 -147.3,60.4 -147.3,134.5 l -0.1,7.9 H 53.3 v -7.9 c 0,-82.4 72.8,-149.4 162.4,-149.4 89.6,0 162.3,67 162.3,149.4 z"
   id="path18"
   inkscape:connector-curvature="0"
   style="fill:#ffffff" />
		</g>
		<g
   id="g24">
			<polygon
   class="st2"
   points="214.9,624.1 340.9,417.8 355,426 214.9,655.5 74.9,426 89.1,417.8 "
   id="polygon22"
   style="fill:#00ce46" />
		</g>
		<polygon
   class="st1"
   points="349.9,337.9 389.8,342 365.5,377.1 "
   id="polygon26"
   style="fill:#ffffff" />
		<path
   class="st1"
   d="m 215.6,425.6 c -45.2,0 -81.9,-36.8 -81.9,-81.9 0,-45.1 36.8,-81.9 81.9,-81.9 45.1,0 81.9,36.8 81.9,81.9 0,45.1 -36.6,81.9 -81.9,81.9 z m 0,-150.2 c -37.6,0 -68.2,30.6 -68.2,68.2 0,37.6 30.6,68.2 68.2,68.2 37.6,0 68.2,-30.6 68.2,-68.2 0,-37.6 -30.4,-68.2 -68.2,-68.2 z"
   id="path28"
   inkscape:connector-curvature="0"
   style="fill:#ffffff" />
	</g>
	<g
   id="g38">
		<circle
   class="st1"
   cx="215.60001"
   cy="342.89999"
   r="15.4"
   id="circle32"
   style="fill:#ffffff" />
		<polygon
   class="st1"
   points="303.8,246.7 252.1,271.3 227.4,326.6 234.6,333.8 312.8,255.6 "
   id="polygon34"
   style="fill:#ffffff" />
		<polygon
   class="st1"
   points="127.6,440.8 178.8,416.4 203.9,360.8 196.8,353.6 118.6,431.8 "
   id="polygon36"
   style="fill:#ffffff" />
	</g>
</g>
</svg>