<?xml version="1.0" encoding="utf-8"?>
<!-- Generator: Adobe Illustrator 22.1.0, SVG Export Plug-In . SVG Version: 6.00 Build 0)  -->
<svg version="1.1" id="Camada_1" xmlns="http://www.w3.org/2000/svg" xmlns:xlink="http://www.w3.org/1999/xlink" x="0px" y="0px"
	 viewBox="0 0 1190.6 841.9" style="enable-background:new 0 0 1190.6 841.9;" xml:space="preserve">
<style type="text/css">
	.st0{fill:#FFFFFF;}
	.st1{fill:#00CE46;}
</style>
<g>
	<g>
		<g>
			<path class="st0" d="M751.8,340.8l-15.1-1.5v-3.5c0-74.2-66.1-134.5-147.3-134.5S442,261.7,442,335.8l-0.1,7.9H427v-7.9
				c0-82.4,72.8-149.4,162.4-149.4s162.4,67,162.4,149.4L751.8,340.8L751.8,340.8z"/>
		</g>
		<g>
			<polygon class="st1" points="448.8,426 462.8,417.8 588.8,624.1 714.7,417.8 728.8,426 588.8,655.5 			"/>
		</g>
		<polygon class="st0" points="763.5,342 739.3,377.1 723.7,337.9 		"/>
		<path class="st0" d="M589.4,425.6c-45.2,0-81.9-36.8-81.9-81.9s36.8-81.9,81.9-81.9c45.1,0,81.9,36.8,81.9,81.9
			S634.7,425.6,589.4,425.6z M589.4,275.4c-37.6,0-68.2,30.6-68.2,68.2s30.6,68.2,68.2,68.2c37.6,0,68.2-30.6,68.2-68.2
			S627.2,275.4,589.4,275.4z"/>
	</g>
	<g>
		<circle class="st0" cx="589.4" cy="342.9" r="15.4"/>
		<polygon class="st0" points="608.3,333.8 686.5,255.6 677.5,246.7 625.9,271.3 601.2,326.6 		"/>
		<polygon class="st0" points="570.5,353.6 492.3,431.8 501.3,440.8 552.5,416.4 577.8,360.8 		"/>
	</g>
</g>
</svg>
